<?xml version="1.0" encoding="UTF-8"?>
<svg viewBox="0 0 140 190" xmlns="http://www.w3.org/2000/svg">
 <path d="m21 5h103c8.864 0 16 7.136 16 16v153c0 8.864-7.136 16-16 16h-103c-8.864 0-16-7.136-16-16v-153c0-8.864 7.136-16 16-16z" fill-opacity=".49804"/>
 <path d="m17 1h103c8.864 0 16 7.136 16 16v153c0 8.864-7.136 16-16 16h-103c-8.864 0-16-7.136-16-16v-153c0-8.864 7.136-16 16-16z" fill="#e7e7e7"/>
 <path d="m19 3h103c8.864 0 16 7.136 16 16v153c0 8.864-7.136 16-16 16h-103c-8.864 0-16-7.136-16-16v-153c0-8.864 7.136-16 16-16z" fill="#c7891f"/>
 <path d="m18 2h103c8.864 0 16 7.136 16 16v153c0 8.864-7.136 16-16 16h-103c-8.864 0-16-7.136-16-16v-153c0-8.864 7.136-16 16-16z" fill="#fff"/>
 <path d="m25.079 36.775h-10.001l-1.5783 5.4655h-6.4294l9.1872-30h7.6255l9.1872 30h-6.4294l-1.5617-5.4655m-8.4064-5.566h6.7949l-3.3891-11.936-3.4057 11.936"/>
 <path d="m113.61 152.1h10.001l1.5783-5.4655h6.4294l-9.1872 30h-7.6256l-9.1872-30h6.4294l1.5617 5.4655m8.4064 5.566h-6.7949l3.3891 11.936 3.4057-11.936"/>
 <path d="m20.527 48.665c-2.6664 0-4.8299 3.2635-4.8299 7.2857 0 3.4266 4.3921 9.1917 4.2215 11.93-1.4102 0.78242-5.7673-6.4375-8.019-6.4375-2.6664 0-4.8299 3.2635-4.8299 7.2857s2.1635 7.2857 4.8299 7.2857c2.3125 0 6.2757-7.214 8.019-6.5627l-2.9289 12.874 7.0236-0.04171s-3.0769-12.481-3.0808-12.776h0.0553v0.01391c1.7073-0.63971 5.8059 6.6322 8.102 6.6322 2.6664 0 4.8299-3.2635 4.8299-7.2857s-2.1635-7.2857-4.8299-7.2857c-2.2426 0-6.3077 7.1005-8.0928 6.368 0.02508-2.8054 4.3598-8.5763 4.3598-11.999 0-4.0221-2.1635-7.2857-4.8299-7.2857z" fill-rule="evenodd"/>
 <path d="m117.42 139.96c2.6664 0 4.8299-3.2635 4.8299-7.2857 0-3.4266-4.3921-9.1917-4.2215-11.93 1.4102-0.78242 5.7673 6.4375 8.019 6.4375 2.6664 0 4.8299-3.2635 4.8299-7.2857s-2.1635-7.2857-4.8299-7.2857c-2.3125 0-6.2757 7.214-8.019 6.5627l2.9289-12.874-7.0236 0.04171s3.077 12.481 3.0808 12.776h-0.05531v-0.01391c-1.7073 0.63971-5.8059-6.6322-8.102-6.6322-2.6664 0-4.8299 3.2635-4.8299 7.2857s2.1635 7.2857 4.8299 7.2857c2.2426 0 6.3077-7.1005 8.0928-6.368-0.02508 2.8054-4.3598 8.5763-4.3598 11.999 0 4.0221 2.1635 7.2857 4.8299 7.2857z" fill-rule="evenodd"/>
 <path d="m69.529 59.05c-5.726 0-10.372 7.0128-10.372 15.656 0 7.3632 9.432 19.751 9.0657 25.635-3.0285 1.6813-12.385-13.833-17.221-13.833-5.726 0-10.372 7.0128-10.372 15.656s4.646 15.656 10.372 15.656c4.9661 0 13.477-15.502 17.221-14.102l-6.2898 27.663 15.083-0.08963s-6.6077-26.82-6.6159-27.454h0.11876v0.02989c3.6664-1.3746 12.468 14.251 17.399 14.252 5.726 0 10.372-7.0128 10.372-15.656s-4.646-15.656-10.372-15.656c-4.816 0-13.546 15.258-17.379 13.684 0.05385-6.0284 9.3626-18.429 9.3626-25.784 0-8.6429-4.646-15.656-10.372-15.656z" fill-rule="evenodd"/>
</svg>
