<?xml version="1.0" encoding="UTF-8"?>
<svg viewBox="0 0 140 190" xmlns="http://www.w3.org/2000/svg" xmlns:xlink="http://www.w3.org/1999/xlink">
 <path d="m21 5h103c8.864 0 16 7.136 16 16v153c0 8.864-7.136 16-16 16h-103c-8.864 0-16-7.136-16-16v-153c0-8.864 7.136-16 16-16z" fill-opacity=".49804"/>
 <path d="m17 1h103c8.864 0 16 7.136 16 16v153c0 8.864-7.136 16-16 16h-103c-8.864 0-16-7.136-16-16v-153c0-8.864 7.136-16 16-16z" fill="#e7e7e7"/>
 <path d="m19 3h103c8.864 0 16 7.136 16 16v153c0 8.864-7.136 16-16 16h-103c-8.864 0-16-7.136-16-16v-153c0-8.864 7.136-16 16-16z" fill="#c7891f"/>
 <path d="m18 2h103c8.864 0 16 7.136 16 16v153c0 8.864-7.136 16-16 16h-103c-8.864 0-16-7.136-16-16v-153c0-8.864 7.136-16 16-16z" fill="#fff"/>
 <path d="m25.079 36.775h-10.001l-1.5783 5.4655h-6.4294l9.1872-30h7.6255l9.1872 30h-6.4294l-1.5617-5.4655m-8.4064-5.566h6.7949l-3.3891-11.936-3.4057 11.936" fill="#f00"/>
 <path d="m113.61 152.1h10.001l1.5783-5.4655h6.4294l-9.1872 30h-7.6256l-9.1872-30h6.4294l1.5617 5.4655m8.4064 5.566h-6.7949l3.3891 11.936 3.4057-11.936" fill="#f00"/>
 <path d="m20.41 48.665c-4.1258 8.2455-7.1342 12.498-13.34 17.04 5.8724 4.487 10.013 9.1245 13.46 16.62 3.0792-7.1212 6.8464-12.43 13.39-16.843-6.582-3.3489-10.393-8.6536-13.51-16.817z" fill="#f00" fill-rule="evenodd"/>
 <path d="m118.34 106.34c-4.1258 8.2455-7.1342 12.498-13.34 17.04 5.8724 4.487 10.013 9.1245 13.46 16.62 3.0792-7.1212 6.8464-12.43 13.39-16.843-6.582-3.3489-10.393-8.6536-13.51-16.817z" fill="#f00" fill-rule="evenodd"/>
 <path d="m69.276 59.05c-8.8602 17.718-15.321 26.856-28.646 36.615 12.611 9.6419 21.502 19.607 28.906 35.715 6.6126-15.302 14.703-26.71 28.754-36.193-14.135-7.1963-22.318-18.595-29.014-36.137z" fill="#f00" fill-rule="evenodd"/>
</svg>
