<?xml version="1.0" encoding="UTF-8"?>
<!DOCTYPE svg PUBLIC "-//W3C//DTD SVG 1.1//EN" "http://www.w3.org/Graphics/SVG/1.1/DTD/svg11.dtd">
<svg xmlns="http://www.w3.org/2000/svg" version="1.1" width="941px" height="1280px" style="shape-rendering:geometricPrecision; text-rendering:geometricPrecision; image-rendering:optimizeQuality; fill-rule:evenodd; clip-rule:evenodd" xmlns:xlink="http://www.w3.org/1999/xlink">
<g><path style="opacity:0.008" fill="#f4f4f4" d="M 81.5,0.5 C 81.5,0.166667 81.5,-0.166667 81.5,-0.5C 82.8333,-0.5 84.1667,-0.5 85.5,-0.5C 84.4324,0.434475 83.099,0.767809 81.5,0.5 Z"/></g>
<g><path style="opacity:0.999" fill="#e7e7e7" d="M 91.5,-0.5 C 334.833,-0.5 578.167,-0.5 821.5,-0.5C 840.992,3.41176 858.659,11.4118 874.5,23.5C 874.5,23.8333 874.5,24.1667 874.5,24.5C 873.883,24.6107 873.383,24.944 873,25.5C 858.488,15.2148 842.321,9.04811 824.5,7C 583.5,6.33333 342.5,6.33333 101.5,7C 48.4581,16.3751 16.9581,47.5418 7,100.5C 6.33333,455.167 6.33333,809.833 7,1164.5C 8.79688,1176.69 12.2969,1188.36 17.5,1199.5C 17.1543,1200.7 16.6543,1200.7 16,1199.5C 14.6667,1196.83 13.3333,1194.17 12,1191.5C 11.3292,1190.75 10.4959,1190.41 9.5,1190.5C 9.06795,1189.29 8.40128,1188.29 7.5,1187.5C 4.65917,1178.45 1.99251,1169.45 -0.5,1160.5C -0.5,804.167 -0.5,447.833 -0.5,91.5C 1.32596,86.0546 2.6593,80.3879 3.5,74.5C 6.79576,67.2354 10.1291,59.902 13.5,52.5C 15.2503,51.3406 16.2503,49.674 16.5,47.5C 20.073,43.3557 23.4063,39.0223 26.5,34.5C 33.1917,28.8039 39.8584,23.1373 46.5,17.5C 47.1667,17.5 47.5,17.1667 47.5,16.5C 56.4166,11.8742 65.4166,7.54085 74.5,3.5C 80.3969,2.65782 86.0636,1.32449 91.5,-0.5 Z"/></g>
<g><path style="opacity:0.011" fill="#fefffe" d="M 827.5,-0.5 C 828.833,-0.5 830.167,-0.5 831.5,-0.5C 831.5,-0.166667 831.5,0.166667 831.5,0.5C 829.901,0.767809 828.568,0.434475 827.5,-0.5 Z"/></g>
<g><path style="opacity:0.014" fill="#fefffe" d="M 81.5,0.5 C 80.7494,1.57346 79.7494,1.74012 78.5,1C 79.448,0.517215 80.448,0.350549 81.5,0.5 Z"/></g>
<g><path style="opacity:0.004" fill="#f3f3f3" d="M 831.5,0.5 C 833.099,0.232191 834.432,0.565525 835.5,1.5C 833.901,1.76781 832.568,1.43448 831.5,0.5 Z"/></g>
<g><path style="opacity:0.02" fill="#e5e5e5" d="M 74.5,2.5 C 75.2506,1.42654 76.2506,1.25988 77.5,2C 76.552,2.48278 75.552,2.64945 74.5,2.5 Z"/></g>
<g><path style="opacity:0.013" fill="#fefffe" d="M 835.5,1.5 C 836.791,1.26269 837.791,1.59603 838.5,2.5C 837.209,2.73731 836.209,2.40397 835.5,1.5 Z"/></g>
<g><path style="opacity:0.009" fill="#fefffe" d="M 71.5,3.5 C 72.209,2.59603 73.209,2.26269 74.5,2.5C 74.5,2.83333 74.5,3.16667 74.5,3.5C 73.5,3.5 72.5,3.5 71.5,3.5 Z"/></g>
<g><path style="opacity:0.016" fill="#dedede" d="M 838.5,2.5 C 839.791,2.26269 840.791,2.59603 841.5,3.5C 840.209,3.73731 839.209,3.40397 838.5,2.5 Z"/></g>
<g><path style="opacity:0.012" fill="#fefffe" d="M 68.5,4.5 C 69.209,3.59603 70.209,3.26269 71.5,3.5C 70.791,4.40397 69.791,4.73731 68.5,4.5 Z"/></g>
<g><path style="opacity:0.018" fill="#fefffe" d="M 841.5,3.5 C 842.239,3.36899 842.906,3.53566 843.5,4C 842.563,4.69169 841.897,4.52502 841.5,3.5 Z"/></g>
<g><path style="opacity:0.014" fill="#fefffe" d="M 66.5,5.5 C 66.8417,4.66175 67.5084,4.32842 68.5,4.5C 68.1583,5.33825 67.4916,5.67158 66.5,5.5 Z"/></g>
<g><path style="opacity:0.012" fill="#fefffe" d="M 846.5,5.5 C 845.761,5.63101 845.094,5.46434 844.5,5C 845.437,4.30831 846.103,4.47498 846.5,5.5 Z"/></g>
<g><path style="opacity:0.012" fill="#fefffe" d="M 66.5,5.5 C 66.1034,6.52502 65.4368,6.69169 64.5,6C 65.0944,5.53566 65.7611,5.36899 66.5,5.5 Z"/></g>
<g><path style="opacity:0.01" fill="#fefffe" d="M 846.5,5.5 C 847.791,5.26269 848.791,5.59603 849.5,6.5C 848.209,6.73731 847.209,6.40397 846.5,5.5 Z"/></g>
<g><path style="opacity:0.012" fill="#a2a2a2" d="M 61.5,7.5 C 61.8966,6.47498 62.5632,6.30831 63.5,7C 62.9056,7.46434 62.2389,7.63101 61.5,7.5 Z"/></g>
<g><path style="opacity:1" fill="#fefefe" d="M 874.5,24.5 C 881.131,29.4629 887.131,35.1295 892.5,41.5C 908.962,60.6909 918.129,83.0242 920,108.5C 920.667,458.167 920.667,807.833 920,1157.5C 914.636,1204.85 889.803,1237.01 845.5,1254C 836.64,1256.42 827.64,1258.09 818.5,1259C 581.833,1259.67 345.167,1259.67 108.5,1259C 83.0242,1257.13 60.6909,1247.96 41.5,1231.5C 33.4373,1224.44 26.104,1216.77 19.5,1208.5C 19.2624,1206.6 18.2624,1205.26 16.5,1204.5C 14.1799,1199.86 11.8466,1195.19 9.5,1190.5C 10.4959,1190.41 11.3292,1190.75 12,1191.5C 13.3333,1194.17 14.6667,1196.83 16,1199.5C 16.6543,1200.7 17.1543,1200.7 17.5,1199.5C 12.2969,1188.36 8.79688,1176.69 7,1164.5C 6.33333,809.833 6.33333,455.167 7,100.5C 16.9581,47.5418 48.4581,16.3751 101.5,7C 342.5,6.33333 583.5,6.33333 824.5,7C 842.321,9.04811 858.488,15.2148 873,25.5C 873.383,24.944 873.883,24.6107 874.5,24.5 Z"/></g>
<g><path style="opacity:0.016" fill="#fefffe" d="M 849.5,6.5 C 850.833,7.16667 850.833,7.16667 849.5,6.5 Z"/></g>
<g><path style="opacity:0.014" fill="#fefffe" d="M 59.5,8.5 C 59.8417,7.66175 60.5084,7.32842 61.5,7.5C 61.1583,8.33825 60.4916,8.67158 59.5,8.5 Z"/></g>
<g><path style="opacity:0.014" fill="#fefffe" d="M 853.5,8.5 C 852.761,8.63101 852.094,8.46434 851.5,8C 852.437,7.30831 853.103,7.47498 853.5,8.5 Z"/></g>
<g><path style="opacity:0.016" fill="#d3d3d3" d="M 57.5,9.5 C 57.8417,8.66175 58.5084,8.32842 59.5,8.5C 59.1583,9.33825 58.4916,9.67158 57.5,9.5 Z"/></g>
<g><path style="opacity:0.016" fill="#fefffe" d="M 853.5,8.5 C 854.833,9.16667 854.833,9.16667 853.5,8.5 Z"/></g>
<g><path style="opacity:0.02" fill="#dcdcdc" d="M 55.5,10.5 C 55.8417,9.66175 56.5084,9.32842 57.5,9.5C 57.1583,10.3382 56.4916,10.6716 55.5,10.5 Z"/></g>
<g><path style="opacity:0.012" fill="#fefffe" d="M 857.5,10.5 C 856.761,10.631 856.094,10.4643 855.5,10C 856.437,9.30831 857.103,9.47498 857.5,10.5 Z"/></g>
<g><path style="opacity:0.012" fill="#fefffe" d="M 55.5,10.5 C 54.8333,11.1667 54.8333,11.1667 55.5,10.5 Z"/></g>
<g><path style="opacity:0.012" fill="#fefffe" d="M 857.5,10.5 C 858.833,11.1667 858.833,11.1667 857.5,10.5 Z"/></g>
<g><path style="opacity:0.016" fill="#fefffe" d="M 52.5,11.5 C 53.8333,12.1667 53.8333,12.1667 52.5,11.5 Z"/></g>
<g><path style="opacity:0.016" fill="#fefffe" d="M 859.5,11.5 C 860.833,12.1667 860.833,12.1667 859.5,11.5 Z"/></g>
<g><path style="opacity:0.008" fill="#fefffe" d="M 47.5,16.5 C 46.8333,16.5 46.5,16.8333 46.5,17.5C 44.0248,17.2533 44.0248,16.5866 46.5,15.5C 47.1067,15.6236 47.44,15.9569 47.5,16.5 Z"/></g>
<g><path style="opacity:0.008" fill="#fefffe" d="M 40.5,19.5 C 41.8333,20.1667 41.8333,20.1667 40.5,19.5 Z"/></g>
<g><path style="opacity:0.008" fill="#fefffe" d="M 874.5,22.5 C 875.833,23.1667 875.833,23.1667 874.5,22.5 Z"/></g>
<g><path style="opacity:0.008" fill="#fefffe" d="M 877.5,24.5 C 876.833,23.1667 876.833,23.1667 877.5,24.5 Z"/></g>
<g><path style="opacity:0.008" fill="#fefffe" d="M 877.5,24.5 C 878.167,24.5 878.5,24.8333 878.5,25.5C 878.167,25.1667 877.833,24.8333 877.5,24.5 Z"/></g>
<g><path style="opacity:0.012" fill="#a9aaa9" d="M 878.5,25.5 C 879.833,26.1667 879.833,26.1667 878.5,25.5 Z"/></g>
<g><path style="opacity:0.012" fill="#fefffe" d="M 26.5,34.5 C 25.8333,33.1667 25.8333,33.1667 26.5,34.5 Z"/></g>
<g><path style="opacity:0.008" fill="#fefffe" d="M 25.5,34.5 C 24.8333,35.1667 24.8333,35.1667 25.5,34.5 Z"/></g>
<g><path style="opacity:0.008" fill="#fefffe" d="M 24.5,35.5 C 23.8333,36.1667 23.8333,36.1667 24.5,35.5 Z"/></g>
<g><path style="opacity:0.004" fill="#000000" d="M 23.5,36.5 C 22.8333,37.1667 22.8333,37.1667 23.5,36.5 Z"/></g>
<g><path style="opacity:0.004" fill="#fefffe" d="M 16.5,44.5 C 17.8333,45.1667 17.8333,45.1667 16.5,44.5 Z"/></g>
<g><path style="opacity:0.016" fill="#fefffe" d="M 16.5,47.5 C 15.8333,46.1667 15.8333,46.1667 16.5,47.5 Z"/></g>
<g><path style="opacity:0.008" fill="#7f807f" d="M 15.5,47.5 C 14.8333,48.1667 14.8333,48.1667 15.5,47.5 Z"/></g>
<g><path style="opacity:0.016" fill="#fefffe" d="M 13.5,49.5 C 14.8333,50.1667 14.8333,50.1667 13.5,49.5 Z"/></g>
<g><path style="opacity:0.01" fill="#fefffe" d="M 13.5,50.5 C 13.5,51.1667 13.5,51.8333 13.5,52.5C 13.1667,52.5 12.8333,52.5 12.5,52.5C 12.3284,51.5084 12.6618,50.8417 13.5,50.5 Z"/></g>
<g><path style="opacity:0.016" fill="#fefffe" d="M 12.5,52.5 C 11.8333,53.1667 11.8333,53.1667 12.5,52.5 Z"/></g>
<g><path style="opacity:0.012" fill="#fefffe" d="M 10.5,54.5 C 11.8333,55.1667 11.8333,55.1667 10.5,54.5 Z"/></g>
<g><path style="opacity:0.02" fill="#dcdcdc" d="M 10.5,55.5 C 10.6716,56.4916 10.3382,57.1583 9.5,57.5C 9.32842,56.5084 9.66175,55.8417 10.5,55.5 Z"/></g>
<g><path style="opacity:0.01" fill="#fefffe" d="M 9.5,57.5 C 9.67158,58.4916 9.33825,59.1583 8.5,59.5C 8.32842,58.5084 8.66175,57.8417 9.5,57.5 Z"/></g>
<g><path style="opacity:0.008" fill="#000000" d="M 912.5,59.5 C 911.833,58.1667 911.833,58.1667 912.5,59.5 Z"/></g>
<g><path style="opacity:0.492" fill="#000000" d="M 905.5,55.5 C 907.754,56.4151 909.754,57.7484 911.5,59.5C 912.757,62.4274 914.757,64.7607 917.5,66.5C 917.738,68.4044 918.738,69.7377 920.5,70.5C 921.759,74.0246 923.759,77.0246 926.5,79.5C 927.992,83.8178 929.992,87.8178 932.5,91.5C 935.341,100.547 938.007,109.547 940.5,118.5C 940.5,474.833 940.5,831.167 940.5,1187.5C 937.447,1200.98 932.781,1213.98 926.5,1226.5C 924.75,1227.66 923.75,1229.33 923.5,1231.5C 921.1,1233.3 919.433,1235.63 918.5,1238.5C 917.833,1238.5 917.5,1238.83 917.5,1239.5C 914.781,1241.22 912.781,1243.55 911.5,1246.5C 910.833,1246.5 910.5,1246.83 910.5,1247.5C 909.833,1247.5 909.5,1247.83 909.5,1248.5C 908.833,1248.5 908.5,1248.83 908.5,1249.5C 907.833,1249.5 907.5,1249.83 907.5,1250.5C 906.5,1250.83 905.833,1251.5 905.5,1252.5C 903.251,1253.08 901.585,1254.41 900.5,1256.5C 899.833,1256.5 899.5,1256.83 899.5,1257.5C 897.147,1258.34 895.147,1259.67 893.5,1261.5C 892.833,1261.5 892.5,1261.83 892.5,1262.5C 890.326,1262.75 888.659,1263.75 887.5,1265.5C 874.985,1271.78 861.985,1276.45 848.5,1279.5C 605.167,1279.5 361.833,1279.5 118.5,1279.5C 105.015,1276.45 92.0152,1271.78 79.5,1265.5C 79.0269,1264.09 78.0269,1263.43 76.5,1263.5C 74.8525,1261.67 72.8525,1260.34 70.5,1259.5C 69.7377,1257.74 68.4044,1256.74 66.5,1256.5C 65.0892,1254.09 63.0892,1252.42 60.5,1251.5C 58.4202,1249.43 56.7536,1247.09 55.5,1244.5C 73.4332,1257.31 93.4332,1264.48 115.5,1266C 351.833,1266.67 588.167,1266.67 824.5,1266C 875.383,1260.47 908.55,1233.31 924,1184.5C 925.718,1177.61 926.718,1170.61 927,1163.5C 927.667,813.5 927.667,463.5 927,113.5C 925.049,92.1387 917.883,72.8054 905.5,55.5 Z"/></g>
<g><path style="opacity:0.004" fill="#000000" d="M 912.5,59.5 C 913.167,59.5 913.5,59.8333 913.5,60.5C 913.167,60.1667 912.833,59.8333 912.5,59.5 Z"/></g>
<g><path style="opacity:0.02" fill="#d2d2d2" d="M 8.5,59.5 C 8.63101,60.2389 8.46434,60.9056 8,61.5C 7.30831,60.5632 7.47498,59.8966 8.5,59.5 Z"/></g>
<g><path style="opacity:0.008" fill="#000000" d="M 913.5,60.5 C 914.167,60.5 914.5,60.8333 914.5,61.5C 914.167,61.1667 913.833,60.8333 913.5,60.5 Z"/></g>
<g><path style="opacity:0.004" fill="#000000" d="M 914.5,61.5 C 915.167,61.5 915.5,61.8333 915.5,62.5C 915.167,62.1667 914.833,61.8333 914.5,61.5 Z"/></g>
<g><path style="opacity:0.016" fill="#fefffe" d="M 6.5,62.5 C 7.83333,63.1667 7.83333,63.1667 6.5,62.5 Z"/></g>
<g><path style="opacity:0.004" fill="#000000" d="M 915.5,62.5 C 916.833,63.1667 916.833,63.1667 915.5,62.5 Z"/></g>
<g><path style="opacity:0.009" fill="#fefffe" d="M 6.5,63.5 C 6.73731,64.791 6.40397,65.791 5.5,66.5C 5.26269,65.209 5.59603,64.209 6.5,63.5 Z"/></g>
<g><path style="opacity:0.004" fill="#000000" d="M 918.5,66.5 C 917.833,65.1667 917.833,65.1667 918.5,66.5 Z"/></g>
<g><path style="opacity:0.004" fill="#000000" d="M 918.5,66.5 C 919.167,66.5 919.5,66.8333 919.5,67.5C 919.167,67.1667 918.833,66.8333 918.5,66.5 Z"/></g>
<g><path style="opacity:0.02" fill="#dcdcdc" d="M 5.5,66.5 C 5.67158,67.4916 5.33825,68.1583 4.5,68.5C 4.32842,67.5084 4.66175,66.8417 5.5,66.5 Z"/></g>
<g><path style="opacity:0.004" fill="#000000" d="M 919.5,67.5 C 920.833,68.1667 920.833,68.1667 919.5,67.5 Z"/></g>
<g><path style="opacity:0.012" fill="#fefffe" d="M 4.5,68.5 C 4.73731,69.791 4.40397,70.791 3.5,71.5C 3.26269,70.209 3.59603,69.209 4.5,68.5 Z"/></g>
<g><path style="opacity:0.012" fill="#000000" d="M 921.5,70.5 C 920.833,69.1667 920.833,69.1667 921.5,70.5 Z"/></g>
<g><path style="opacity:0.008" fill="#000000" d="M 921.5,70.5 C 922.167,70.5 922.5,70.8333 922.5,71.5C 922.167,71.1667 921.833,70.8333 921.5,70.5 Z"/></g>
<g><path style="opacity:0.009" fill="#fefffe" d="M 3.5,71.5 C 3.5,72.5 3.5,73.5 3.5,74.5C 3.16667,74.5 2.83333,74.5 2.5,74.5C 2.26269,73.209 2.59603,72.209 3.5,71.5 Z"/></g>
<g><path style="opacity:0.004" fill="#000000" d="M 922.5,71.5 C 923.833,72.1667 923.833,72.1667 922.5,71.5 Z"/></g>
<g><path style="opacity:0.008" fill="#000000" d="M 924.5,74.5 C 923.833,73.1667 923.833,73.1667 924.5,74.5 Z"/></g>
<g><path style="opacity:0.014" fill="#fefffe" d="M 2.5,74.5 C 2.64945,75.552 2.48278,76.552 2,77.5C 1.25988,76.2506 1.42654,75.2506 2.5,74.5 Z"/></g>
<g><path style="opacity:0.004" fill="#000000" d="M 924.5,74.5 C 925.833,75.1667 925.833,75.1667 924.5,74.5 Z"/></g>
<g><path style="opacity:1" fill="#010101" d="M 102.5,75.5 C 120.077,75.1746 137.577,75.5079 155,76.5C 175.342,143.529 195.842,210.529 216.5,277.5C 201.848,278.499 187.182,278.833 172.5,278.5C 169.711,266.177 166.378,254.01 162.5,242C 139.836,241.5 117.169,241.333 94.5,241.5C 91.1667,253.833 87.8333,266.167 84.5,278.5C 69.8295,278.667 55.1629,278.5 40.5,278C 61.6129,210.615 82.2796,143.115 102.5,75.5 Z"/></g>
<g><path style="opacity:0.008" fill="#000000" d="M 925.5,76.5 C 926.833,77.1667 926.833,77.1667 925.5,76.5 Z"/></g>
<g><path style="opacity:0.01" fill="#f4f4f4" d="M 0.5,81.5 C 0.350549,80.448 0.517215,79.448 1,78.5C 1.74012,79.7494 1.57346,80.7494 0.5,81.5 Z"/></g>
<g><path style="opacity:0.012" fill="#545554" d="M 927.5,79.5 C 926.833,78.1667 926.833,78.1667 927.5,79.5 Z"/></g>
<g><path style="opacity:0.004" fill="#000000" d="M 927.5,79.5 C 928.833,80.1667 928.833,80.1667 927.5,79.5 Z"/></g>
<g><path style="opacity:0.012" fill="#fefffe" d="M -0.5,81.5 C -0.166667,81.5 0.166667,81.5 0.5,81.5C 0.767809,83.099 0.434475,84.4324 -0.5,85.5C -0.5,84.1667 -0.5,82.8333 -0.5,81.5 Z"/></g>
<g><path style="opacity:0.004" fill="#000000" d="M 928.5,81.5 C 929.833,82.1667 929.833,82.1667 928.5,81.5 Z"/></g>
<g><path style="opacity:0.008" fill="#000000" d="M 929.5,83.5 C 930.833,84.1667 930.833,84.1667 929.5,83.5 Z"/></g>
<g><path style="opacity:0.008" fill="#000000" d="M 931.5,86.5 C 930.833,85.1667 930.833,85.1667 931.5,86.5 Z"/></g>
<g><path style="opacity:0.008" fill="#000000" d="M 931.5,86.5 C 932.525,86.8966 932.692,87.5632 932,88.5C 931.536,87.9056 931.369,87.2389 931.5,86.5 Z"/></g>
<g><path style="opacity:0.004" fill="#a2a2a2" d="M 933.5,91.5 C 933.167,91.5 932.833,91.5 932.5,91.5C 932.833,88.8333 933.167,88.8333 933.5,91.5 Z"/></g>
<g><path style="opacity:0.008" fill="#000000" d="M 933.5,91.5 C 934.525,91.8966 934.692,92.5632 934,93.5C 933.536,92.9056 933.369,92.2389 933.5,91.5 Z"/></g>
<g><path style="opacity:0.012" fill="#000000" d="M 934.5,94.5 C 935.833,95.1667 935.833,95.1667 934.5,94.5 Z"/></g>
<g><path style="opacity:0.008" fill="#535353" d="M 935.5,96.5 C 936.525,96.8966 936.692,97.5632 936,98.5C 935.536,97.9056 935.369,97.2389 935.5,96.5 Z"/></g>
<g><path style="opacity:0.006" fill="#000000" d="M 937.5,101.5 C 936.475,101.103 936.308,100.437 937,99.5C 937.464,100.094 937.631,100.761 937.5,101.5 Z"/></g>
<g><path style="opacity:0.006" fill="#2a2a2a" d="M 937.5,101.5 C 938.573,102.251 938.74,103.251 938,104.5C 937.517,103.552 937.351,102.552 937.5,101.5 Z"/></g>
<g><path style="opacity:0.007" fill="#000000" d="M 939.5,108.5 C 938.427,107.749 938.26,106.749 939,105.5C 939.483,106.448 939.649,107.448 939.5,108.5 Z"/></g>
<g><path style="opacity:0.005" fill="#1c1c1c" d="M 939.5,108.5 C 939.833,108.5 940.167,108.5 940.5,108.5C 940.5,109.833 940.5,111.167 940.5,112.5C 939.566,111.432 939.232,110.099 939.5,108.5 Z"/></g>
<g><path style="opacity:1" fill="#c1831c" d="M 892.5,41.5 C 897.289,45.7446 901.622,50.4113 905.5,55.5C 917.883,72.8054 925.049,92.1387 927,113.5C 927.667,463.5 927.667,813.5 927,1163.5C 926.718,1170.61 925.718,1177.61 924,1184.5C 908.55,1233.31 875.383,1260.47 824.5,1266C 588.167,1266.67 351.833,1266.67 115.5,1266C 93.4332,1264.48 73.4332,1257.31 55.5,1244.5C 50.4113,1240.62 45.7446,1236.29 41.5,1231.5C 60.6909,1247.96 83.0242,1257.13 108.5,1259C 345.167,1259.67 581.833,1259.67 818.5,1259C 827.64,1258.09 836.64,1256.42 845.5,1254C 889.803,1237.01 914.636,1204.85 920,1157.5C 920.667,807.833 920.667,458.167 920,108.5C 918.129,83.0242 908.962,60.6909 892.5,41.5 Z"/></g>
<g><path style="opacity:1" fill="#fbfbfb" d="M 151.5,203.5 C 136.324,203.829 121.324,203.496 106.5,202.5C 113.087,176.239 120.587,150.239 129,124.5C 136.577,150.936 144.077,177.269 151.5,203.5 Z"/></g>
<g><path style="opacity:1" fill="#9c9c9c" d="M 106.5,202.5 C 121.324,203.496 136.324,203.829 151.5,203.5C 136.328,204.826 120.995,204.826 105.5,203.5C 105.624,202.893 105.957,202.56 106.5,202.5 Z"/></g>
<g><path style="opacity:1" fill="#010101" d="M 134.5,322.5 C 140.07,330.274 145.57,338.274 151,346.5C 168.713,367.878 186.047,389.545 203,411.5C 212.98,424.793 220.313,439.46 225,455.5C 226.647,474.53 218.48,487.363 200.5,494C 185.772,499.788 172.438,497.455 160.5,487C 152.436,480.018 145.936,471.851 141,462.5C 148.962,491.896 157.462,521.229 166.5,550.5C 146.5,550.5 126.5,550.5 106.5,550.5C 114.47,521.12 123.136,491.953 132.5,463C 131.551,462.383 130.718,462.549 130,463.5C 117.322,491.255 96.1552,501.422 66.5,494C 52.0022,489.509 44.3355,479.676 43.5,464.5C 44.2072,456.88 46.0405,449.546 49,442.5C 58.0886,424.761 68.7553,408.094 81,392.5C 94,376.5 107,360.5 120,344.5C 125.475,337.538 130.308,330.204 134.5,322.5 Z"/></g>
<g><path style="opacity:1" fill="#000000" d="M 464.5,393.5 C 477.409,414.969 491.575,435.636 507,455.5C 531,484.833 555,514.167 579,543.5C 599.224,569.06 617.891,595.727 635,623.5C 645.132,641.093 652.465,659.759 657,679.5C 661.512,712.641 649.345,737.475 620.5,754C 609.377,760.063 597.71,764.73 585.5,768C 565.558,770.431 547.225,766.098 530.5,755C 507.925,739.01 490.092,718.843 477,694.5C 476.333,696.167 476.333,697.833 477,699.5C 495.087,760.587 513.253,821.587 531.5,882.5C 488.5,882.5 445.5,882.5 402.5,882.5C 420.829,819.844 439.163,757.178 457.5,694.5C 456.178,694.33 455.011,694.663 454,695.5C 423.801,759.846 374.968,780.68 307.5,758C 273.118,740.571 260.951,713.071 271,675.5C 276.335,656.832 284.001,639.165 294,622.5C 309.16,597.678 325.494,573.678 343,550.5C 375,510.5 407,470.5 439,430.5C 448.004,418.486 456.504,406.152 464.5,393.5 Z"/></g>
<g><path style="opacity:1" fill="#888888" d="M 757.5,713.5 C 777.671,712.172 798.004,712.172 818.5,713.5C 818.376,714.107 818.043,714.44 817.5,714.5C 797.674,713.503 777.674,713.17 757.5,713.5 Z"/></g>
<g><path style="opacity:1" fill="#010101" d="M 757.5,713.5 C 777.674,713.17 797.674,713.503 817.5,714.5C 809.443,741.841 801.276,769.174 793,796.5C 792.219,797.944 792.386,799.277 793.5,800.5C 810.842,766.108 836.508,757.941 870.5,776C 880.488,785.587 883.322,797.087 879,810.5C 875.33,821.506 870.33,831.839 864,841.5C 844.877,868.736 824.543,895.069 803,920.5C 798.333,927.167 793.667,933.833 789,940.5C 784.249,932.663 779.249,924.996 774,917.5C 754.619,893.788 735.619,869.788 717,845.5C 709.192,834.55 703.526,822.55 700,809.5C 696.807,791.719 703.307,778.886 719.5,771C 734.665,763.037 748.999,764.37 762.5,775C 771.232,782.055 778.065,790.555 783,800.5C 775.903,771.114 767.403,742.114 757.5,713.5 Z"/></g>
<g><path style="opacity:1" fill="#434343" d="M 751.5,986.5 C 736.99,986.171 722.657,986.504 708.5,987.5C 707.957,987.44 707.624,987.107 707.5,986.5C 722.328,985.174 736.995,985.174 751.5,986.5 Z"/></g>
<g><path style="opacity:1" fill="#3d3d3d" d="M 840.5,986.5 C 854.657,985.504 868.99,985.171 883.5,985.5C 883.737,986.791 883.404,987.791 882.5,988.5C 868.873,986.518 854.873,985.851 840.5,986.5 Z"/></g>
<g><path style="opacity:1" fill="#010101" d="M 751.5,986.5 C 755.037,998.443 758.37,1010.44 761.5,1022.5C 784.176,1022.83 806.843,1022.5 829.5,1021.5C 833.334,1009.81 837.001,998.145 840.5,986.5C 854.873,985.851 868.873,986.518 882.5,988.5C 862.495,1054.84 842.329,1121.18 822,1187.5C 804.577,1188.49 787.077,1188.83 769.5,1188.5C 749.369,1121.44 729.036,1054.44 708.5,987.5C 722.657,986.504 736.99,986.171 751.5,986.5 Z"/></g>
<g><path style="opacity:1" fill="#fcfcfc" d="M 773.5,1060.5 C 788.515,1060.17 803.515,1060.5 818.5,1061.5C 811.064,1087.84 803.564,1114.18 796,1140.5C 787.856,1113.91 780.356,1087.25 773.5,1060.5 Z"/></g>
<g><path style="opacity:0.02" fill="#d9d9d9" d="M -0.5,1166.5 C 0.434475,1167.57 0.767809,1168.9 0.5,1170.5C 0.166667,1170.5 -0.166667,1170.5 -0.5,1170.5C -0.5,1169.17 -0.5,1167.83 -0.5,1166.5 Z"/></g>
<g><path style="opacity:0.013" fill="#fefffe" d="M 0.5,1170.5 C 1.57346,1171.25 1.74012,1172.25 1,1173.5C 0.517215,1172.55 0.350549,1171.55 0.5,1170.5 Z"/></g>
<g><path style="opacity:0.014" fill="#fefffe" d="M 2.5,1177.5 C 1.42654,1176.75 1.25988,1175.75 2,1174.5C 2.48278,1175.45 2.64945,1176.45 2.5,1177.5 Z"/></g>
<g><path style="opacity:0.016" fill="#fefffe" d="M 2.5,1177.5 C 3.52502,1177.9 3.69169,1178.56 3,1179.5C 2.53566,1178.91 2.36899,1178.24 2.5,1177.5 Z"/></g>
<g><path style="opacity:0.02" fill="#e5e5e5" d="M 4.5,1183.5 C 3.42654,1182.75 3.25988,1181.75 4,1180.5C 4.48278,1181.45 4.64945,1182.45 4.5,1183.5 Z"/></g>
<g><path style="opacity:0.01" fill="#fefffe" d="M 4.5,1183.5 C 5.33825,1183.84 5.67158,1184.51 5.5,1185.5C 4.66175,1185.16 4.32842,1184.49 4.5,1183.5 Z"/></g>
<g><path style="opacity:0.02" fill="#e1e1e1" d="M 5.5,1185.5 C 6.33825,1185.84 6.67158,1186.51 6.5,1187.5C 5.66175,1187.16 5.32842,1186.49 5.5,1185.5 Z"/></g>
<g><path style="opacity:0.016" fill="#d3d3d3" d="M 6.5,1187.5 C 6.83333,1187.5 7.16667,1187.5 7.5,1187.5C 7.16667,1190.17 6.83333,1190.17 6.5,1187.5 Z"/></g>
<g><path style="opacity:0.012" fill="#fefffe" d="M 8.5,1192.5 C 7.47498,1192.1 7.30831,1191.44 8,1190.5C 8.46434,1191.09 8.63101,1191.76 8.5,1192.5 Z"/></g>
<g><path style="opacity:0.02" fill="#cbcccb" d="M 8.5,1192.5 C 9.83333,1193.17 9.83333,1193.17 8.5,1192.5 Z"/></g>
<g><path style="opacity:0.012" fill="#fefffe" d="M 10.5,1196.5 C 9.47498,1196.1 9.30831,1195.44 10,1194.5C 10.4643,1195.09 10.631,1195.76 10.5,1196.5 Z"/></g>
<g><path style="opacity:0.004" fill="#232323" d="M 940.5,1193.5 C 940.5,1194.83 940.5,1196.17 940.5,1197.5C 940.167,1197.5 939.833,1197.5 939.5,1197.5C 939.232,1195.9 939.566,1194.57 940.5,1193.5 Z"/></g>
<g><path style="opacity:0.016" fill="#fefffe" d="M 10.5,1196.5 C 11.8333,1197.17 11.8333,1197.17 10.5,1196.5 Z"/></g>
<g><path style="opacity:0.007" fill="#000000" d="M 939.5,1197.5 C 939.649,1198.55 939.483,1199.55 939,1200.5C 938.26,1199.25 938.427,1198.25 939.5,1197.5 Z"/></g>
<g><path style="opacity:0.016" fill="#bebfbe" d="M 11.5,1198.5 C 12.8333,1199.17 12.8333,1199.17 11.5,1198.5 Z"/></g>
<g><path style="opacity:0.006" fill="#2a2a2a" d="M 937.5,1204.5 C 937.351,1203.45 937.517,1202.45 938,1201.5C 938.74,1202.75 938.573,1203.75 937.5,1204.5 Z"/></g>
<g><path style="opacity:0.012" fill="#fefffe" d="M 16.5,1204.5 C 15.8333,1205.17 15.8333,1205.17 16.5,1204.5 Z"/></g>
<g><path style="opacity:0.006" fill="#000000" d="M 937.5,1204.5 C 937.631,1205.24 937.464,1205.91 937,1206.5C 936.308,1205.56 936.475,1204.9 937.5,1204.5 Z"/></g>
<g><path style="opacity:0.004" fill="#fefffe" d="M 17.5,1207.5 C 16.8333,1206.17 16.8333,1206.17 17.5,1207.5 Z"/></g>
<g><path style="opacity:0.016" fill="#fefffe" d="M 17.5,1207.5 C 18.1667,1207.5 18.5,1207.83 18.5,1208.5C 18.1667,1208.17 17.8333,1207.83 17.5,1207.5 Z"/></g>
<g><path style="opacity:0.008" fill="#000000" d="M 935.5,1207.5 C 936.525,1207.9 936.692,1208.56 936,1209.5C 935.536,1208.91 935.369,1208.24 935.5,1207.5 Z"/></g>
<g><path style="opacity:0.012" fill="#fefffe" d="M 18.5,1208.5 C 18.8333,1208.5 19.1667,1208.5 19.5,1208.5C 19.3147,1209.17 18.9813,1209.17 18.5,1208.5 Z"/></g>
<g><path style="opacity:0.008" fill="#fefffe" d="M 19.5,1210.5 C 20.8333,1211.17 20.8333,1211.17 19.5,1210.5 Z"/></g>
<g><path style="opacity:0.006" fill="#000000" d="M 934.5,1212.5 C 934.369,1211.76 934.536,1211.09 935,1210.5C 935.692,1211.44 935.525,1212.1 934.5,1212.5 Z"/></g>
<g><path style="opacity:0.008" fill="#000000" d="M 934.5,1212.5 C 934.631,1213.24 934.464,1213.91 934,1214.5C 933.308,1213.56 933.475,1212.9 934.5,1212.5 Z"/></g>
<g><path style="opacity:0.004" fill="#000000" d="M 932.5,1215.5 C 933.833,1216.17 933.833,1216.17 932.5,1215.5 Z"/></g>
<g><path style="opacity:0.006" fill="#000000" d="M 931.5,1219.5 C 931.369,1218.76 931.536,1218.09 932,1217.5C 932.692,1218.44 932.525,1219.1 931.5,1219.5 Z"/></g>
<g><path style="opacity:0.008" fill="#000000" d="M 931.5,1219.5 C 930.833,1220.17 930.833,1220.17 931.5,1219.5 Z"/></g>
<g><path style="opacity:0.006" fill="#000000" d="M 929.5,1223.5 C 929.369,1222.76 929.536,1222.09 930,1221.5C 930.692,1222.44 930.525,1223.1 929.5,1223.5 Z"/></g>
<g><path style="opacity:0.004" fill="#000000" d="M 929.5,1223.5 C 928.833,1224.17 928.833,1224.17 929.5,1223.5 Z"/></g>
<g><path style="opacity:0.004" fill="#000000" d="M 927.5,1225.5 C 928.833,1226.17 928.833,1226.17 927.5,1225.5 Z"/></g>
<g><path style="opacity:0.004" fill="#000000" d="M 926.5,1226.5 C 926.833,1226.5 927.167,1226.5 927.5,1226.5C 927.672,1227.49 927.338,1228.16 926.5,1228.5C 926.5,1227.83 926.5,1227.17 926.5,1226.5 Z"/></g>
<g><path style="opacity:0.008" fill="#000000" d="M 926.5,1228.5 C 925.833,1229.17 925.833,1229.17 926.5,1228.5 Z"/></g>
<g><path style="opacity:0.004" fill="#000000" d="M 924.5,1230.5 C 925.833,1231.17 925.833,1231.17 924.5,1230.5 Z"/></g>
<g><path style="opacity:0.008" fill="#000000" d="M 923.5,1231.5 C 923.833,1231.5 924.167,1231.5 924.5,1231.5C 924.315,1232.17 923.981,1232.17 923.5,1231.5 Z"/></g>
<g><path style="opacity:0.004" fill="#000000" d="M 922.5,1233.5 C 923.833,1234.17 923.833,1234.17 922.5,1233.5 Z"/></g>
<g><path style="opacity:0.008" fill="#000000" d="M 922.5,1234.5 C 921.833,1235.17 921.833,1235.17 922.5,1234.5 Z"/></g>
<g><path style="opacity:0.004" fill="#000000" d="M 919.5,1237.5 C 920.833,1238.17 920.833,1238.17 919.5,1237.5 Z"/></g>
<g><path style="opacity:0.008" fill="#7f807f" d="M 918.5,1238.5 C 918.833,1238.5 919.167,1238.5 919.5,1238.5C 919.315,1239.17 918.981,1239.17 918.5,1238.5 Z"/></g>
<g><path style="opacity:0.004" fill="#000000" d="M 917.5,1239.5 C 917.833,1239.5 918.167,1239.5 918.5,1239.5C 918.315,1240.17 917.981,1240.17 917.5,1239.5 Z"/></g>
<g><path style="opacity:0.004" fill="#000000" d="M 915.5,1242.5 C 916.833,1243.17 916.833,1243.17 915.5,1242.5 Z"/></g>
<g><path style="opacity:0.004" fill="#000000" d="M 915.5,1243.5 C 914.833,1244.17 914.833,1244.17 915.5,1243.5 Z"/></g>
<g><path style="opacity:0.008" fill="#000000" d="M 914.5,1244.5 C 913.833,1245.17 913.833,1245.17 914.5,1244.5 Z"/></g>
<g><path style="opacity:0.012" fill="#000000" d="M 911.5,1246.5 C 912.833,1247.17 912.833,1247.17 911.5,1246.5 Z"/></g>
<g><path style="opacity:0.004" fill="#000000" d="M 910.5,1247.5 C 910.833,1247.5 911.167,1247.5 911.5,1247.5C 911.315,1248.17 910.981,1248.17 910.5,1247.5 Z"/></g>
<g><path style="opacity:0.004" fill="#000000" d="M 909.5,1248.5 C 909.833,1248.5 910.167,1248.5 910.5,1248.5C 910.315,1249.17 909.981,1249.17 909.5,1248.5 Z"/></g>
<g><path style="opacity:0.004" fill="#000000" d="M 908.5,1249.5 C 908.833,1249.5 909.167,1249.5 909.5,1249.5C 909.315,1250.17 908.981,1250.17 908.5,1249.5 Z"/></g>
<g><path style="opacity:0.008" fill="#000000" d="M 907.5,1250.5 C 907.833,1250.5 908.167,1250.5 908.5,1250.5C 908.315,1251.17 907.981,1251.17 907.5,1250.5 Z"/></g>
<g><path style="opacity:0.008" fill="#000000" d="M 60.5,1251.5 C 60.5,1251.83 60.5,1252.17 60.5,1252.5C 59.8299,1252.02 59.8299,1251.69 60.5,1251.5 Z"/></g>
<g><path style="opacity:0.008" fill="#000000" d="M 60.5,1252.5 C 61.1667,1252.5 61.5,1252.83 61.5,1253.5C 61.1667,1253.17 60.8333,1252.83 60.5,1252.5 Z"/></g>
<g><path style="opacity:0.008" fill="#000000" d="M 905.5,1252.5 C 906.833,1253.17 906.833,1253.17 905.5,1252.5 Z"/></g>
<g><path style="opacity:0.004" fill="#000000" d="M 61.5,1253.5 C 62.1667,1253.5 62.5,1253.83 62.5,1254.5C 62.1667,1254.17 61.8333,1253.83 61.5,1253.5 Z"/></g>
<g><path style="opacity:0.004" fill="#000000" d="M 905.5,1253.5 C 904.833,1254.17 904.833,1254.17 905.5,1253.5 Z"/></g>
<g><path style="opacity:0.004" fill="#000000" d="M 62.5,1254.5 C 63.8333,1255.17 63.8333,1255.17 62.5,1254.5 Z"/></g>
<g><path style="opacity:0.004" fill="#000000" d="M 904.5,1254.5 C 903.833,1255.17 903.833,1255.17 904.5,1254.5 Z"/></g>
<g><path style="opacity:0.004" fill="#000000" d="M 66.5,1256.5 C 66.5,1256.83 66.5,1257.17 66.5,1257.5C 65.8299,1257.02 65.8299,1256.69 66.5,1256.5 Z"/></g>
<g><path style="opacity:0.004" fill="#000000" d="M 900.5,1256.5 C 901.833,1257.17 901.833,1257.17 900.5,1256.5 Z"/></g>
<g><path style="opacity:0.004" fill="#000000" d="M 66.5,1257.5 C 67.1667,1257.5 67.5,1257.83 67.5,1258.5C 67.1667,1258.17 66.8333,1257.83 66.5,1257.5 Z"/></g>
<g><path style="opacity:0.008" fill="#000000" d="M 899.5,1257.5 C 899.833,1257.5 900.167,1257.5 900.5,1257.5C 900.315,1258.17 899.981,1258.17 899.5,1257.5 Z"/></g>
<g><path style="opacity:0.004" fill="#000000" d="M 67.5,1258.5 C 68.8333,1259.17 68.8333,1259.17 67.5,1258.5 Z"/></g>
<g><path style="opacity:0.004" fill="#000000" d="M 899.5,1258.5 C 898.833,1259.17 898.833,1259.17 899.5,1258.5 Z"/></g>
<g><path style="opacity:0.004" fill="#000000" d="M 70.5,1259.5 C 70.5,1259.83 70.5,1260.17 70.5,1260.5C 69.8299,1260.02 69.8299,1259.69 70.5,1259.5 Z"/></g>
<g><path style="opacity:0.004" fill="#000000" d="M 70.5,1260.5 C 71.8333,1261.17 71.8333,1261.17 70.5,1260.5 Z"/></g>
<g><path style="opacity:0.008" fill="#000000" d="M 895.5,1260.5 C 896.833,1261.17 896.833,1261.17 895.5,1260.5 Z"/></g>
<g><path style="opacity:0.004" fill="#000000" d="M 893.5,1262.5 C 893.5,1262.17 893.5,1261.83 893.5,1261.5C 894.167,1261.5 894.833,1261.5 895.5,1261.5C 895.158,1262.34 894.492,1262.67 893.5,1262.5 Z"/></g>
<g><path style="opacity:0.004" fill="#000000" d="M 74.5,1263.5 C 73.8333,1262.17 73.8333,1262.17 74.5,1263.5 Z"/></g>
<g><path style="opacity:0.008" fill="#000000" d="M 892.5,1262.5 C 892.833,1262.5 893.167,1262.5 893.5,1262.5C 893.315,1263.17 892.981,1263.17 892.5,1262.5 Z"/></g>
<g><path style="opacity:0.008" fill="#535353" d="M 74.5,1263.5 C 75.1667,1263.5 75.8333,1263.5 76.5,1263.5C 76.5,1263.83 76.5,1264.17 76.5,1264.5C 75.5084,1264.67 74.8417,1264.34 74.5,1263.5 Z"/></g>
<g><path style="opacity:0.004" fill="#000000" d="M 892.5,1263.5 C 891.833,1264.17 891.833,1264.17 892.5,1263.5 Z"/></g>
<g><path style="opacity:0.008" fill="#000000" d="M 76.5,1264.5 C 77.8333,1265.17 77.8333,1265.17 76.5,1264.5 Z"/></g>
<g><path style="opacity:0.008" fill="#000000" d="M 889.5,1264.5 C 890.833,1265.17 890.833,1265.17 889.5,1264.5 Z"/></g>
<g><path style="opacity:0.008" fill="#7f807f" d="M 79.5,1265.5 C 79.5,1265.83 79.5,1266.17 79.5,1266.5C 78.8299,1266.02 78.8299,1265.69 79.5,1265.5 Z"/></g>
<g><path style="opacity:0.004" fill="#4e4e4e" d="M 887.5,1266.5 C 887.5,1266.17 887.5,1265.83 887.5,1265.5C 888.167,1265.5 888.833,1265.5 889.5,1265.5C 889.158,1266.34 888.492,1266.67 887.5,1266.5 Z"/></g>
<g><path style="opacity:0.004" fill="#000000" d="M 79.5,1266.5 C 80.8333,1267.17 80.8333,1267.17 79.5,1266.5 Z"/></g>
<g><path style="opacity:0.008" fill="#000000" d="M 887.5,1266.5 C 886.833,1267.17 886.833,1267.17 887.5,1266.5 Z"/></g>
<g><path style="opacity:0.004" fill="#000000" d="M 82.5,1268.5 C 81.8333,1267.17 81.8333,1267.17 82.5,1268.5 Z"/></g>
<g><path style="opacity:0.008" fill="#000000" d="M 884.5,1267.5 C 885.833,1268.17 885.833,1268.17 884.5,1267.5 Z"/></g>
<g><path style="opacity:0.006" fill="#000000" d="M 82.5,1268.5 C 83.2389,1268.37 83.9056,1268.54 84.5,1269C 83.5632,1269.69 82.8966,1269.53 82.5,1268.5 Z"/></g>
<g><path style="opacity:0.004" fill="#2b2b2b" d="M 884.5,1268.5 C 884.103,1269.53 883.437,1269.69 882.5,1269C 883.094,1268.54 883.761,1268.37 884.5,1268.5 Z"/></g>
<g><path style="opacity:0.004" fill="#000000" d="M 86.5,1270.5 C 85.8333,1269.17 85.8333,1269.17 86.5,1270.5 Z"/></g>
<g><path style="opacity:0.008" fill="#000000" d="M 880.5,1269.5 C 881.833,1270.17 881.833,1270.17 880.5,1269.5 Z"/></g>
<g><path style="opacity:0.006" fill="#000000" d="M 86.5,1270.5 C 87.2389,1270.37 87.9056,1270.54 88.5,1271C 87.5632,1271.69 86.8966,1271.53 86.5,1270.5 Z"/></g>
<g><path style="opacity:0.004" fill="#2b2b2b" d="M 880.5,1270.5 C 880.103,1271.53 879.437,1271.69 878.5,1271C 879.094,1270.54 879.761,1270.37 880.5,1270.5 Z"/></g>
<g><path style="opacity:0.004" fill="#000000" d="M 89.5,1271.5 C 90.8333,1272.17 90.8333,1272.17 89.5,1271.5 Z"/></g>
<g><path style="opacity:0.008" fill="#000000" d="M 876.5,1271.5 C 877.833,1272.17 877.833,1272.17 876.5,1271.5 Z"/></g>
<g><path style="opacity:0.004" fill="#a2a2a2" d="M 91.5,1273.5 C 91.8966,1272.47 92.5632,1272.31 93.5,1273C 92.9056,1273.46 92.2389,1273.63 91.5,1273.5 Z"/></g>
<g><path style="opacity:0.012" fill="#4e4e4e" d="M 873.5,1273.5 C 873.897,1272.47 874.563,1272.31 875.5,1273C 874.906,1273.46 874.239,1273.63 873.5,1273.5 Z"/></g>
<g><path style="opacity:0.008" fill="#000000" d="M 94.5,1273.5 C 95.8333,1274.17 95.8333,1274.17 94.5,1273.5 Z"/></g>
<g><path style="opacity:0.006" fill="#000000" d="M 871.5,1274.5 C 871.842,1273.66 872.508,1273.33 873.5,1273.5C 873.158,1274.34 872.492,1274.67 871.5,1274.5 Z"/></g>
<g><path style="opacity:0.008" fill="#535353" d="M 96.5,1275.5 C 96.8966,1274.47 97.5632,1274.31 98.5,1275C 97.9056,1275.46 97.2389,1275.63 96.5,1275.5 Z"/></g>
<g><path style="opacity:0.006" fill="#3b3b3b" d="M 871.5,1274.5 C 870.749,1275.57 869.749,1275.74 868.5,1275C 869.448,1274.52 870.448,1274.35 871.5,1274.5 Z"/></g>
<g><path style="opacity:0.006" fill="#000000" d="M 101.5,1276.5 C 100.761,1276.63 100.094,1276.46 99.5,1276C 100.437,1275.31 101.103,1275.47 101.5,1276.5 Z"/></g>
<g><path style="opacity:0.01" fill="#000000" d="M 865.5,1276.5 C 865.897,1275.47 866.563,1275.31 867.5,1276C 866.906,1276.46 866.239,1276.63 865.5,1276.5 Z"/></g>
<g><path style="opacity:0.006" fill="#222222" d="M 101.5,1276.5 C 102.552,1276.35 103.552,1276.52 104.5,1277C 103.251,1277.74 102.251,1277.57 101.5,1276.5 Z"/></g>
<g><path style="opacity:0.006" fill="#2a2a2a" d="M 865.5,1276.5 C 864.749,1277.57 863.749,1277.74 862.5,1277C 863.448,1276.52 864.448,1276.35 865.5,1276.5 Z"/></g>
<g><path style="opacity:0.01" fill="#000000" d="M 108.5,1278.5 C 107.761,1278.63 107.094,1278.46 106.5,1278C 107.437,1277.31 108.103,1277.47 108.5,1278.5 Z"/></g>
<g><path style="opacity:0.008" fill="#000000" d="M 858.5,1278.5 C 859.251,1277.43 860.251,1277.26 861.5,1278C 860.552,1278.48 859.552,1278.65 858.5,1278.5 Z"/></g>
<g><path style="opacity:0.005" fill="#1c1c1c" d="M 108.5,1279.5 C 108.5,1279.17 108.5,1278.83 108.5,1278.5C 110.099,1278.23 111.432,1278.57 112.5,1279.5C 111.167,1279.5 109.833,1279.5 108.5,1279.5 Z"/></g>
<g><path style="opacity:0.008" fill="#000000" d="M 854.5,1279.5 C 855.568,1278.57 856.901,1278.23 858.5,1278.5C 858.5,1278.83 858.5,1279.17 858.5,1279.5C 857.167,1279.5 855.833,1279.5 854.5,1279.5 Z"/></g>
</svg>
