<?xml version="1.0" encoding="UTF-8"?>
<svg viewBox="0 0 140 190" xmlns="http://www.w3.org/2000/svg">
 <path d="m21 5h103c8.864 0 16 7.136 16 16v153c0 8.864-7.136 16-16 16h-103c-8.864 0-16-7.136-16-16v-153c0-8.864 7.136-16 16-16z" fill-opacity=".49804"/>
 <path d="m17 1h103c8.864 0 16 7.136 16 16v153c0 8.864-7.136 16-16 16h-103c-8.864 0-16-7.136-16-16v-153c0-8.864 7.136-16 16-16z" fill="#e7e7e7"/>
 <path d="m19 3h103c8.864 0 16 7.136 16 16v153c0 8.864-7.136 16-16 16h-103c-8.864 0-16-7.136-16-16v-153c0-8.864 7.136-16 16-16z" fill="#c7891f"/>
 <path d="m18 2h103c8.864 0 16 7.136 16 16v153c0 8.864-7.136 16-16 16h-103c-8.864 0-16-7.136-16-16v-153c0-8.864 7.136-16 16-16z" fill="#fff"/>
 <path d="m20.844 28.575c-1.1962 2e-5 -2.1154 0.39519-2.7578 1.1855s-0.96358 1.9223-0.96357 3.3958 0.32118 2.6055 0.96357 3.3958c0.64237 0.77696 1.5616 1.1654 2.7578 1.1654 1.1851 0 2.0933-0.38847 2.7246-1.1654 0.63129-0.79034 0.94694-1.9223 0.94695-3.3958-2e-5 -1.4869-0.31567-2.6188-0.94695-3.3958-0.63132-0.79033-1.5395-1.1855-2.7246-1.1855m-4.6683-2.5519c-1.5063-0.54921-2.6415-1.3931-3.4057-2.5318s-1.1463-2.5586-1.1463-4.2598c0-2.5318 0.78082-4.4607 2.3425-5.787s3.8543-1.9892 6.8779-1.9893c3.0014 3e-5 5.283 0.66312 6.8447 1.9893 1.5616 1.3128 2.3424 3.2418 2.3425 5.787-2e-5 1.7013-0.38766 3.1212-1.1629 4.2598-0.76423 1.1386-1.8995 1.9826-3.4057 2.5318 1.6835 0.56264 2.9516 1.4802 3.8044 2.7528 0.86387 1.2592 1.2958 2.8533 1.2958 4.7823-2e-5 2.9738-0.81961 5.2243-2.4588 6.7514-1.6281 1.5137-4.0481 2.2706-7.26 2.2706-3.223 0-5.6596-0.75686-7.3098-2.2706-1.6392-1.5271-2.4588-3.7776-2.4588-6.7514 0-1.929 0.4264-3.5231 1.2792-4.7823 0.86389-1.2726 2.1376-2.1902 3.821-2.7528m1.4952-6.008c-1e-5 1.1922 0.27134 2.1098 0.81405 2.7528 0.55377 0.64301 1.3401 0.96451 2.3591 0.96449 0.99678 2e-5 1.7665-0.32148 2.3092-0.96449s0.81403-1.5606 0.81405-2.7528-0.27136-2.1031-0.81405-2.7327c-0.54271-0.64297-1.3125-0.96446-2.3092-0.96449-1.019 3e-5 -1.8053 0.32152-2.3591 0.96449-0.54271 0.64302-0.81406 1.5539-0.81405 2.7327" fill="#f00"/>
 <g fill="#f00">
  <path transform="matrix(.31657 0 0 .41973 -33.049 -16.808)" d="m147.21 156.42c-2.5357 0.01275-5.3218 0.48209-8.4062 1.5312-33.623 19.537 11.705 51.041 30.844 78.094l0.55251 0.13831c21.033-29.569 61.072-62.108 30.479-78.232-24.237-8.244-30.711 19.198-30.938 20.188-0.19739-0.86352-5.1424-21.806-22.531-21.719z" fill-rule="evenodd"/>
 </g>
 <path d="m118.02 160.42c1.1962-1e-5 2.1154-0.39519 2.7578-1.1855s0.96358-1.9223 0.96357-3.3958-0.32119-2.6055-0.96357-3.3958c-0.64237-0.77697-1.5616-1.1654-2.7578-1.1654-1.1851 0-2.0933 0.38847-2.7246 1.1654-0.63129 0.79033-0.94694 1.9223-0.94696 3.3958 2e-5 1.4869 0.31567 2.6188 0.94696 3.3958 0.63132 0.79034 1.5395 1.1855 2.7246 1.1855m4.6683 2.5519c1.5063 0.54921 2.6415 1.3931 3.4057 2.5318s1.1463 2.5586 1.1463 4.2598c0 2.5318-0.78082 4.4608-2.3425 5.787s-3.8543 1.9892-6.8779 1.9893c-3.0014-4e-5 -5.283-0.66312-6.8447-1.9893-1.5616-1.3128-2.3424-3.2418-2.3425-5.787 1e-5 -1.7013 0.38766-3.1212 1.1629-4.2598 0.76424-1.1386 1.8995-1.9826 3.4057-2.5318-1.6835-0.56263-2.9516-1.4802-3.8044-2.7528-0.86386-1.2592-1.2958-2.8533-1.2958-4.7823 1e-5 -2.9739 0.8196-5.2243 2.4588-6.7514 1.6281-1.5137 4.0481-2.2706 7.26-2.2706 3.223 0 5.6596 0.75685 7.3098 2.2706 1.6392 1.5271 2.4588 3.7776 2.4588 6.7514 0 1.929-0.42641 3.523-1.2792 4.7823-0.86388 1.2726-2.1376 2.1902-3.821 2.7528m-1.4952 6.008c0-1.1922-0.27135-2.1098-0.81406-2.7528-0.55376-0.64301-1.3401-0.96451-2.3591-0.9645-0.99679-1e-5 -1.7665 0.32149-2.3092 0.9645s-0.81404 1.5606-0.81405 2.7528 0.27137 2.1031 0.81405 2.7327c0.54271 0.64297 1.3125 0.96447 2.3092 0.9645 1.019-3e-5 1.8053-0.32153 2.3591-0.9645 0.54271-0.64302 0.81406-1.5539 0.81406-2.7327" fill="#f00"/>
 <g fill="#f00">
  <path transform="matrix(-.31657 0 0 -.41973 171.91 205.65)" d="m147.21 156.42c-2.5357 0.01275-5.3218 0.48209-8.4062 1.5312-33.623 19.537 11.705 51.041 30.844 78.094l0.55251 0.13831c21.033-29.569 61.072-62.108 30.479-78.232-24.237-8.244-30.711 19.198-30.938 20.188-0.19739-0.86352-5.1424-21.806-22.531-21.719z" fill-rule="evenodd"/>
 </g>
 <g fill="#f00">
  <path transform="matrix(.18388 0 0 .24795 17.055 1.4393)" d="m147.21 156.42c-2.5357 0.01275-5.3218 0.48209-8.4062 1.5312-33.623 19.537 11.705 51.041 30.844 78.094l0.55251 0.13831c21.033-29.569 61.072-62.108 30.479-78.232-24.237-8.244-30.711 19.198-30.938 20.188-0.19739-0.86352-5.1424-21.806-22.531-21.719z" fill-rule="evenodd"/>
 </g>
 <g fill="#f00">
  <path transform="matrix(.18388 0 0 .24795 56.055 1.2193)" d="m147.21 156.42c-2.5357 0.01275-5.3218 0.48209-8.4062 1.5312-33.623 19.537 11.705 51.041 30.844 78.094l0.55251 0.13831c21.033-29.569 61.072-62.108 30.479-78.232-24.237-8.244-30.711 19.198-30.938 20.188-0.19739-0.86352-5.1424-21.806-22.531-21.719z" fill-rule="evenodd"/>
 </g>
 <g fill="#f00">
  <path transform="matrix(.18388 0 0 .24795 17.695 32.439)" d="m147.21 156.42c-2.5357 0.01275-5.3218 0.48209-8.4062 1.5312-33.623 19.537 11.705 51.041 30.844 78.094l0.55251 0.13831c21.033-29.569 61.072-62.108 30.479-78.232-24.237-8.244-30.711 19.198-30.938 20.188-0.19739-0.86352-5.1424-21.806-22.531-21.719z" fill-rule="evenodd"/>
 </g>
 <g fill="#f00">
  <path transform="matrix(.18388 0 0 .24795 57.055 31.439)" d="m147.21 156.42c-2.5357 0.01275-5.3218 0.48209-8.4062 1.5312-33.623 19.537 11.705 51.041 30.844 78.094l0.55251 0.13831c21.033-29.569 61.072-62.108 30.479-78.232-24.237-8.244-30.711 19.198-30.938 20.188-0.19739-0.86352-5.1424-21.806-22.531-21.719z" fill-rule="evenodd"/>
 </g>
 <g fill="#f00">
  <path transform="matrix(-.18388 0 0 -.24795 80.305 158.56)" d="m147.21 156.42c-2.5357 0.01275-5.3218 0.48209-8.4062 1.5312-33.623 19.537 11.705 51.041 30.844 78.094l0.55251 0.13831c21.033-29.569 61.072-62.108 30.479-78.232-24.237-8.244-30.711 19.198-30.938 20.188-0.19739-0.86352-5.1424-21.806-22.531-21.719z" fill-rule="evenodd"/>
 </g>
 <g fill="#f00">
  <path transform="matrix(-.18388 0 0 -.24795 80.945 185.56)" d="m147.21 156.42c-2.5357 0.01275-5.3218 0.48209-8.4062 1.5312-33.623 19.537 11.705 51.041 30.844 78.094l0.55251 0.13831c21.033-29.569 61.072-62.108 30.479-78.232-24.237-8.244-30.711 19.198-30.938 20.188-0.19739-0.86352-5.1424-21.806-22.531-21.719z" fill-rule="evenodd"/>
 </g>
 <g fill="#f00">
  <path transform="matrix(-.18388 0 0 -.24795 118.3 185.56)" d="m147.21 156.42c-2.5357 0.01275-5.3218 0.48209-8.4062 1.5312-33.623 19.537 11.705 51.041 30.844 78.094l0.55251 0.13831c21.033-29.569 61.072-62.108 30.479-78.232-24.237-8.244-30.711 19.198-30.938 20.188-0.19739-0.86352-5.1424-21.806-22.531-21.719z" fill-rule="evenodd"/>
 </g>
 <g fill="#f00">
  <path transform="matrix(-.18388 0 0 -.24795 119.94 157.78)" d="m147.21 156.42c-2.5357 0.01275-5.3218 0.48209-8.4062 1.5312-33.623 19.537 11.705 51.041 30.844 78.094l0.55251 0.13831c21.033-29.569 61.072-62.108 30.479-78.232-24.237-8.244-30.711 19.198-30.938 20.188-0.19739-0.86352-5.1424-21.806-22.531-21.719z" fill-rule="evenodd"/>
 </g>
</svg>
