<?xml version="1.0" encoding="UTF-8"?>
<svg viewBox="0 0 140 190" xmlns="http://www.w3.org/2000/svg">
 <path d="m21 5h103c8.864 0 16 7.136 16 16v153c0 8.864-7.136 16-16 16h-103c-8.864 0-16-7.136-16-16v-153c0-8.864 7.136-16 16-16z" fill-opacity=".49804"/>
 <path d="m17 1h103c8.864 0 16 7.136 16 16v153c0 8.864-7.136 16-16 16h-103c-8.864 0-16-7.136-16-16v-153c0-8.864 7.136-16 16-16z" fill="#e7e7e7"/>
 <path d="m19 3h103c8.864 0 16 7.136 16 16v153c0 8.864-7.136 16-16 16h-103c-8.864 0-16-7.136-16-16v-153c0-8.864 7.136-16 16-16z" fill="#c7891f"/>
 <path d="m18 2h103c8.864 0 16 7.136 16 16v153c0 8.864-7.136 16-16 16h-103c-8.864 0-16-7.136-16-16v-153c0-8.864 7.136-16 16-16z" fill="#fff"/>
 <g transform="matrix(.59314 0 0 .23894 -105.41 .48105)">
  <path d="m260.18 149.6c-4.8362 19.241-19.676 52.006-10.275 62.122 5.7065 4.6568 8.4221-4.8759 9.5723-11.187h0.23038l-3.7898 31.836 8.7775-0.09375s-3.7812-30.602-3.7898-31.773h0.09215c0.92901 5.157 4.4542 15.833 8.3321 11.767 11.339-11.397-5.358-43.83-9.1499-62.671z" fill-rule="evenodd"/>
 </g>
 <g transform="matrix(.59314 0 0 .23894 -64.27 .39884)">
  <path d="m260.18 149.6c-4.8362 19.241-19.676 52.006-10.275 62.122 5.7065 4.6568 8.4221-4.8759 9.5723-11.187h0.23038l-3.7898 31.836 8.7775-0.09375s-3.7812-30.602-3.7898-31.773h0.09215c0.92901 5.157 4.4542 15.833 8.3321 11.767 11.339-11.397-5.358-43.83-9.1499-62.671z" fill-rule="evenodd"/>
 </g>
 <g transform="matrix(.59314 0 0 .23894 -105.93 35.658)">
  <path d="m260.18 149.6c-4.8362 19.241-19.676 52.006-10.275 62.122 5.7065 4.6568 8.4221-4.8759 9.5723-11.187h0.23038l-3.7898 31.836 8.7775-0.09375s-3.7812-30.602-3.7898-31.773h0.09215c0.92901 5.157 4.4542 15.833 8.3321 11.767 11.339-11.397-5.358-43.83-9.1499-62.671z" fill-rule="evenodd"/>
 </g>
 <g transform="matrix(.59314 0 0 .23894 -65.973 34.483)">
  <path d="m260.18 149.6c-4.8362 19.241-19.676 52.006-10.275 62.122 5.7065 4.6568 8.4221-4.8759 9.5723-11.187h0.23038c-0.00865 1.1867-0.2133 24.4-0.81785 25.773-1.3264 3.0135-3.0065 2.7811-3.0065 2.7811l0.03456 3.2811 8.7775-0.09375 0.03456-3.2499s-1.6686 0.2011-2.995-2.8124c-0.60464-1.3738-0.82077-24.54-0.82937-25.711h0.09215c0.92901 5.157 4.4542 15.833 8.3321 11.767 11.339-11.397-5.358-43.83-9.1499-62.671z" fill-rule="evenodd"/>
 </g>
 <g transform="matrix(-.59314 0 0 -.23894 202.53 155.13)">
  <path d="m260.18 149.6c-4.8362 19.241-19.676 52.006-10.275 62.122 5.7065 4.6568 8.4221-4.8759 9.5723-11.187h0.23038l-3.7898 31.836 8.7775-0.09375s-3.7812-30.602-3.7898-31.773h0.09215c0.92901 5.157 4.4542 15.833 8.3321 11.767 11.339-11.397-5.358-43.83-9.1499-62.671z" fill-rule="evenodd"/>
 </g>
 <g transform="matrix(-.59314 0 0 -.23894 244.2 155.21)">
  <path d="m260.18 149.6c-4.8362 19.241-19.676 52.006-10.275 62.122 5.7065 4.6568 8.4221-4.8759 9.5723-11.187h0.23038l-3.7898 31.836 8.7775-0.09375s-3.7812-30.602-3.7898-31.773h0.09215c0.92901 5.157 4.4542 15.833 8.3321 11.767 11.339-11.397-5.358-43.83-9.1499-62.671z" fill-rule="evenodd"/>
 </g>
 <g transform="matrix(-.59314 0 0 -.23894 244.84 185.77)">
  <path d="m260.18 149.6c-4.8362 19.241-19.676 52.006-10.275 62.122 5.7065 4.6568 8.4221-4.8759 9.5723-11.187h0.23038l-3.7898 31.836 8.7775-0.09375s-3.7812-30.602-3.7898-31.773h0.09215c0.92901 5.157 4.4542 15.833 8.3321 11.767 11.339-11.397-5.358-43.83-9.1499-62.671z" fill-rule="evenodd"/>
 </g>
 <g transform="matrix(-.59314 0 0 -.23894 203.71 185.77)">
  <path d="m260.18 149.6c-4.8362 19.241-19.676 52.006-10.275 62.122 5.7065 4.6568 8.4221-4.8759 9.5723-11.187h0.23038l-3.7898 31.836 8.7775-0.09375s-3.7812-30.602-3.7898-31.773h0.09215c0.92901 5.157 4.4542 15.833 8.3321 11.767 11.339-11.397-5.358-43.83-9.1499-62.671z" fill-rule="evenodd"/>
 </g>
 <path d="m20.645 48.665c-4.9243 7.8247-20.035 21.149-10.462 25.263 5.8105 1.8937 8.5757-1.9828 9.7468-4.5494h0.23458l-3.8588 12.946 8.9375-0.03813s-3.8501-12.445-3.8589-12.921h0.09384c0.94594 2.0972 4.5354 6.4387 8.484 4.7853 11.546-4.6349-5.4557-17.824-9.3168-25.486z" fill-rule="evenodd"/>
 <path d="m20.604 28.816c-1.1962 1e-5 -2.1154 0.39519-2.7578 1.1855s-0.96357 1.9223-0.96357 3.3958 0.32118 2.6055 0.96357 3.3958c0.64237 0.77695 1.5616 1.1654 2.7578 1.1654 1.1851 1e-5 2.0933-0.38847 2.7246-1.1654 0.63129-0.79034 0.94694-1.9223 0.94696-3.3958-2e-5 -1.4869-0.31568-2.6189-0.94696-3.3958-0.63131-0.79033-1.5395-1.1855-2.7246-1.1855m-4.6683-2.5519c-1.5063-0.5492-2.6415-1.3931-3.4057-2.5318s-1.1463-2.5586-1.1463-4.2598c0-2.5318 0.78082-4.4607 2.3425-5.7869s3.8543-1.9892 6.8779-1.9893c3.0014 3e-5 5.283 0.66313 6.8447 1.9893 1.5616 1.3128 2.3424 3.2418 2.3425 5.7869-3e-5 1.7013-0.38766 3.1212-1.1629 4.2598-0.76423 1.1387-1.8995 1.9826-3.4057 2.5318 1.6834 0.56263 2.9516 1.4802 3.8044 2.7528 0.86387 1.2592 1.2958 2.8533 1.2958 4.7823-2e-5 2.9738-0.81961 5.2243-2.4588 6.7514-1.6281 1.5137-4.0481 2.2706-7.26 2.2706-3.223 0-5.6596-0.75686-7.3098-2.2706-1.6392-1.5271-2.4588-3.7776-2.4588-6.7514 0-1.929 0.4264-3.523 1.2792-4.7823 0.86389-1.2726 2.1376-2.1902 3.821-2.7528m1.4952-6.008c-1e-5 1.1922 0.27134 2.1098 0.81404 2.7528 0.55376 0.64301 1.3401 0.96451 2.3591 0.9645 0.99678 1e-5 1.7665-0.32148 2.3092-0.9645s0.81402-1.5606 0.81404-2.7528-0.27137-2.1031-0.81404-2.7327c-0.54272-0.64297-1.3125-0.96446-2.3092-0.96448-1.019 2e-5 -1.8053 0.32152-2.3591 0.96448-0.54271 0.64302-0.81405 1.5539-0.81404 2.7327"/>
 <path d="m117.99 140c4.9243-7.8247 20.035-21.149 10.462-25.263-5.8105-1.8938-8.5757 1.9828-9.7468 4.5494h-0.23458l3.8588-12.946-8.9375 0.03813s3.8501 12.445 3.8589 12.921h-0.09383c-0.94595-2.0972-4.5354-6.4387-8.484-4.7853-11.546 4.6349 5.4557 17.824 9.3168 25.486z" fill-rule="evenodd"/>
 <path d="m118.03 160.35c1.1962-1e-5 2.1154-0.39519 2.7578-1.1855s0.96358-1.9223 0.96357-3.3958-0.32118-2.6055-0.96357-3.3958c-0.64237-0.77696-1.5616-1.1654-2.7578-1.1654-1.1851 0-2.0933 0.38847-2.7246 1.1654-0.63128 0.79034-0.94694 1.9223-0.94695 3.3958 1e-5 1.4869 0.31567 2.6188 0.94695 3.3958 0.63132 0.79033 1.5395 1.1855 2.7246 1.1855m4.6683 2.5519c1.5063 0.54921 2.6415 1.3931 3.4057 2.5318s1.1463 2.5586 1.1463 4.2598c0 2.5318-0.78081 4.4607-2.3425 5.7869s-3.8543 1.9892-6.8779 1.9893c-3.0014-3e-5 -5.283-0.66311-6.8447-1.9893-1.5616-1.3128-2.3424-3.2418-2.3425-5.7869 1e-5 -1.7013 0.38765-3.1212 1.1629-4.2598 0.76423-1.1386 1.8995-1.9826 3.4057-2.5318-1.6835-0.56263-2.9516-1.4802-3.8044-2.7528-0.86387-1.2592-1.2958-2.8533-1.2958-4.7823 2e-5 -2.9738 0.8196-5.2243 2.4588-6.7514 1.6281-1.5137 4.0481-2.2706 7.26-2.2706 3.223 0 5.6596 0.75686 7.3098 2.2706 1.6392 1.5271 2.4588 3.7776 2.4588 6.7514 1e-5 1.929-0.4264 3.5231-1.2792 4.7823-0.86389 1.2726-2.1376 2.1902-3.821 2.7528m-1.4952 6.008c1e-5 -1.1922-0.27134-2.1098-0.81405-2.7528-0.55376-0.64301-1.3401-0.96451-2.3591-0.96449-0.99679-2e-5 -1.7665 0.32148-2.3092 0.96449s-0.81404 1.5606-0.81406 2.7528 0.27137 2.1031 0.81406 2.7327c0.5427 0.64297 1.3124 0.96447 2.3092 0.96449 1.019-2e-5 1.8053-0.32152 2.3591-0.96449 0.54271-0.64302 0.81406-1.5539 0.81405-2.7327"/>
</svg>
