<?xml version="1.0" encoding="UTF-8"?>
<svg viewBox="0 0 140 190" xmlns="http://www.w3.org/2000/svg">
 <path d="m21 5h103c8.864 0 16 7.136 16 16v153c0 8.864-7.136 16-16 16h-103c-8.864 0-16-7.136-16-16v-153c0-8.864 7.136-16 16-16z" fill-opacity=".49804"/>
 <path d="m17 1h103c8.864 0 16 7.136 16 16v153c0 8.864-7.136 16-16 16h-103c-8.864 0-16-7.136-16-16v-153c0-8.864 7.136-16 16-16z" fill="#e7e7e7"/>
 <path d="m19 3h103c8.864 0 16 7.136 16 16v153c0 8.864-7.136 16-16 16h-103c-8.864 0-16-7.136-16-16v-153c0-8.864 7.136-16 16-16z" fill="#c7891f"/>
 <path d="m18 2h103c8.864 0 16 7.136 16 16v153c0 8.864-7.136 16-16 16h-103c-8.864 0-16-7.136-16-16v-153c0-8.864 7.136-16 16-16z" fill="#fff"/>
 <path transform="matrix(.90928 0 0 1.0998 351.5 184.5)" d="m-363.91-141.56c-1.3155 1e-5 -2.3265 0.35934-3.0329 1.078s-1.0597 1.7479-1.0597 3.0878 0.35323 2.3691 1.0597 3.0878c0.70646 0.70647 1.7174 1.0597 3.0329 1.0597 1.3033 1e-5 2.3021-0.35323 2.9964-1.0597 0.69427-0.71864 1.0414-1.7479 1.0414-3.0878-2e-5 -1.352-0.34717-2.3813-1.0414-3.0878-0.6943-0.71863-1.6931-1.078-2.9964-1.078m-5.1341-2.3204c-1.6566-0.49938-2.905-1.2668-3.7455-2.3021s-1.2607-2.3264-1.2607-3.8734c0-2.3021 0.85872-4.0561 2.5762-5.262s4.2388-1.8088 7.5641-1.8088c3.3009 3e-5 5.8101 0.60297 7.5275 1.8088 1.7174 1.1937 2.5762 2.9477 2.5762 5.262-3e-5 1.547-0.42634 2.8381-1.279 3.8734-0.84048 1.0354-2.089 1.8027-3.7455 2.3021 1.8514 0.51159 3.2461 1.346 4.184 2.5031 0.95006 1.145 1.4251 2.5944 1.4251 4.3484-2e-5 2.7041-0.90138 4.7504-2.7041 6.139-1.7906 1.3764-4.452 2.0646-7.9843 2.0646-3.5445 0-6.2242-0.6882-8.0391-2.0646-1.8027-1.3886-2.7041-3.4349-2.7041-6.139 0-1.754 0.46894-3.2034 1.4068-4.3484 0.95008-1.1571 2.3508-1.9915 4.2023-2.5031m1.6444-5.463c-1e-5 1.0841 0.29841 1.9184 0.89526 2.5031 0.60901 0.58468 1.4738 0.87701 2.5944 0.877 1.0962 1e-5 1.9428-0.29232 2.5396-0.877s0.89524-1.419 0.89526-2.5031-0.29844-1.9123-0.89526-2.4848c-0.59686-0.58464-1.4434-0.87697-2.5396-0.87699-1.1206 2e-5 -1.9854 0.29235-2.5944 0.87699-0.59685 0.58469-0.89527 1.413-0.89526 2.4848"/>
 <path transform="matrix(-.90928 0 0 -1.0998 351.5 184.5)" d="m256.77 21.959c-1.3155 1e-5 -2.3265 0.35934-3.0329 1.078s-1.0597 1.7479-1.0597 3.0878 0.35323 2.3691 1.0597 3.0878c0.70646 0.70647 1.7174 1.0597 3.0329 1.0597 1.3033 0 2.3021-0.35323 2.9964-1.0597 0.69427-0.71864 1.0414-1.7479 1.0414-3.0878-1e-5 -1.352-0.34716-2.3813-1.0414-3.0878-0.6943-0.71864-1.6931-1.078-2.9964-1.078m-5.1341-2.3204c-1.6566-0.49939-2.905-1.2668-3.7455-2.3021s-1.2607-2.3264-1.2607-3.8734c0-2.3021 0.85872-4.0561 2.5762-5.262s4.2388-1.8088 7.5641-1.8088c3.3009 3e-5 5.8101 0.60296 7.5275 1.8088 1.7174 1.1937 2.5762 2.9477 2.5762 5.262-2e-5 1.5469-0.42633 2.8381-1.279 3.8734-0.84047 1.0354-2.089 1.8027-3.7455 2.3021 1.8514 0.51159 3.2461 1.346 4.184 2.5031 0.95006 1.145 1.4251 2.5944 1.4251 4.3484-3e-5 2.7041-0.90138 4.7504-2.7041 6.139-1.7906 1.3764-4.452 2.0646-7.9843 2.0646-3.5445 0-6.2242-0.6882-8.0391-2.0646-1.8027-1.3886-2.7041-3.4349-2.7041-6.139-1e-5 -1.754 0.46894-3.2035 1.4068-4.3484 0.95008-1.1571 2.3508-1.9915 4.2023-2.5031m1.6444-5.463c-1e-5 1.0841 0.29841 1.9184 0.89526 2.5031 0.60901 0.58468 1.4738 0.87701 2.5944 0.87699 1.0962 2e-5 1.9428-0.29231 2.5396-0.87699s0.89525-1.419 0.89527-2.5031-0.29844-1.9123-0.89527-2.4848c-0.59685-0.58464-1.4434-0.87697-2.5396-0.877-1.1206 2e-5 -1.9854 0.29236-2.5944 0.877-0.59685 0.58468-0.89527 1.413-0.89526 2.4848"/>
 <path d="m20.527 48.665c-2.6664 0-4.8299 3.2635-4.8299 7.2857 0 3.4266 4.3921 9.1917 4.2215 11.93-1.4102 0.78242-5.7673-6.4375-8.019-6.4375-2.6664 0-4.8299 3.2635-4.8299 7.2857s2.1635 7.2857 4.8299 7.2857c2.3125 0 6.2757-7.214 8.019-6.5627l-2.9289 12.874 7.0236-0.04171s-3.0769-12.481-3.0808-12.776h0.0553v0.01391c1.7073-0.63971 5.8059 6.6322 8.102 6.6322 2.6664 0 4.8299-3.2635 4.8299-7.2857s-2.1635-7.2857-4.8299-7.2857c-2.2426 0-6.3077 7.1005-8.0928 6.368 0.02508-2.8054 4.3598-8.5763 4.3598-11.999 0-4.0221-2.1635-7.2857-4.8299-7.2857z" fill-rule="evenodd"/>
 <path d="m117.42 139.96c2.6664 0 4.8299-3.2635 4.8299-7.2857 0-3.4266-4.3921-9.1917-4.2215-11.93 1.4102-0.78242 5.7673 6.4375 8.019 6.4375 2.6664 0 4.8299-3.2635 4.8299-7.2857s-2.1635-7.2857-4.8299-7.2857c-2.3125 0-6.2757 7.214-8.019 6.5627l2.9289-12.874-7.0236 0.04171s3.077 12.481 3.0808 12.776h-0.05531v-0.01391c-1.7073 0.63971-5.8059-6.6322-8.102-6.6322-2.6664 0-4.8299 3.2635-4.8299 7.2857s2.1635 7.2857 4.8299 7.2857c2.2426 0 6.3077-7.1005 8.0928-6.368-0.02508 2.8054-4.3598 8.5763-4.3598 11.999 0 4.0221 2.1635 7.2857 4.8299 7.2857z" fill-rule="evenodd"/>
 <path d="m49.199 36c-1.5532 0-2.8134 1.9178-2.8134 4.2814 0 2.0136 2.5584 5.4014 2.459 7.0103-0.82146 0.45978-3.3594-3.783-4.6711-3.783-1.5532 0-2.8134 1.9178-2.8134 4.2814s1.2602 4.2814 2.8134 4.2814c1.347 0 3.6556-4.2392 4.6711-3.8565l-1.7061 7.5651 4.0912-0.02451s-1.7923-7.3345-1.7945-7.5079h0.03221v0.00817c0.9945-0.37592 3.3819 3.8973 4.7194 3.8973 1.5532 0 2.8134-1.9178 2.8134-4.2814s-1.2602-4.2814-2.8134-4.2814c-1.3063 0-3.6742 4.1726-4.714 3.7421 0.01461-1.6486 2.5396-5.0398 2.5396-7.0512 0-2.3636-1.2602-4.2814-2.8134-4.2814z" fill-rule="evenodd"/>
 <path d="m90.199 36.22c-1.5532 0-2.8134 1.9178-2.8134 4.2814 0 2.0136 2.5584 5.4014 2.459 7.0103-0.82146 0.45978-3.3594-3.783-4.6711-3.783-1.5532 0-2.8134 1.9178-2.8134 4.2814s1.2602 4.2814 2.8134 4.2814c1.347 0 3.6555-4.2392 4.6711-3.8565l-1.7061 7.5651 4.0912-0.02451s-1.7923-7.3345-1.7945-7.5079h0.03222v0.00817c0.99449-0.37592 3.3819 3.8973 4.7194 3.8974 1.5532 0 2.8134-1.9178 2.8134-4.2814s-1.2602-4.2814-2.8134-4.2814c-1.3063 0-3.6742 4.1726-4.714 3.7421 0.0146-1.6486 2.5396-5.0398 2.5396-7.0512 0-2.3636-1.2602-4.2814-2.8134-4.2814z" fill-rule="evenodd"/>
 <path d="m48.839 71.22c-1.5532 0-2.8134 1.9178-2.8134 4.2814 0 2.0136 2.5584 5.4014 2.459 7.0103-0.82147 0.45978-3.3594-3.783-4.6711-3.783-1.5532 0-2.8134 1.9178-2.8134 4.2814s1.2602 4.2814 2.8134 4.2814c1.347 0 3.6555-4.2392 4.6711-3.8565l-1.7061 7.5651 4.0912-0.02451s-1.7923-7.3345-1.7945-7.5079h0.03222v0.00818c0.99449-0.37592 3.3819 3.8973 4.7194 3.8973 1.5532 0 2.8134-1.9178 2.8134-4.2814s-1.2602-4.2814-2.8134-4.2814c-1.3063 0-3.6742 4.1726-4.714 3.7421 0.01461-1.6486 2.5396-5.0398 2.5396-7.0512 0-2.3636-1.2602-4.2814-2.8134-4.2814z" fill-rule="evenodd"/>
 <path d="m88.199 70c-1.5532 0-2.8134 1.9178-2.8134 4.2814 0 2.0136 2.5584 5.4014 2.459 7.0103-0.82146 0.45979-3.3594-3.783-4.6711-3.783-1.5532 0-2.8134 1.9178-2.8134 4.2814s1.2602 4.2814 2.8134 4.2814c1.347 0 3.6555-4.2392 4.6711-3.8565l-1.7061 7.565 4.0912-0.02451s-1.7923-7.3344-1.7945-7.5079h0.03221v0.00817c0.9945-0.37592 3.3819 3.8973 4.7194 3.8973 1.5532 0 2.8134-1.9178 2.8134-4.2814s-1.2602-4.2814-2.8134-4.2814c-1.3063 0-3.6742 4.1726-4.714 3.7421 0.01461-1.6486 2.5396-5.0398 2.5396-7.0512 0-2.3636-1.2602-4.2814-2.8134-4.2814z" fill-rule="evenodd"/>
 <path d="m48.161 119c1.5532 0 2.8134-1.9178 2.8134-4.2814 0-2.0136-2.5584-5.4014-2.459-7.0103 0.82147-0.45979 3.3594 3.783 4.6711 3.783 1.5532 0 2.8134-1.9178 2.8134-4.2814s-1.2602-4.2814-2.8134-4.2814c-1.347 0-3.6556 4.2392-4.6711 3.8565l1.7061-7.5651-4.0912 0.02451s1.7923 7.3345 1.7945 7.5079h-0.03221v-0.00817c-0.9945 0.37592-3.3819-3.8973-4.7194-3.8973-1.5532 0-2.8134 1.9178-2.8134 4.2814s1.2602 4.2814 2.8134 4.2814c1.3063 0 3.6742-4.1726 4.714-3.7421-0.01461 1.6486-2.5396 5.0398-2.5396 7.0512 0 2.3636 1.2602 4.2814 2.8134 4.2814z" fill-rule="evenodd"/>
 <path d="m89.801 119.78c1.5532 0 2.8134-1.9178 2.8134-4.2814 0-2.0136-2.5584-5.4014-2.459-7.0103 0.82147-0.45978 3.3594 3.783 4.6711 3.783 1.5532 0 2.8134-1.9178 2.8134-4.2814s-1.2602-4.2814-2.8134-4.2814c-1.347 0-3.6556 4.2392-4.6711 3.8565l1.7061-7.5651-4.0912 0.02451s1.7923 7.3345 1.7945 7.5079h-0.03221v-0.00817c-0.9945 0.37592-3.3819-3.8973-4.7194-3.8973-1.5532 0-2.8134 1.9178-2.8134 4.2814s1.2602 4.2814 2.8134 4.2814c1.3063 0 3.6742-4.1726 4.714-3.7421-0.01461 1.6486-2.5396 5.0398-2.5396 7.0512 0 2.3636 1.2602 4.2814 2.8134 4.2814z" fill-rule="evenodd"/>
 <path d="m90.161 149.78c1.5532 0 2.8134-1.9178 2.8134-4.2814 0-2.0136-2.5584-5.4014-2.459-7.0103 0.82146-0.45978 3.3594 3.783 4.6711 3.783 1.5532 0 2.8134-1.9178 2.8134-4.2814s-1.2602-4.2814-2.8134-4.2814c-1.347 0-3.6556 4.2392-4.6711 3.8565l1.7061-7.5651-4.0912 0.02451s1.7923 7.3345 1.7945 7.5079h-0.03221v-0.00817c-0.9945 0.37592-3.3819-3.8973-4.7194-3.8973-1.5532 0-2.8134 1.9178-2.8134 4.2814s1.2602 4.2814 2.8134 4.2814c1.3063 0 3.6742-4.1726 4.714-3.7421-0.01461 1.6486-2.5396 5.0398-2.5396 7.0512 0 2.3636 1.2602 4.2814 2.8134 4.2814z" fill-rule="evenodd"/>
 <path d="m49.161 149.78c1.5532 0 2.8134-1.9178 2.8134-4.2814 0-2.0136-2.5584-5.4014-2.459-7.0103 0.82146-0.45978 3.3594 3.783 4.6711 3.783 1.5532 0 2.8134-1.9178 2.8134-4.2814s-1.2602-4.2814-2.8134-4.2814c-1.347 0-3.6555 4.2392-4.6711 3.8565l1.7061-7.5651-4.0912 0.02452s1.7923 7.3345 1.7945 7.5079h-0.03221v-0.00818c-0.9945 0.37592-3.3819-3.8973-4.7194-3.8973-1.5532 0-2.8134 1.9178-2.8134 4.2814s1.2602 4.2814 2.8134 4.2814c1.3063 0 3.6742-4.1726 4.714-3.7421-0.01461 1.6486-2.5396 5.0398-2.5396 7.0512 0 2.3636 1.2602 4.2814 2.8134 4.2814z" fill-rule="evenodd"/>
</svg>
