<?xml version="1.0" encoding="UTF-8"?>
<svg viewBox="0 0 140 190" xmlns="http://www.w3.org/2000/svg">
 <path d="m21 5h103c8.864 0 16 7.136 16 16v153c0 8.864-7.136 16-16 16h-103c-8.864 0-16-7.136-16-16v-153c0-8.864 7.136-16 16-16z" fill-opacity=".49804"/>
 <path d="m17 1h103c8.864 0 16 7.136 16 16v153c0 8.864-7.136 16-16 16h-103c-8.864 0-16-7.136-16-16v-153c0-8.864 7.136-16 16-16z" fill="#e7e7e7"/>
 <path d="m19 3h103c8.864 0 16 7.136 16 16v153c0 8.864-7.136 16-16 16h-103c-8.864 0-16-7.136-16-16v-153c0-8.864 7.136-16 16-16z" fill="#c7891f"/>
 <path d="m18 2h103c8.864 0 16 7.136 16 16v153c0 8.864-7.136 16-16 16h-103c-8.864 0-16-7.136-16-16v-153c0-8.864 7.136-16 16-16z" fill="#fff"/>
 <path transform="matrix(.90928 0 0 1.0998 351.5 184.5)" d="m-363.91-141.56c-1.3155 1e-5 -2.3265 0.35934-3.0329 1.078s-1.0597 1.7479-1.0597 3.0878 0.35323 2.3691 1.0597 3.0878c0.70646 0.70647 1.7174 1.0597 3.0329 1.0597 1.3033 1e-5 2.3021-0.35323 2.9964-1.0597 0.69427-0.71864 1.0414-1.7479 1.0414-3.0878-2e-5 -1.352-0.34717-2.3813-1.0414-3.0878-0.6943-0.71863-1.6931-1.078-2.9964-1.078m-5.1341-2.3204c-1.6566-0.49938-2.905-1.2668-3.7455-2.3021s-1.2607-2.3264-1.2607-3.8734c0-2.3021 0.85872-4.0561 2.5762-5.262s4.2388-1.8088 7.5641-1.8088c3.3009 3e-5 5.8101 0.60297 7.5275 1.8088 1.7174 1.1937 2.5762 2.9477 2.5762 5.262-3e-5 1.547-0.42634 2.8381-1.279 3.8734-0.84048 1.0354-2.089 1.8027-3.7455 2.3021 1.8514 0.51159 3.2461 1.346 4.184 2.5031 0.95006 1.145 1.4251 2.5944 1.4251 4.3484-2e-5 2.7041-0.90138 4.7504-2.7041 6.139-1.7906 1.3764-4.452 2.0646-7.9843 2.0646-3.5445 0-6.2242-0.6882-8.0391-2.0646-1.8027-1.3886-2.7041-3.4349-2.7041-6.139 0-1.754 0.46894-3.2034 1.4068-4.3484 0.95008-1.1571 2.3508-1.9915 4.2023-2.5031m1.6444-5.463c-1e-5 1.0841 0.29841 1.9184 0.89526 2.5031 0.60901 0.58468 1.4738 0.87701 2.5944 0.877 1.0962 1e-5 1.9428-0.29232 2.5396-0.877s0.89524-1.419 0.89526-2.5031-0.29844-1.9123-0.89526-2.4848c-0.59686-0.58464-1.4434-0.87697-2.5396-0.87699-1.1206 2e-5 -1.9854 0.29235-2.5944 0.87699-0.59685 0.58469-0.89527 1.413-0.89526 2.4848" fill="#f00"/>
 <path transform="matrix(-.90928 0 0 -1.0998 351.5 184.5)" d="m256.77 21.959c-1.3155 1e-5 -2.3265 0.35934-3.0329 1.078s-1.0597 1.7479-1.0597 3.0878 0.35323 2.3691 1.0597 3.0878c0.70646 0.70647 1.7174 1.0597 3.0329 1.0597 1.3033 0 2.3021-0.35323 2.9964-1.0597 0.69427-0.71864 1.0414-1.7479 1.0414-3.0878-1e-5 -1.352-0.34716-2.3813-1.0414-3.0878-0.6943-0.71864-1.6931-1.078-2.9964-1.078m-5.1341-2.3204c-1.6566-0.49939-2.905-1.2668-3.7455-2.3021s-1.2607-2.3264-1.2607-3.8734c0-2.3021 0.85872-4.0561 2.5762-5.262s4.2388-1.8088 7.5641-1.8088c3.3009 3e-5 5.8101 0.60296 7.5275 1.8088 1.7174 1.1937 2.5762 2.9477 2.5762 5.262-2e-5 1.5469-0.42633 2.8381-1.279 3.8734-0.84047 1.0354-2.089 1.8027-3.7455 2.3021 1.8514 0.51159 3.2461 1.346 4.184 2.5031 0.95006 1.145 1.4251 2.5944 1.4251 4.3484-3e-5 2.7041-0.90138 4.7504-2.7041 6.139-1.7906 1.3764-4.452 2.0646-7.9843 2.0646-3.5445 0-6.2242-0.6882-8.0391-2.0646-1.8027-1.3886-2.7041-3.4349-2.7041-6.139-1e-5 -1.754 0.46894-3.2035 1.4068-4.3484 0.95008-1.1571 2.3508-1.9915 4.2023-2.5031m1.6444-5.463c-1e-5 1.0841 0.29841 1.9184 0.89526 2.5031 0.60901 0.58468 1.4738 0.87701 2.5944 0.87699 1.0962 2e-5 1.9428-0.29231 2.5396-0.87699s0.89525-1.419 0.89527-2.5031-0.29844-1.9123-0.89527-2.4848c-0.59685-0.58464-1.4434-0.87697-2.5396-0.877-1.1206 2e-5 -1.9854 0.29236-2.5944 0.877-0.59685 0.58468-0.89527 1.413-0.89526 2.4848" fill="#f00"/>
 <path d="m20.41 48.665c-4.1258 8.2455-7.1342 12.498-13.34 17.04 5.8724 4.487 10.013 9.1245 13.46 16.62 3.0792-7.1212 6.8464-12.43 13.39-16.843-6.582-3.3489-10.393-8.6536-13.51-16.817z" fill="#f00" fill-rule="evenodd"/>
 <path d="m49.13 36.22c-2.4033 4.8454-4.1557 7.3444-7.7702 10.013 3.4206 2.6368 5.8324 5.3619 7.8405 9.7668 1.7936-4.1847 3.988-7.3044 7.7995-9.8977-3.834-1.968-6.0537-5.0852-7.8698-9.8823z" fill="#f00" fill-rule="evenodd"/>
 <path d="m90.13 36.22c-2.4033 4.8454-4.1557 7.3444-7.7702 10.013 3.4206 2.6368 5.8324 5.3619 7.8405 9.7668 1.7936-4.1847 3.988-7.3044 7.7995-9.8977-3.834-1.968-6.0536-5.0852-7.8698-9.8823z" fill="#f00" fill-rule="evenodd"/>
 <path d="m48.77 71.22c-2.4033 4.8454-4.1557 7.3444-7.7702 10.013 3.4206 2.6368 5.8324 5.3619 7.8405 9.7668 1.7936-4.1847 3.988-7.3044 7.7995-9.8977-3.834-1.968-6.0537-5.0852-7.8698-9.8823z" fill="#f00" fill-rule="evenodd"/>
 <path d="m88.13 70.22c-2.4033 4.8454-4.1557 7.3444-7.7702 10.013 3.4206 2.6368 5.8324 5.3619 7.8405 9.7668 1.7936-4.1847 3.988-7.3044 7.7995-9.8977-3.834-1.968-6.0537-5.0852-7.8698-9.8823z" fill="#f00" fill-rule="evenodd"/>
 <path d="m89.77 100c-2.4033 4.8454-4.1557 7.3444-7.7702 10.013 3.4206 2.6368 5.8324 5.3619 7.8405 9.7668 1.7936-4.1847 3.988-7.3044 7.7995-9.8977-3.834-1.968-6.0537-5.0852-7.8698-9.8823z" fill="#f00" fill-rule="evenodd"/>
 <path d="m48.13 100c-2.4033 4.8454-4.1557 7.3444-7.7702 10.013 3.4206 2.6368 5.8324 5.3619 7.8405 9.7668 1.7936-4.1847 3.988-7.3044 7.7995-9.8977-3.834-1.968-6.0536-5.0852-7.8698-9.8823z" fill="#f00" fill-rule="evenodd"/>
 <path d="m49.13 130c-2.4033 4.8454-4.1557 7.3444-7.7702 10.013 3.4206 2.6368 5.8324 5.3619 7.8405 9.7668 1.7936-4.1847 3.988-7.3044 7.7995-9.8977-3.834-1.968-6.0537-5.0852-7.8698-9.8823z" fill="#f00" fill-rule="evenodd"/>
 <path d="m90.13 130.22c-2.4033 4.8454-4.1557 7.3444-7.7702 10.013 3.4206 2.6368 5.8324 5.3619 7.8405 9.7668 1.7936-4.1847 3.988-7.3044 7.7995-9.8977-3.834-1.968-6.0536-5.0852-7.8698-9.8823z" fill="#f00" fill-rule="evenodd"/>
 <path d="m118.34 106.34c-4.1258 8.2455-7.1342 12.498-13.34 17.04 5.8724 4.487 10.013 9.1245 13.46 16.62 3.0792-7.1212 6.8464-12.43 13.39-16.843-6.582-3.3489-10.393-8.6536-13.51-16.817z" fill="#f00" fill-rule="evenodd"/>
</svg>
