<?xml version="1.0" encoding="UTF-8"?>
<svg viewBox="0 0 140 190" xmlns="http://www.w3.org/2000/svg">
 <path d="m21 5h103c8.864 0 16 7.136 16 16v153c0 8.864-7.136 16-16 16h-103c-8.864 0-16-7.136-16-16v-153c0-8.864 7.136-16 16-16z" fill-opacity=".49804"/>
 <path d="m17 1h103c8.864 0 16 7.136 16 16v153c0 8.864-7.136 16-16 16h-103c-8.864 0-16-7.136-16-16v-153c0-8.864 7.136-16 16-16z" fill="#e7e7e7"/>
 <path d="m19 3h103c8.864 0 16 7.136 16 16v153c0 8.864-7.136 16-16 16h-103c-8.864 0-16-7.136-16-16v-153c0-8.864 7.136-16 16-16z" fill="#c7891f"/>
 <path d="m18 2h103c8.864 0 16 7.136 16 16v153c0 8.864-7.136 16-16 16h-103c-8.864 0-16-7.136-16-16v-153c0-8.864 7.136-16 16-16z" fill="#fff"/>
 <path transform="matrix(.90928 0 0 1.0998 329.5 183.5)" d="m-348.78-155.73h17.485v5.1706h-11.876v4.2205c0.53593-0.14614 1.0719-0.25577 1.6078-0.32887 0.54811-0.08525 1.1145-0.12788 1.6992-0.1279 3.3253 2e-5 5.9136 0.83439 7.7651 2.5031 1.8514 1.6566 2.7771 3.9708 2.7772 6.9429-2e-5 2.9477-1.011 5.2559-3.0329 6.9246-2.0098 1.6687-4.8052 2.5031-8.3863 2.5031-1.5469 0-3.0817-0.15225-4.6042-0.45676-1.5104-0.29234-3.0147-0.74301-4.5129-1.352v-5.536c1.486 0.85264 2.8929 1.4921 4.2205 1.9184 1.3398 0.42632 2.6005 0.63948 3.782 0.63947 1.7053 1e-5 3.0451-0.41413 4.0196-1.2424 0.9866-0.84044 1.4799-1.9732 1.4799-3.3984-2e-5 -1.4373-0.49333-2.5701-1.4799-3.3984-0.97445-0.82826-2.3143-1.2424-4.0196-1.2424-1.011 1e-5 -2.089 0.13399-3.2339 0.40195-1.145 0.2558-2.3752 0.65776-3.6907 1.2059v-15.347" fill="#f00"/>
 <path transform="matrix(-.90928 0 0 -1.0998 329.5 183.5)" d="m223.45 5.9103h17.485v5.1706h-11.876v4.2205c0.53593-0.14615 1.0719-0.25577 1.6078-0.32887 0.54811-0.08525 1.1145-0.12788 1.6992-0.1279 3.3252 2e-5 5.9136 0.83438 7.7651 2.5031 1.8514 1.6566 2.7771 3.9708 2.7772 6.9429-3e-5 2.9477-1.011 5.2559-3.0329 6.9246-2.0098 1.6687-4.8052 2.5031-8.3863 2.5031-1.5469 0-3.0817-0.15226-4.6042-0.45677-1.5104-0.29233-3.0147-0.74301-4.5129-1.352v-5.536c1.486 0.85264 2.8929 1.4921 4.2205 1.9184 1.3398 0.42632 2.6005 0.63948 3.782 0.63948 1.7052 0 3.0451-0.41413 4.0196-1.2424 0.9866-0.84045 1.4799-1.9732 1.4799-3.3984-2e-5 -1.4373-0.49333-2.5701-1.4799-3.3984-0.97445-0.82826-2.3143-1.2424-4.0196-1.2424-1.011 1e-5 -2.089 0.134-3.2339 0.40196-1.145 0.2558-2.3752 0.65776-3.6907 1.2059v-15.347" fill="#f00"/>
 <path d="m20.41 48.665c-4.1258 8.2455-7.1342 12.498-13.34 17.04 5.8724 4.487 10.013 9.1245 13.46 16.62 3.0792-7.1212 6.8464-12.43 13.39-16.843-6.582-3.3489-10.393-8.6536-13.51-16.817z" fill="#f00" fill-rule="evenodd"/>
 <path d="m51.13 45c-2.4033 4.8454-4.1557 7.3444-7.7702 10.013 3.4206 2.6368 5.8324 5.3619 7.8405 9.7668 1.7936-4.1847 3.988-7.3044 7.7995-9.8977-3.834-1.968-6.0537-5.0852-7.8698-9.8823z" fill="#f00" fill-rule="evenodd"/>
 <path d="m87.13 45c-2.4033 4.8454-4.1557 7.3444-7.7702 10.013 3.4206 2.6368 5.8324 5.3619 7.8405 9.7668 1.7936-4.1847 3.988-7.3044 7.7995-9.8977-3.834-1.968-6.0536-5.0852-7.8698-9.8823z" fill="#f00" fill-rule="evenodd"/>
 <path d="m53.13 122.22c-2.4033 4.8454-4.1557 7.3444-7.7702 10.013 3.4206 2.6368 5.8324 5.3619 7.8405 9.7668 1.7936-4.1847 3.988-7.3044 7.7995-9.8977-3.834-1.968-6.0537-5.0852-7.8698-9.8823z" fill="#f00" fill-rule="evenodd"/>
 <path d="m88.13 122c-2.4033 4.8454-4.1557 7.3444-7.7702 10.013 3.4206 2.6368 5.8324 5.3619 7.8405 9.7668 1.7936-4.1847 3.988-7.3044 7.7995-9.8977-3.834-1.968-6.0536-5.0852-7.8698-9.8823z" fill="#f00" fill-rule="evenodd"/>
 <path d="m118.34 106.34c-4.1258 8.2455-7.1342 12.498-13.34 17.04 5.8724 4.487 10.013 9.1245 13.46 16.62 3.0792-7.1212 6.8464-12.43 13.39-16.843-6.582-3.3489-10.393-8.6536-13.51-16.817z" fill="#f00" fill-rule="evenodd"/>
 <path d="m69.77 82.22c-2.4033 4.8454-4.1557 7.3444-7.7702 10.013 3.4206 2.6368 5.8324 5.3619 7.8405 9.7668 1.7936-4.1847 3.988-7.3044 7.7995-9.8977-3.834-1.968-6.0537-5.0852-7.8698-9.8823z" fill="#f00" fill-rule="evenodd"/>
</svg>
