<?xml version="1.0" encoding="UTF-8"?>
<svg viewBox="0 0 140 190" xmlns="http://www.w3.org/2000/svg">
 <path d="m21 5h103c8.864 0 16 7.136 16 16v153c0 8.864-7.136 16-16 16h-103c-8.864 0-16-7.136-16-16v-153c0-8.864 7.136-16 16-16z" fill-opacity=".49804"/>
 <path d="m17 1h103c8.864 0 16 7.136 16 16v153c0 8.864-7.136 16-16 16h-103c-8.864 0-16-7.136-16-16v-153c0-8.864 7.136-16 16-16z" fill="#e7e7e7"/>
 <path d="m19 3h103c8.864 0 16 7.136 16 16v153c0 8.864-7.136 16-16 16h-103c-8.864 0-16-7.136-16-16v-153c0-8.864 7.136-16 16-16z" fill="#c7891f"/>
 <path d="m18 2h103c8.864 0 16 7.136 16 16v153c0 8.864-7.136 16-16 16h-103c-8.864 0-16-7.136-16-16v-153c0-8.864 7.136-16 16-16z" fill="#fff"/>
 <path d="m12.604 11.998h15.899v5.6865h-10.799v4.6416c0.48731-0.16073 0.97463-0.28129 1.462-0.36168 0.49839-0.09375 1.0134-0.14063 1.545-0.14065 3.0236 2e-5 5.3771 0.91763 7.0606 2.7528 1.6834 1.8218 2.5252 4.367 2.5252 7.6356-2e-5 3.2418-0.91929 5.7802-2.7578 7.6155-1.8275 1.8352-4.3693 2.7528-7.6255 2.7528-1.4066 0-2.8021-0.16745-4.1865-0.50234-1.3734-0.3215-2.7412-0.81714-4.1035-1.4869v-6.0884c1.3512 0.93771 2.6304 1.641 3.8377 2.1098 1.2183 0.46886 2.3646 0.70328 3.4389 0.70328 1.5506 0 2.7689-0.45545 3.6549-1.3664 0.8971-0.9243 1.3457-2.1701 1.3457-3.7374-2e-5 -1.5807-0.44857-2.8265-1.3457-3.7374-0.88605-0.91089-2.1044-1.3664-3.6549-1.3664-0.91927 2e-5 -1.8994 0.14737-2.9406 0.44206-1.0411 0.28132-2.1597 0.72338-3.3559 1.3262v-16.879" fill="#f00"/>
 <g fill="#f00">
  <path transform="matrix(.31657 0 0 .41973 -33.049 -16.808)" d="m147.21 156.42c-2.5357 0.01275-5.3218 0.48209-8.4062 1.5312-33.623 19.537 11.705 51.041 30.844 78.094l0.55251 0.13831c21.033-29.569 61.072-62.108 30.479-78.232-24.237-8.244-30.711 19.198-30.938 20.188-0.19739-0.86352-5.1424-21.806-22.531-21.719z" fill-rule="evenodd"/>
 </g>
 <path d="m126.26 177h-15.899v-5.6865h10.799v-4.6416c-0.48731 0.16072-0.97463 0.28129-1.462 0.36168-0.49839 0.09375-1.0134 0.14064-1.545 0.14065-3.0236-1e-5 -5.3771-0.91762-7.0606-2.7528-1.6835-1.8218-2.5252-4.367-2.5252-7.6356 1e-5 -3.2418 0.91928-5.7803 2.7578-7.6155 1.8275-1.8352 4.3693-2.7528 7.6255-2.7528 1.4066 0 2.8021 0.16744 4.1865 0.50234 1.3734 0.32149 2.7412 0.81712 4.1035 1.4869v6.0884c-1.3512-0.93771-2.6304-1.641-3.8377-2.1098-1.2183-0.46887-2.3646-0.70328-3.4389-0.70328-1.5506 0-2.7689 0.45545-3.6549 1.3664-0.8971 0.9243-1.3457 2.1701-1.3457 3.7374 2e-5 1.5807 0.44858 2.8265 1.3457 3.7374 0.88605 0.91089 2.1044 1.3664 3.6549 1.3664 0.91928-1e-5 1.8995-0.14737 2.9406-0.44205 1.0411-0.28133 2.1597-0.72339 3.3559-1.3262v16.879" fill="#f00"/>
 <g fill="#f00">
  <path transform="matrix(-.31657 0 0 -.41973 171.91 205.65)" d="m147.21 156.42c-2.5357 0.01275-5.3218 0.48209-8.4062 1.5312-33.623 19.537 11.705 51.041 30.844 78.094l0.55251 0.13831c21.033-29.569 61.072-62.108 30.479-78.232-24.237-8.244-30.711 19.198-30.938 20.188-0.19739-0.86352-5.1424-21.806-22.531-21.719z" fill-rule="evenodd"/>
 </g>
 <g fill="#f00">
  <path transform="matrix(.18388 0 0 .24795 20.055 6.4393)" d="m147.21 156.42c-2.5357 0.01275-5.3218 0.48209-8.4062 1.5312-33.623 19.537 11.705 51.041 30.844 78.094l0.55251 0.13831c21.033-29.569 61.072-62.108 30.479-78.232-24.237-8.244-30.711 19.198-30.938 20.188-0.19739-0.86352-5.1424-21.806-22.531-21.719z" fill-rule="evenodd"/>
 </g>
 <g fill="#f00">
  <path transform="matrix(.18388 0 0 .24795 56.055 6.4393)" d="m147.21 156.42c-2.5357 0.01275-5.3218 0.48209-8.4062 1.5312-33.623 19.537 11.705 51.041 30.844 78.094l0.55251 0.13831c21.033-29.569 61.072-62.108 30.479-78.232-24.237-8.244-30.711 19.198-30.938 20.188-0.19739-0.86352-5.1424-21.806-22.531-21.719z" fill-rule="evenodd"/>
 </g>
 <g fill="#f00">
  <path transform="matrix(.18388 0 0 .24795 38.695 43.439)" d="m147.21 156.42c-2.5357 0.01275-5.3218 0.48209-8.4062 1.5312-33.623 19.537 11.705 51.041 30.844 78.094l0.55251 0.13831c21.033-29.569 61.072-62.108 30.479-78.232-24.237-8.244-30.711 19.198-30.938 20.188-0.19739-0.86352-5.1424-21.806-22.531-21.719z" fill-rule="evenodd"/>
 </g>
 <g fill="#f00">
  <path transform="matrix(-.18388 0 0 -.24795 84.305 180.56)" d="m147.21 156.42c-2.5357 0.01275-5.3218 0.48209-8.4062 1.5312-33.623 19.537 11.705 51.041 30.844 78.094l0.55251 0.13831c21.033-29.569 61.072-62.108 30.479-78.232-24.237-8.244-30.711 19.198-30.938 20.188-0.19739-0.86352-5.1424-21.806-22.531-21.719z" fill-rule="evenodd"/>
 </g>
 <g fill="#f00">
  <path transform="matrix(-.18388 0 0 -.24795 119.3 180.56)" d="m147.21 156.42c-2.5357 0.01275-5.3218 0.48209-8.4062 1.5312-33.623 19.537 11.705 51.041 30.844 78.094l0.55251 0.13831c21.033-29.569 61.072-62.108 30.479-78.232-24.237-8.244-30.711 19.198-30.938 20.188-0.19739-0.86352-5.1424-21.806-22.531-21.719z" fill-rule="evenodd"/>
 </g>
</svg>
