<?xml version="1.0" encoding="UTF-8"?>
<svg viewBox="0 0 140 190" xmlns="http://www.w3.org/2000/svg">
 <path d="m21 5h103c8.864 0 16 7.136 16 16v153c0 8.864-7.136 16-16 16h-103c-8.864 0-16-7.136-16-16v-153c0-8.864 7.136-16 16-16z" fill-opacity=".49804"/>
 <path d="m17 1h103c8.864 0 16 7.136 16 16v153c0 8.864-7.136 16-16 16h-103c-8.864 0-16-7.136-16-16v-153c0-8.864 7.136-16 16-16z" fill="#e7e7e7"/>
 <path d="m19 3h103c8.864 0 16 7.136 16 16v153c0 8.864-7.136 16-16 16h-103c-8.864 0-16-7.136-16-16v-153c0-8.864 7.136-16 16-16z" fill="#c7891f"/>
 <path d="m18 2h103c8.864 0 16 7.136 16 16v153c0 8.864-7.136 16-16 16h-103c-8.864 0-16-7.136-16-16v-153c0-8.864 7.136-16 16-16z" fill="#fff"/>
 <g transform="matrix(.59314 0 0 .23894 -103.05 9.256)">
  <path d="m260.18 149.6c-4.8362 19.241-19.676 52.006-10.275 62.122 5.7065 4.6568 8.4221-4.8759 9.5723-11.187h0.23038l-3.7898 31.836 8.7775-0.09375s-3.7812-30.602-3.7898-31.773h0.09215c0.92901 5.157 4.4542 15.833 8.3321 11.767 11.339-11.397-5.358-43.83-9.1499-62.671z" fill-rule="evenodd"/>
 </g>
 <g transform="matrix(-.59314 0 0 -.23894 207.41 177.52)">
  <path d="m260.18 149.6c-4.8362 19.241-19.676 52.006-10.275 62.122 5.7065 4.6568 8.4221-4.8759 9.5723-11.187h0.23038l-3.7898 31.836 8.7775-0.09375s-3.7812-30.602-3.7898-31.773h0.09215c0.92901 5.157 4.4542 15.833 8.3321 11.767 11.339-11.397-5.358-43.83-9.1499-62.671z" fill-rule="evenodd"/>
 </g>
 <g transform="matrix(.59314 0 0 .23894 -67.053 9.256)">
  <path d="m260.18 149.6c-4.8362 19.241-19.676 52.006-10.275 62.122 5.7065 4.6568 8.4221-4.8759 9.5723-11.187h0.23038l-3.7898 31.836 8.7775-0.09375s-3.7812-30.602-3.7898-31.773h0.09215c0.92901 5.157 4.4542 15.833 8.3321 11.767 11.339-11.397-5.358-43.83-9.1499-62.671z" fill-rule="evenodd"/>
 </g>
 <g transform="matrix(-.59314 0 0 -.23894 242.41 177.52)">
  <path d="m260.18 149.6c-4.8362 19.241-19.676 52.006-10.275 62.122 5.7065 4.6568 8.4221-4.8759 9.5723-11.187h0.23038l-3.7898 31.836 8.7775-0.09375s-3.7812-30.602-3.7898-31.773h0.09215c0.92901 5.157 4.4542 15.833 8.3321 11.767 11.339-11.397-5.358-43.83-9.1499-62.671z" fill-rule="evenodd"/>
 </g>
 <g transform="matrix(1 0 0 .40081 -239.78 -10.811)">
  <path d="m260.42 148.39c-4.9243 19.522-20.034 52.765-10.462 63.029 5.8105 4.7247 8.5756-4.947 9.7467-11.35h0.23457l-3.8588 32.3 8.9374-0.09512s-3.85-31.049-3.8588-32.237h0.09383c0.94594 5.2323 4.5354 16.064 8.4839 11.939 11.546-11.564-5.4556-44.469-9.3166-63.586z" fill-rule="evenodd"/>
 </g>
 <path d="m12.363 12.238h15.899v5.6865h-10.799v4.6416c0.48731-0.16072 0.97463-0.28129 1.462-0.36168 0.49839-0.09376 1.0134-0.14064 1.545-0.14066 3.0236 2e-5 5.3771 0.91764 7.0606 2.7528 1.6834 1.8218 2.5252 4.367 2.5252 7.6356-2e-5 3.2418-0.91928 5.7802-2.7578 7.6154-1.8275 1.8352-4.3693 2.7528-7.6255 2.7528-1.4066 0-2.8021-0.16744-4.1865-0.50233-1.3734-0.32151-2.7412-0.81714-4.1035-1.4869v-6.0884c1.3512 0.93771 2.6304 1.641 3.8377 2.1098 1.2183 0.46885 2.3646 0.70328 3.4389 0.70327 1.5506 1e-5 2.7689-0.45545 3.6549-1.3664 0.8971-0.92429 1.3457-2.1701 1.3457-3.7374-2e-5 -1.5807-0.44858-2.8265-1.3457-3.7374-0.88605-0.91089-2.1044-1.3664-3.6549-1.3664-0.91927 1e-5 -1.8994 0.14736-2.9405 0.44205-1.0411 0.28132-2.1597 0.72338-3.3559 1.3262v-16.879"/>
 <g transform="matrix(-1 0 0 -.40081 378.46 199.48)">
  <path d="m260.42 148.39c-4.9243 19.522-20.034 52.765-10.462 63.029 5.8105 4.7247 8.5756-4.947 9.7467-11.35h0.23457l-3.8588 32.3 8.9374-0.09512s-3.85-31.049-3.8588-32.237h0.09383c0.94594 5.2323 4.5354 16.064 8.4839 11.939 11.546-11.564-5.4556-44.469-9.3166-63.586z" fill-rule="evenodd"/>
 </g>
 <path d="m126.32 177h-15.899v-5.6865h10.799v-4.6416c-0.48731 0.16073-0.97463 0.28129-1.462 0.36168-0.49839 0.09375-1.0134 0.14064-1.545 0.14066-3.0236-2e-5 -5.3771-0.91763-7.0606-2.7528-1.6835-1.8218-2.5252-4.367-2.5252-7.6356 3e-5 -3.2418 0.9193-5.7803 2.7578-7.6155 1.8275-1.8352 4.3693-2.7528 7.6255-2.7528 1.4066 0 2.8021 0.16745 4.1865 0.50234 1.3734 0.3215 2.7412 0.81714 4.1035 1.4869v6.0884c-1.3512-0.93771-2.6304-1.641-3.8377-2.1098-1.2183-0.46886-2.3646-0.70328-3.4389-0.70328-1.5506 0-2.7689 0.45545-3.6549 1.3664-0.8971 0.9243-1.3457 2.1701-1.3457 3.7374 2e-5 1.5807 0.44858 2.8265 1.3457 3.7374 0.88605 0.91089 2.1044 1.3663 3.6549 1.3664 0.91928-2e-5 1.8994-0.14737 2.9406-0.44206 1.0411-0.28132 2.1597-0.72338 3.3559-1.3262v16.879"/>
 <g transform="matrix(.59314 0 0 .23894 -84.412 46.256)">
  <path d="m260.18 149.6c-4.8362 19.241-19.676 52.006-10.275 62.122 5.7065 4.6568 8.4221-4.8759 9.5723-11.187h0.23038l-3.7898 31.836 8.7775-0.09375s-3.7812-30.602-3.7898-31.773h0.09215c0.92901 5.157 4.4542 15.833 8.3321 11.767 11.339-11.397-5.358-43.83-9.1499-62.671z" fill-rule="evenodd"/>
 </g>
</svg>
