<?xml version="1.0" encoding="UTF-8"?>
<svg viewBox="0 0 140 190" xmlns="http://www.w3.org/2000/svg">
 <path d="m21 5h103c8.864 0 16 7.136 16 16v153c0 8.864-7.136 16-16 16h-103c-8.864 0-16-7.136-16-16v-153c0-8.864 7.136-16 16-16z" fill-opacity=".49804"/>
 <path d="m17 1h103c8.864 0 16 7.136 16 16v153c0 8.864-7.136 16-16 16h-103c-8.864 0-16-7.136-16-16v-153c0-8.864 7.136-16 16-16z" fill="#e7e7e7"/>
 <path d="m19 3h103c8.864 0 16 7.136 16 16v153c0 8.864-7.136 16-16 16h-103c-8.864 0-16-7.136-16-16v-153c0-8.864 7.136-16 16-16z" fill="#c7891f"/>
 <path d="m18 2h103c8.864 0 16 7.136 16 16v153c0 8.864-7.136 16-16 16h-103c-8.864 0-16-7.136-16-16v-153c0-8.864 7.136-16 16-16z" fill="#fff"/>
 <path transform="matrix(.90928 0 0 1.0998 329.5 183.5)" d="m-348.78-155.73h17.485v5.1706h-11.876v4.2205c0.53593-0.14614 1.0719-0.25577 1.6078-0.32887 0.54811-0.08525 1.1145-0.12788 1.6992-0.1279 3.3253 2e-5 5.9136 0.83439 7.7651 2.5031 1.8514 1.6566 2.7771 3.9708 2.7772 6.9429-2e-5 2.9477-1.011 5.2559-3.0329 6.9246-2.0098 1.6687-4.8052 2.5031-8.3863 2.5031-1.5469 0-3.0817-0.15225-4.6042-0.45676-1.5104-0.29234-3.0147-0.74301-4.5129-1.352v-5.536c1.486 0.85264 2.8929 1.4921 4.2205 1.9184 1.3398 0.42632 2.6005 0.63948 3.782 0.63947 1.7053 1e-5 3.0451-0.41413 4.0196-1.2424 0.9866-0.84044 1.4799-1.9732 1.4799-3.3984-2e-5 -1.4373-0.49333-2.5701-1.4799-3.3984-0.97445-0.82826-2.3143-1.2424-4.0196-1.2424-1.011 1e-5 -2.089 0.13399-3.2339 0.40195-1.145 0.2558-2.3752 0.65776-3.6907 1.2059v-15.347"/>
 <path transform="matrix(-.90928 0 0 -1.0998 329.5 183.5)" d="m223.45 5.9103h17.485v5.1706h-11.876v4.2205c0.53593-0.14615 1.0719-0.25577 1.6078-0.32887 0.54811-0.08525 1.1145-0.12788 1.6992-0.1279 3.3252 2e-5 5.9136 0.83438 7.7651 2.5031 1.8514 1.6566 2.7771 3.9708 2.7772 6.9429-3e-5 2.9477-1.011 5.2559-3.0329 6.9246-2.0098 1.6687-4.8052 2.5031-8.3863 2.5031-1.5469 0-3.0817-0.15226-4.6042-0.45677-1.5104-0.29233-3.0147-0.74301-4.5129-1.352v-5.536c1.486 0.85264 2.8929 1.4921 4.2205 1.9184 1.3398 0.42632 2.6005 0.63948 3.782 0.63948 1.7052 0 3.0451-0.41413 4.0196-1.2424 0.9866-0.84045 1.4799-1.9732 1.4799-3.3984-2e-5 -1.4373-0.49333-2.5701-1.4799-3.3984-0.97445-0.82826-2.3143-1.2424-4.0196-1.2424-1.011 1e-5 -2.089 0.134-3.2339 0.40196-1.145 0.2558-2.3752 0.65776-3.6907 1.2059v-15.347"/>
 <path d="m21.457 48.002c-2.6664 0-4.8299 3.2635-4.8299 7.2857 0 3.4266 4.3921 9.1917 4.2215 11.93-1.4102 0.78242-5.7673-6.4375-8.019-6.4375-2.6664 0-4.8299 3.2635-4.8299 7.2857s2.1635 7.2857 4.8299 7.2857c2.3125 0 6.2757-7.214 8.019-6.5627l-2.9289 12.874 7.0236-0.04171s-3.0769-12.481-3.0808-12.776h0.0553v0.01391c1.7073-0.63971 5.8059 6.6322 8.102 6.6322 2.6664 0 4.8299-3.2635 4.8299-7.2857s-2.1635-7.2857-4.8299-7.2857c-2.2426 0-6.3077 7.1005-8.0928 6.368 0.02508-2.8054 4.3598-8.5763 4.3598-11.999 0-4.0221-2.1635-7.2857-4.8299-7.2857z" fill-rule="evenodd"/>
 <path d="m117.42 139.96c2.6664 0 4.8299-3.2635 4.8299-7.2857 0-3.4266-4.3921-9.1917-4.2215-11.93 1.4102-0.78242 5.7673 6.4375 8.019 6.4375 2.6664 0 4.8299-3.2635 4.8299-7.2857s-2.1635-7.2857-4.8299-7.2857c-2.3125 0-6.2757 7.214-8.019 6.5627l2.9289-12.874-7.0236 0.04171s3.077 12.481 3.0808 12.776h-0.05531v-0.01391c-1.7073 0.63971-5.8059-6.6322-8.102-6.6322-2.6664 0-4.8299 3.2635-4.8299 7.2857s2.1635 7.2857 4.8299 7.2857c2.2426 0 6.3077-7.1005 8.0928-6.368-0.02508 2.8054-4.3598 8.5763-4.3598 11.999 0 4.0221 2.1635 7.2857 4.8299 7.2857z" fill-rule="evenodd"/>
 <path d="m51.199 45c-1.5532 0-2.8134 1.9178-2.8134 4.2814 0 2.0136 2.5584 5.4014 2.459 7.0103-0.82146 0.45979-3.3594-3.783-4.6711-3.783-1.5532 0-2.8134 1.9178-2.8134 4.2814s1.2602 4.2814 2.8134 4.2814c1.347 0 3.6556-4.2392 4.6711-3.8565l-1.7061 7.5651 4.0912-0.02451s-1.7923-7.3345-1.7945-7.5079h0.03221v0.00817c0.9945-0.37592 3.3819 3.8973 4.7194 3.8973 1.5532 0 2.8134-1.9178 2.8134-4.2814s-1.2602-4.2814-2.8134-4.2814c-1.3063 0-3.6742 4.1726-4.714 3.7421 0.01461-1.6486 2.5396-5.0398 2.5396-7.0512 0-2.3636-1.2602-4.2814-2.8134-4.2814z" fill-rule="evenodd"/>
 <path d="m70.199 82c-1.5532 0-2.8134 1.9178-2.8134 4.2814 0 2.0136 2.5584 5.4014 2.459 7.0103-0.82147 0.45979-3.3594-3.783-4.6711-3.783-1.5532 0-2.8134 1.9178-2.8134 4.2814s1.2602 4.2814 2.8134 4.2814c1.347 0 3.6555-4.2392 4.6711-3.8565l-1.7061 7.5651 4.0912-0.02451s-1.7923-7.3345-1.7945-7.5079h0.03222v0.00817c0.99449-0.37592 3.3819 3.8973 4.7194 3.8973 1.5532 0 2.8134-1.9178 2.8134-4.2814s-1.2602-4.2814-2.8134-4.2814c-1.3063 0-3.6742 4.1726-4.714 3.7421 0.01461-1.6486 2.5396-5.0398 2.5396-7.0512 0-2.3636-1.2602-4.2814-2.8134-4.2814z" fill-rule="evenodd"/>
 <path d="m87.199 45c-1.5532 0-2.8134 1.9178-2.8134 4.2814 0 2.0136 2.5584 5.4014 2.459 7.0103-0.82146 0.45978-3.3594-3.783-4.6711-3.783-1.5532 0-2.8134 1.9178-2.8134 4.2814s1.2602 4.2814 2.8134 4.2814c1.347 0 3.6555-4.2392 4.6711-3.8565l-1.7061 7.5651 4.0912-0.02451s-1.7923-7.3345-1.7945-7.5079h0.03222v0.00817c0.99449-0.37592 3.3819 3.8973 4.7194 3.8974 1.5532 0 2.8134-1.9178 2.8134-4.2814s-1.2602-4.2814-2.8134-4.2814c-1.3063 0-3.6742 4.1726-4.714 3.7421 0.0146-1.6486 2.5396-5.0398 2.5396-7.0512 0-2.3636-1.2602-4.2814-2.8134-4.2814z" fill-rule="evenodd"/>
 <path d="m88.161 141.78c1.5532 0 2.8134-1.9178 2.8134-4.2814 0-2.0136-2.5584-5.4014-2.459-7.0103 0.82146-0.45978 3.3594 3.783 4.6711 3.783 1.5532 0 2.8134-1.9178 2.8134-4.2814s-1.2602-4.2814-2.8134-4.2814c-1.347 0-3.6556 4.2392-4.6711 3.8565l1.7061-7.5651-4.0912 0.02451s1.7923 7.3345 1.7945 7.5079h-0.03221v-0.00817c-0.9945 0.37592-3.3819-3.8973-4.7194-3.8973-1.5532 0-2.8134 1.9178-2.8134 4.2814s1.2602 4.2814 2.8134 4.2814c1.3063 0 3.6742-4.1726 4.714-3.7421-0.01461 1.6486-2.5396 5.0398-2.5396 7.0512 0 2.3636 1.2602 4.2814 2.8134 4.2814z" fill-rule="evenodd"/>
 <path d="m53.161 141.78c1.5532 0 2.8134-1.9178 2.8134-4.2814 0-2.0136-2.5584-5.4014-2.459-7.0103 0.82146-0.45978 3.3594 3.783 4.6711 3.783 1.5532 0 2.8134-1.9178 2.8134-4.2814s-1.2602-4.2814-2.8134-4.2814c-1.347 0-3.6555 4.2392-4.6711 3.8565l1.7061-7.5651-4.0912 0.02452s1.7923 7.3345 1.7945 7.5079h-0.03221v-0.00818c-0.9945 0.37592-3.3819-3.8973-4.7194-3.8973-1.5532 0-2.8134 1.9178-2.8134 4.2814s1.2602 4.2814 2.8134 4.2814c1.3063 0 3.6742-4.1726 4.714-3.7421-0.01461 1.6486-2.5396 5.0398-2.5396 7.0512 0 2.3636 1.2602 4.2814 2.8134 4.2814z" fill-rule="evenodd"/>
</svg>
