<?xml version="1.0" encoding="UTF-8"?>
<svg viewBox="0 0 140 190" xmlns="http://www.w3.org/2000/svg">
 <path d="m21 5h103c8.864 0 16 7.136 16 16v153c0 8.864-7.136 16-16 16h-103c-8.864 0-16-7.136-16-16v-153c0-8.864 7.136-16 16-16z" fill-opacity=".49804"/>
 <path d="m17 1h103c8.864 0 16 7.136 16 16v153c0 8.864-7.136 16-16 16h-103c-8.864 0-16-7.136-16-16v-153c0-8.864 7.136-16 16-16z" fill="#e7e7e7"/>
 <path d="m19 3h103c8.864 0 16 7.136 16 16v153c0 8.864-7.136 16-16 16h-103c-8.864 0-16-7.136-16-16v-153c0-8.864 7.136-16 16-16z" fill="#c7891f"/>
 <path d="m18 2h103c8.864 0 16 7.136 16 16v153c0 8.864-7.136 16-16 16h-103c-8.864 0-16-7.136-16-16v-153c0-8.864 7.136-16 16-16z" fill="#fff"/>
 <g transform="matrix(.59314 0 0 .23894 -103.05 9.256)">
  <path d="m260.18 149.6c-4.8362 19.241-19.676 52.006-10.275 62.122 5.7065 4.6568 8.4221-4.8759 9.5723-11.187h0.23038l-3.7898 31.836 8.7775-0.09375s-3.7812-30.602-3.7898-31.773h0.09215c0.92901 5.157 4.4542 15.833 8.3321 11.767 11.339-11.397-5.358-43.83-9.1499-62.671z" fill-rule="evenodd"/>
 </g>
 <g transform="matrix(-.59314 0 0 -.23894 207.41 177.52)">
  <path d="m260.18 149.6c-4.8362 19.241-19.676 52.006-10.275 62.122 5.7065 4.6568 8.4221-4.8759 9.5723-11.187h0.23038l-3.7898 31.836 8.7775-0.09375s-3.7812-30.602-3.7898-31.773h0.09215c0.92901 5.157 4.4542 15.833 8.3321 11.767 11.339-11.397-5.358-43.83-9.1499-62.671z" fill-rule="evenodd"/>
 </g>
 <g transform="matrix(.59314 0 0 .23894 -67.053 9.256)">
  <path d="m260.18 149.6c-4.8362 19.241-19.676 52.006-10.275 62.122 5.7065 4.6568 8.4221-4.8759 9.5723-11.187h0.23038l-3.7898 31.836 8.7775-0.09375s-3.7812-30.602-3.7898-31.773h0.09215c0.92901 5.157 4.4542 15.833 8.3321 11.767 11.339-11.397-5.358-43.83-9.1499-62.671z" fill-rule="evenodd"/>
 </g>
 <g transform="matrix(-.59314 0 0 -.23894 242.41 177.52)">
  <path d="m260.18 149.6c-4.8362 19.241-19.676 52.006-10.275 62.122 5.7065 4.6568 8.4221-4.8759 9.5723-11.187h0.23038l-3.7898 31.836 8.7775-0.09375s-3.7812-30.602-3.7898-31.773h0.09215c0.92901 5.157 4.4542 15.833 8.3321 11.767 11.339-11.397-5.358-43.83-9.1499-62.671z" fill-rule="evenodd"/>
 </g>
 <g transform="matrix(1 0 0 .40081 -239.78 -10.811)">
  <path d="m260.42 148.39c-4.9243 19.522-20.034 52.765-10.462 63.029 5.8105 4.7247 8.5756-4.947 9.7467-11.35h0.23457l-3.8588 32.3 8.9374-0.09512s-3.85-31.049-3.8588-32.237h0.09383c0.94594 5.2323 4.5354 16.064 8.4839 11.939 11.546-11.564-5.4556-44.469-9.3166-63.586z" fill-rule="evenodd"/>
 </g>
 <path d="m21.285 18.608-7.0108 12.558h7.0108v-12.558m-1.0632-6.3697h7.1105v18.928h3.5386v5.6061h-3.5386v5.4654h-6.0472v-5.4654h-10.998v-6.6309l9.9347-17.903"/>
 <g transform="matrix(-1 0 0 -.40081 378.46 199.48)">
  <path d="m260.42 148.39c-4.9243 19.522-20.034 52.765-10.462 63.029 5.8105 4.7247 8.5756-4.947 9.7467-11.35h0.23457l-3.8588 32.3 8.9374-0.09512s-3.85-31.049-3.8588-32.237h0.09383c0.94594 5.2323 4.5354 16.064 8.4839 11.939 11.546-11.564-5.4556-44.469-9.3166-63.586z" fill-rule="evenodd"/>
 </g>
 <path d="m117.4 170.53 7.0108-12.558h-7.0108v12.558m1.0632 6.3697h-7.1105v-18.928h-3.5386v-5.6061h3.5386v-5.4654h6.0472v5.4654h10.998v6.6309l-9.9347 17.903"/>
</svg>
