<?xml version="1.0" encoding="UTF-8"?>
<svg viewBox="0 0 140 190" xmlns="http://www.w3.org/2000/svg">
 <path d="m21 5h103c8.864 0 16 7.136 16 16v153c0 8.864-7.136 16-16 16h-103c-8.864 0-16-7.136-16-16v-153c0-8.864 7.136-16 16-16z" fill-opacity=".49804"/>
 <path d="m17 1h103c8.864 0 16 7.136 16 16v153c0 8.864-7.136 16-16 16h-103c-8.864 0-16-7.136-16-16v-153c0-8.864 7.136-16 16-16z" fill="#e7e7e7"/>
 <path d="m19 3h103c8.864 0 16 7.136 16 16v153c0 8.864-7.136 16-16 16h-103c-8.864 0-16-7.136-16-16v-153c0-8.864 7.136-16 16-16z" fill="#c7891f"/>
 <path d="m18 2h103c8.864 0 16 7.136 16 16v153c0 8.864-7.136 16-16 16h-103c-8.864 0-16-7.136-16-16v-153c0-8.864 7.136-16 16-16z" fill="#fff"/>
 <path d="m21.525 18.368-7.0108 12.558h7.0108v-12.558m-1.0632-6.3697h7.1105v18.928h3.5386v5.6061h-3.5386v5.4654h-6.0472v-5.4654h-10.998v-6.6309l9.9347-17.903" fill="#f00"/>
 <g fill="#f00">
  <path transform="matrix(.31657 0 0 .41973 -33.049 -16.808)" d="m147.21 156.42c-2.5357 0.01275-5.3218 0.48209-8.4062 1.5312-33.623 19.537 11.705 51.041 30.844 78.094l0.55251 0.13831c21.033-29.569 61.072-62.108 30.479-78.232-24.237-8.244-30.711 19.198-30.938 20.188-0.19739-0.86352-5.1424-21.806-22.531-21.719z" fill-rule="evenodd"/>
 </g>
 <path d="m117.34 170.63 7.0108-12.558h-7.0108v12.558m1.0632 6.3697h-7.1105v-18.928h-3.5386v-5.6061h3.5386v-5.4654h6.0472v5.4654h10.998v6.6309l-9.9347 17.903" fill="#f00"/>
 <g fill="#f00">
  <path transform="matrix(-.31657 0 0 -.41973 171.91 205.65)" d="m147.21 156.42c-2.5357 0.01275-5.3218 0.48209-8.4062 1.5312-33.623 19.537 11.705 51.041 30.844 78.094l0.55251 0.13831c21.033-29.569 61.072-62.108 30.479-78.232-24.237-8.244-30.711 19.198-30.938 20.188-0.19739-0.86352-5.1424-21.806-22.531-21.719z" fill-rule="evenodd"/>
 </g>
 <g fill="#f00">
  <path transform="matrix(.18388 0 0 .24795 20.055 6.4393)" d="m147.21 156.42c-2.5357 0.01275-5.3218 0.48209-8.4062 1.5312-33.623 19.537 11.705 51.041 30.844 78.094l0.55251 0.13831c21.033-29.569 61.072-62.108 30.479-78.232-24.237-8.244-30.711 19.198-30.938 20.188-0.19739-0.86352-5.1424-21.806-22.531-21.719z" fill-rule="evenodd"/>
 </g>
 <g fill="#f00">
  <path transform="matrix(.18388 0 0 .24795 56.055 6.4393)" d="m147.21 156.42c-2.5357 0.01275-5.3218 0.48209-8.4062 1.5312-33.623 19.537 11.705 51.041 30.844 78.094l0.55251 0.13831c21.033-29.569 61.072-62.108 30.479-78.232-24.237-8.244-30.711 19.198-30.938 20.188-0.19739-0.86352-5.1424-21.806-22.531-21.719z" fill-rule="evenodd"/>
 </g>
 <g fill="#f00">
  <path transform="matrix(-.18388 0 0 -.24795 84.305 180.78)" d="m147.21 156.42c-2.5357 0.01275-5.3218 0.48209-8.4062 1.5312-33.623 19.537 11.705 51.041 30.844 78.094l0.55251 0.13831c21.033-29.569 61.072-62.108 30.479-78.232-24.237-8.244-30.711 19.198-30.938 20.188-0.19739-0.86352-5.1424-21.806-22.531-21.719z" fill-rule="evenodd"/>
 </g>
 <g fill="#f00">
  <path transform="matrix(-.18388 0 0 -.24795 119.3 180.56)" d="m147.21 156.42c-2.5357 0.01275-5.3218 0.48209-8.4062 1.5312-33.623 19.537 11.705 51.041 30.844 78.094l0.55251 0.13831c21.033-29.569 61.072-62.108 30.479-78.232-24.237-8.244-30.711 19.198-30.938 20.188-0.19739-0.86352-5.1424-21.806-22.531-21.719z" fill-rule="evenodd"/>
 </g>
</svg>
