<?xml version="1.0" encoding="UTF-8"?>
<svg viewBox="0 0 140 190" xmlns="http://www.w3.org/2000/svg" xmlns:xlink="http://www.w3.org/1999/xlink">
 <defs>
  <linearGradient id="a">
   <stop stop-color="#f0eb00" offset="0"/>
   <stop stop-color="#ff0" offset="1"/>
  </linearGradient>
  <linearGradient id="b">
   <stop stop-color="#ff44ab" offset="0"/>
   <stop stop-color="#f6c" offset="1"/>
  </linearGradient>
  <linearGradient id="k" x1="652.3" x2="410.91" y1="77.395" y2="344.42" gradientTransform="matrix(.18685 0 0 .14486 -5.3385 38.237)" gradientUnits="userSpaceOnUse">
   <stop stop-color="#fff" offset="0"/>
   <stop stop-color="#fff" stop-opacity="0" offset="1"/>
  </linearGradient>
  <linearGradient id="h" x1="58.682" x2="72.754" y1="112.27" y2="106.84" gradientUnits="userSpaceOnUse">
   <stop stop-color="#0083cc" offset="0"/>
   <stop stop-color="#24a4cc" offset="1"/>
  </linearGradient>
  <linearGradient id="f" x1="60.08" x2="62.665" y1="101.73" y2="98.222" gradientUnits="userSpaceOnUse">
   <stop stop-color="#c10000" offset="0"/>
   <stop stop-color="#ff433e" offset="1"/>
  </linearGradient>
  <linearGradient id="d" x1="356.44" x2="484.8" y1="437.5" y2="256.18" gradientTransform="matrix(.18682 0 0 .14486 -5.3366 38.225)" gradientUnits="userSpaceOnUse">
   <stop stop-color="#ffd8c1" offset="0"/>
   <stop stop-color="#ffeded" offset="1"/>
  </linearGradient>
  <linearGradient id="c" x1="104.75" x2="109.5" y1="57.469" y2="55.781" gradientUnits="userSpaceOnUse" xlink:href="#a"/>
  <linearGradient id="j" x1="57.509" x2="81.148" y1="65.408" y2="60.172" gradientUnits="userSpaceOnUse" xlink:href="#b"/>
  <linearGradient id="i" x1="64.044" x2="72.365" y1="67.703" y2="65.266" gradientUnits="userSpaceOnUse" xlink:href="#a"/>
  <linearGradient id="g" x1="65.402" x2="69.555" y1="126.63" y2="123.44" gradientUnits="userSpaceOnUse" xlink:href="#a"/>
  <linearGradient id="e" x1="51.852" x2="74.326" y1="154.55" y2="129.5" gradientTransform="scale(1.1404 .87689)" gradientUnits="userSpaceOnUse" xlink:href="#b"/>
 </defs>
 <path d="m21 5h103c8.864 0 16 7.136 16 16v153c0 8.864-7.136 16-16 16h-103c-8.864 0-16-7.136-16-16v-153c0-8.864 7.136-16 16-16z" fill-opacity=".49804"/>
 <path d="m17 1h103c8.864 0 16 7.136 16 16v153c0 8.864-7.136 16-16 16h-103c-8.864 0-16-7.136-16-16v-153c0-8.864 7.136-16 16-16z" fill="#e7e7e7"/>
 <path d="m19 3h103c8.864 0 16 7.136 16 16v153c0 8.864-7.136 16-16 16h-103c-8.864 0-16-7.136-16-16v-153c0-8.864 7.136-16 16-16z" fill="#c7891f"/>
 <path d="m18 2h103c8.864 0 16 7.136 16 16v153c0 8.864-7.136 16-16 16h-103c-8.864 0-16-7.136-16-16v-153c0-8.864 7.136-16 16-16z" fill="#fff"/>
 <path d="m18.683 12.234h6.396v21.359c-1e-5 2.9471-0.84174 5.1495-2.5252 6.6073-1.6724 1.4577-4.2086 2.1866-7.6088 2.1866h-1.2958v-4.6108h0.99678c1.329 0 2.3314-0.35387 3.007-1.0616 0.68667-0.70773 1.03-1.7482 1.03-3.1214v-21.359"/>
 <path d="m120 177h-6.396v-21.359c1e-5 -2.9471 0.84174-5.1496 2.5252-6.6073 1.6724-1.4577 4.2086-2.1866 7.6088-2.1866h1.2958v4.6108h-0.99678c-1.329 0-2.3314 0.35386-3.007 1.0616-0.68666 0.70774-1.03 1.7482-1.03 3.1214v21.359"/>
 <path d="m20.527 48.665c-2.6664 0-4.8299 3.2635-4.8299 7.2857 0 3.4266 4.3921 9.1917 4.2215 11.93-1.4102 0.78242-5.7673-6.4375-8.019-6.4375-2.6664 0-4.8299 3.2635-4.8299 7.2857s2.1635 7.2857 4.8299 7.2857c2.3125 0 6.2757-7.214 8.019-6.5627l-2.9289 12.874 7.0236-0.04171s-3.0769-12.481-3.0808-12.776h0.0553v0.01391c1.7073-0.63971 5.8059 6.6322 8.102 6.6322 2.6664 0 4.8299-3.2635 4.8299-7.2857s-2.1635-7.2857-4.8299-7.2857c-2.2426 0-6.3077 7.1005-8.0928 6.368 0.02508-2.8054 4.3598-8.5763 4.3598-11.999 0-4.0221-2.1635-7.2857-4.8299-7.2857z" fill-rule="evenodd"/>
 <path d="m117.42 139.96c2.6664 0 4.8299-3.2635 4.8299-7.2857 0-3.4266-4.3921-9.1917-4.2215-11.93 1.4102-0.78242 5.7673 6.4375 8.019 6.4375 2.6664 0 4.8299-3.2635 4.8299-7.2857s-2.1635-7.2857-4.8299-7.2857c-2.3125 0-6.2757 7.214-8.019 6.5627l2.9289-12.874-7.0236 0.04171s3.077 12.481 3.0808 12.776h-0.05531v-0.01391c-1.7073 0.63971-5.8059-6.6322-8.102-6.6322-2.6664 0-4.8299 3.2635-4.8299 7.2857s2.1635 7.2857 4.8299 7.2857c2.2426 0 6.3077-7.1005 8.0928-6.368-0.02508 2.8054-4.3598 8.5763-4.3598 11.999 0 4.0221 2.1635 7.2857 4.8299 7.2857z" fill-rule="evenodd"/>
 <path d="m67.892 54.313c-5.972 3.7739-13.469-3.1652-17.453 4.8793-3.4954 4.7823 7.5297 6.1738 0.56963 10.424-4.7562 5.1244-4.4768 7.3804-0.36918 8.0077-1.1823 5.6637-0.32039 15.171 2.2741 20.355-3.2115 3.9032-0.80442 2.5624 3.5528 3.3761-1.3538 2.1545-0.57647 10.05-5.2073 12.489-2.3312 7.0215-0.58347 14.642-1.125 21.906 11.275 4.7482 24.625 5.2876 35.403 2.7547 4.7384-0.99042 10.145-1.3685 9.1908-8.1297 0.28361-8.4263 1.2826-19.518-7.91-23.83-5.3732-0.75269-7.1643-4.3877-3.0403-9.5494 3.0629-8.3581 6.4398-4.8611 11.143-6.9749 4.9011-1.3112-7.0014-4.5396-5.4296-9.9773-1.5227-4.2539-3.3837-9.2577-6.4299-12.711 7.6789-0.68962 8.502-8.6974 2.2601-10.332-6.1866-4.1223-9.8371 2.9138-14.545-2.3746-0.77934-0.0133-2.1022-0.50385-2.885-0.31289z"/>
 <path d="m85.235 85.573c0 11.413-7.5639 20.676-16.884 20.676s-16.884-9.263-16.884-20.676 7.5639-20.676 16.884-20.676 16.884 9.263 16.884 20.676z" fill="url(#d)"/>
 <path d="m64.845 106.73c-7.0491 0-12.725 5.6758-12.725 12.725v14.929c9.3799 4.6491 29.526 4.8938 40.619 0v-14.929c0-7.049-5.6758-12.725-12.725-12.725h-15.169z" fill="url(#e)"/>
 <path d="m49.638 75.941c2.5272-4.5286 5.0544-13.181 19.127-13.091 21.84 0.63989 16.63 23.382 24.451 25.836-4.8529 1.5773-7.2987 2.9285-14.541 0.43017 0.79167-5.699-0.49946-9.8788-3.9251-12.815-4.2689 2.2389-20.739 1.1746-25.112-0.35994z" fill="#6d2b00" fill-rule="evenodd"/>
 <path transform="matrix(.14486 0 0 .0979 16.678 61.701)" d="m353 245.86c0 11.868-9.408 21.5-21 21.5s-21-9.632-21-21.5 9.408-21.5 21-21.5 21 9.632 21 21.5z" fill="#fff"/>
 <path transform="matrix(.08278 0 0 .08197 35.986 65.669)" d="m353 245.86c0 11.868-9.408 21.5-21 21.5s-21-9.632-21-21.5 9.408-21.5 21-21.5 21 9.632 21 21.5z" fill="#b67870"/>
 <path transform="matrix(.05173 0 0 .06603 45.64 69.734)" d="m353 245.86c0 11.868-9.408 21.5-21 21.5s-21-9.632-21-21.5 9.408-21.5 21-21.5 21 9.632 21 21.5z"/>
 <path transform="matrix(.14486 0 0 .0979 6.59 61.36)" d="m353 245.86c0 11.868-9.408 21.5-21 21.5s-21-9.632-21-21.5 9.408-21.5 21-21.5 21 9.632 21 21.5z" fill="#fff"/>
 <path transform="matrix(.08278 0 0 .08197 25.897 65.328)" d="m353 245.86c0 11.868-9.408 21.5-21 21.5s-21-9.632-21-21.5 9.408-21.5 21-21.5 21 9.632 21 21.5z" fill="#b67870"/>
 <path transform="matrix(.05173 0 0 .06603 35.551 69.393)" d="m353 245.86c0 11.868-9.408 21.5-21 21.5s-21-9.632-21-21.5 9.408-21.5 21-21.5 21 9.632 21 21.5z"/>
 <path d="m56.801 98.955c1.8485 3.6222 6.9003 1.9432 11.728 0-5.3239 0.55966-8.9926 0.96922-11.728 0z" fill="url(#f)" fill-rule="evenodd"/>
 <path d="m78.943 122.61 1.2636 0.12326 1.3714 14.513-3.4652 0.46578 0.83024-15.102z" fill="#b30d95"/>
 <path d="m58.999 86.897c-0.7919 1.2868-1.9449 3.4024-1.7806 4.3748s1.6524 0.76248 2.4423 1.3231l0.33085-0.47789c-0.69469-0.49302-1.7829-0.00802-1.918-0.80757s0.68108-2.9149 1.4217-4.1184l-0.49627-0.29408z" fill-rule="evenodd"/>
 <path d="m60.293 94.55c-3.8036 0.37779-6.1334 3.301-8.0614 5.4205 0 0 6.2375-3.4563 8.2017-3.3861-0.1403-0.49104 0.07015-1.1224-0.1403-2.0343z" fill="#6d2b00" fill-rule="evenodd"/>
 <path d="m61.161 94.405c3.382 0.34612 9.8452 2.9698 10.146 5.4594 0 0-7.8856-4.2178-9.7388-3.5633-0.01303-0.51052-0.33502-0.96301-0.40705-1.8961z" fill="#6d2b00" fill-rule="evenodd"/>
 <path d="m58.633 108.4c3.6333 11.223 8.7041 20.946 14.462 29.544l3.6856-0.11199c-5.7377-9.208-11.725-19.603-15.151-30.811 0 0-2.0361 0.62409-2.9973 1.3792z" fill="url(#g)" fill-rule="evenodd"/>
 <path d="m56.051 104.88-0.25 10.25 9.3125-5.6875v1.4375l3.6875 0.3125-0.0625-1.9375 12.125 5.4375-1.25-12.062-10.688 5.4375-0.25-1.8125-3.75-0.25v1.9375l-8.875-3.0625z" fill="url(#h)" fill-rule="evenodd"/>
 <path d="m55.857 64.782-0.53718 2.5997c7.6667 2.2292 17.908 1.8772 26.762 0.91891-0.01858-0.35897-0.34967-2.5186-0.34967-2.5186-8.5208 0.875-19.417 0.8125-25.875-1z" fill="url(#i)" fill-rule="evenodd"/>
 <path d="m68.107 66.345c28.521 3.8333 23.479-13.396 1.5625-7.625-21.146-7.4583-26.229 9.8333-1.5625 7.625z" fill="url(#j)" fill-rule="evenodd"/>
 <path transform="translate(-38.331 1.5321)" d="m110.81 56.406a3.7188 1.6562 0 1 1 -7.4375 0 3.7188 1.6562 0 1 1 7.4375 0z" fill="url(#c)"/>
 <path d="m68.768 56.294c-1.8105 0-3.1378 0.61169-3.4692 1.375-12.881-2.7213-17.582 4.4843-9.5326 7.5625l-0.40631 2.0625c-2.9983 2.789-4.3925 6.2786-5.7196 8.6562 0.75133 0.26361 2.2208 0.49726 3.563 0.71875-1.0674 2.7114-1.719 5.6966-1.719 8.9062 0 4.4709 1.1842 8.5853 3.1567 11.969-0.84974 0.816-1.7115 1.6735-2.4066 2.4375 0 0 1.4578-0.77841 3.0004-1.5312 3.0276 4.6208 7.5974 7.6518 12.783 7.7812l-3.0942-0.21875v0.71875h-0.06251c-0.91622 0-1.8275 0.09897-2.6879 0.28125l-6.1259-2.125-0.12502 5.5312c-2.3294 2.3038-3.7818 5.4816-3.7818 9.0312v14.938c4.9576 2.4569 12.894 3.6115 20.94 3.5 0.01272 0.01902 0.01852 0.04349 0.03125 0.0625l3.688-0.09375-0.15627-0.25c0.4947-0.03182 0.97767-0.0828 1.469-0.125v0.25l3.4692-0.46875v-0.03125c4.1351-0.57877 8.022-1.4605 11.158-2.8438v-14.938c-1e-5 -7.0384-5.654-12.702-12.689-12.719l-0.43756-4.0938-8.0324 4.0938h-2.8442l-0.06251-0.46875h-0.21878c7.9263-0.05332 14.518-6.8162 16.284-15.875 3.1022 0.16238 5.3444-0.6616 8.5012-1.6875-5.4836-1.7206-4.734-13.318-11.22-20.375h0.06251c-0.01536-0.29686-0.20247-1.5738-0.28129-2.0938 10.992-2.3853 5.5386-10.841-9.6889-7.9062 0.08651-0.14007 0.37506-0.22274 0.37506-0.375 0-0.91425-1.6662-1.6562-3.7193-1.6562z" fill="url(#k)"/>
</svg>
