<?xml version="1.0" encoding="UTF-8"?>
<svg viewBox="0 0 140 190" xmlns="http://www.w3.org/2000/svg" xmlns:xlink="http://www.w3.org/1999/xlink">
 <defs>
  <linearGradient id="a">
   <stop stop-color="#f0a700" offset="0"/>
   <stop stop-color="#ffed00" offset="1"/>
  </linearGradient>
  <linearGradient id="b">
   <stop stop-color="#f0eb00" offset="0"/>
   <stop stop-color="#ff0" offset="1"/>
  </linearGradient>
  <linearGradient id="c">
   <stop stop-color="#0083cc" offset="0"/>
   <stop stop-color="#24a4cc" offset="1"/>
  </linearGradient>
  <linearGradient id="o" x1="356.44" x2="484.8" y1="437.5" y2="256.18" gradientTransform="matrix(.18682 0 0 .14486 74.301 109.48)" gradientUnits="userSpaceOnUse">
   <stop stop-color="#ffd8c1" offset="0"/>
   <stop stop-color="#ffeded" offset="1"/>
  </linearGradient>
  <linearGradient id="l" x1="139.72" x2="142.3" y1="172.98" y2="169.47" gradientUnits="userSpaceOnUse">
   <stop stop-color="#c10000" offset="0"/>
   <stop stop-color="#ff433e" offset="1"/>
  </linearGradient>
  <linearGradient id="h" x1="138.32" x2="152.39" y1="183.52" y2="178.09" gradientUnits="userSpaceOnUse">
   <stop stop-color="#008200" offset="0"/>
   <stop stop-color="#00d000" offset="1"/>
  </linearGradient>
  <linearGradient id="d" x1="652.3" x2="410.91" y1="77.395" y2="344.42" gradientTransform="matrix(.18685 0 0 .14486 74.296 109.49)" gradientUnits="userSpaceOnUse">
   <stop stop-color="#fff" offset="0"/>
   <stop stop-color="#fff" stop-opacity="0" offset="1"/>
  </linearGradient>
  <linearGradient id="n" x1="142.52" x2="164.3" y1="199.76" y2="181.65" gradientUnits="userSpaceOnUse" xlink:href="#c"/>
  <linearGradient id="m" x1="111.39" x2="136.65" y1="198.46" y2="177.03" gradientTransform="scale(1.2554 .79653)" gradientUnits="userSpaceOnUse" xlink:href="#a"/>
  <linearGradient id="k" x1="108.99" x2="112.7" y1="209.42" y2="205.04" gradientTransform="scale(1.2301 .81295)" gradientUnits="userSpaceOnUse" xlink:href="#a"/>
  <linearGradient id="j" x1="106.41" x2="109.26" y1="231.76" y2="228.15" gradientTransform="scale(1.3632 .73355)" gradientUnits="userSpaceOnUse" xlink:href="#a"/>
  <linearGradient id="i" x1="145.04" x2="149.19" y1="197.88" y2="194.69" gradientUnits="userSpaceOnUse" xlink:href="#b"/>
  <linearGradient id="g" x1="143.68" x2="152" y1="138.95" y2="136.52" gradientUnits="userSpaceOnUse" xlink:href="#b"/>
  <linearGradient id="f" x1="137.15" x2="160.79" y1="136.66" y2="131.42" gradientUnits="userSpaceOnUse" xlink:href="#c"/>
  <linearGradient id="e" x1="104.75" x2="109.5" y1="57.469" y2="55.781" gradientUnits="userSpaceOnUse" xlink:href="#b"/>
 </defs>
 <path d="m21 5h103c8.864 0 16 7.136 16 16v153c0 8.864-7.136 16-16 16h-103c-8.864 0-16-7.136-16-16v-153c0-8.864 7.136-16 16-16z" fill-opacity=".49804"/>
 <path d="m17 1h103c8.864 0 16 7.136 16 16v153c0 8.864-7.136 16-16 16h-103c-8.864 0-16-7.136-16-16v-153c0-8.864 7.136-16 16-16z" fill="#e7e7e7"/>
 <path d="m19 3h103c8.864 0 16 7.136 16 16v153c0 8.864-7.136 16-16 16h-103c-8.864 0-16-7.136-16-16v-153c0-8.864 7.136-16 16-16z" fill="#c7891f"/>
 <path d="m18 2h103c8.864 0 16 7.136 16 16v153c0 8.864-7.136 16-16 16h-103c-8.864 0-16-7.136-16-16v-153c0-8.864 7.136-16 16-16z" fill="#fff"/>
 <path d="m18.683 12.234h6.396v21.359c-1e-5 2.9471-0.84174 5.1495-2.5252 6.6073-1.6724 1.4577-4.2086 2.1866-7.6088 2.1866h-1.2958v-4.6108h0.99678c1.329 0 2.3314-0.35387 3.007-1.0616 0.68667-0.70773 1.03-1.7482 1.03-3.1214v-21.359" fill="#f00"/>
 <path d="m120 177h-6.396v-21.359c1e-5 -2.9471 0.84174-5.1496 2.5252-6.6073 1.6724-1.4577 4.2086-2.1866 7.6088-2.1866h1.2958v4.6108h-0.99678c-1.329 0-2.3314 0.35386-3.007 1.0616-0.68666 0.70774-1.03 1.7482-1.03 3.1214v21.359" fill="#f00"/>
 <path d="m20.41 48.665c-4.1258 8.2455-7.1342 12.498-13.34 17.04 5.8724 4.487 10.013 9.1245 13.46 16.62 3.0792-7.1212 6.8464-12.43 13.39-16.843-6.582-3.3489-10.393-8.6536-13.51-16.817z" fill="#f00" fill-rule="evenodd"/>
 <path d="m118.34 106.34c-4.1258 8.2455-7.1342 12.498-13.34 17.04 5.8724 4.487 10.013 9.1245 13.46 16.62 3.0792-7.1212 6.8464-12.43 13.39-16.843-6.582-3.3489-10.393-8.6536-13.51-16.817z" fill="#f00" fill-rule="evenodd"/>
 <g transform="translate(-79.637 -71.25)">
  <path d="m147.53 125.56c-5.972 3.7739-13.469-3.1652-17.453 4.8793-3.4954 4.7823 7.5297 6.1738 0.56963 10.424-4.7562 5.1244-4.4768 7.3804-0.36918 8.0077-1.1823 5.6637-0.32039 15.171 2.2741 20.355-3.2115 3.9032-0.80442 2.5624 3.5528 3.3761-1.3538 2.1545-0.57647 10.05-5.2073 12.489-2.3312 7.0215-0.58347 14.642-1.125 21.906 11.275 4.7482 24.625 5.2876 35.403 2.7547 4.7384-0.99042 10.145-1.3685 9.1908-8.1297 0.28361-8.4263 1.2826-19.518-7.91-23.83-5.3732-0.75269-7.1643-4.3877-3.0403-9.5494 3.0629-8.3581 6.4398-4.8611 11.143-6.9749 4.9011-1.3112-7.0014-4.5396-5.4296-9.9773-1.5227-4.2539-3.3837-9.2577-6.4299-12.711 7.6789-0.68963 8.502-8.6974 2.2601-10.332-6.1866-4.1223-9.8371 2.9138-14.545-2.3746-0.77934-0.0133-2.1022-0.50385-2.885-0.31289z"/>
  <path d="m164.87 156.82c0 11.413-7.5639 20.676-16.884 20.676s-16.884-9.263-16.884-20.676 7.5639-20.676 16.884-20.676 16.884 9.263 16.884 20.676z" fill="url(#o)"/>
  <path d="m144.48 177.98c-7.0491 0-12.725 5.6758-12.725 12.725v14.929c9.3799 4.6491 29.526 4.8938 40.619 0v-14.929c0-7.049-5.6758-12.725-12.725-12.725h-15.169z" fill="url(#n)"/>
  <path d="m129.28 147.19c2.5272-4.5286 5.0544-13.181 19.127-13.091 21.84 0.63989 16.63 23.382 24.451 25.836-4.8529 1.5773-7.2987 2.9285-14.541 0.43017 0.79167-5.699-0.49946-9.8788-3.9251-12.815-4.2689 2.2389-20.739 1.1746-25.112-0.35994z" fill="url(#m)" fill-rule="evenodd"/>
  <path transform="matrix(.14486 0 0 .0979 96.316 132.95)" d="m353 245.86c0 11.868-9.408 21.5-21 21.5s-21-9.632-21-21.5 9.408-21.5 21-21.5 21 9.632 21 21.5z" fill="#fff"/>
  <path transform="matrix(.08278 0 0 .08197 115.62 136.92)" d="m353 245.86c0 11.868-9.408 21.5-21 21.5s-21-9.632-21-21.5 9.408-21.5 21-21.5 21 9.632 21 21.5z" fill="#0f90cc"/>
  <path transform="matrix(.05173 0 0 .06603 125.28 140.98)" d="m353 245.86c0 11.868-9.408 21.5-21 21.5s-21-9.632-21-21.5 9.408-21.5 21-21.5 21 9.632 21 21.5z"/>
  <path transform="matrix(.14486 0 0 .0979 86.227 132.61)" d="m353 245.86c0 11.868-9.408 21.5-21 21.5s-21-9.632-21-21.5 9.408-21.5 21-21.5 21 9.632 21 21.5z" fill="#fff"/>
  <path transform="matrix(.08278 0 0 .08197 105.53 136.58)" d="m353 245.86c0 11.868-9.408 21.5-21 21.5s-21-9.632-21-21.5 9.408-21.5 21-21.5 21 9.632 21 21.5z" fill="#0f90cc"/>
  <path transform="matrix(.05173 0 0 .06603 115.19 140.64)" d="m353 245.86c0 11.868-9.408 21.5-21 21.5s-21-9.632-21-21.5 9.408-21.5 21-21.5 21 9.632 21 21.5z"/>
  <path d="m136.44 170.2c1.8485 3.6222 6.9003 1.9432 11.728 0-5.3239 0.55967-8.9926 0.96923-11.728 0z" fill="url(#l)" fill-rule="evenodd"/>
  <path d="m158.58 193.86 1.2636 0.12326 1.3714 14.513-3.4652 0.46578 0.83024-15.102z" fill="#004cb0"/>
  <path d="m138.64 158.15c-0.7919 1.2868-1.9449 3.4024-1.7806 4.3749s1.6524 0.76247 2.4423 1.3231l0.33085-0.47789c-0.69469-0.49301-1.7829-0.00801-1.918-0.80756s0.68108-2.9149 1.4217-4.1184l-0.49627-0.29408z" fill-rule="evenodd"/>
  <path d="m139.93 165.8c-3.8036 0.37778-6.1334 3.301-8.0614 5.4204 0 0 6.2375-3.4563 8.2017-3.3861-0.1403-0.49104 0.07015-1.1224-0.1403-2.0343z" fill="url(#k)" fill-rule="evenodd"/>
  <path d="m140.8 165.66c3.382 0.34612 9.8452 2.9698 10.146 5.4594 0 0-7.8856-4.2178-9.7388-3.5633-0.01303-0.51052-0.33502-0.96301-0.40705-1.8961z" fill="url(#j)" fill-rule="evenodd"/>
  <path d="m138.27 179.65c3.6333 11.223 8.7041 20.946 14.462 29.544l3.6856-0.11199c-5.7377-9.208-11.725-19.603-15.151-30.811 0 0-2.0361 0.62409-2.9973 1.3792z" fill="url(#i)" fill-rule="evenodd"/>
  <path d="m135.69 176.13-0.25 10.25 9.3125-5.6875v1.4375l3.6875 0.3125-0.0625-1.9375 12.125 5.4375-1.25-12.062-10.688 5.4375-0.25-1.8125-3.75-0.25v1.9375l-8.875-3.0625z" fill="url(#h)" fill-rule="evenodd"/>
  <path d="m135.49 136.03-0.53718 2.5997c7.6667 2.2292 17.908 1.8772 26.762 0.91891-0.01858-0.35897-0.34967-2.5186-0.34967-2.5186-8.5208 0.875-19.417 0.8125-25.875-1z" fill="url(#g)" fill-rule="evenodd"/>
  <path d="m147.74 137.59c28.521 3.8333 23.479-13.396 1.5625-7.625-21.146-7.4583-26.229 9.8333-1.5625 7.625z" fill="url(#f)" fill-rule="evenodd"/>
  <path transform="translate(41.306 72.782)" d="m110.81 56.406a3.7188 1.6562 0 1 1 -7.4375 0 3.7188 1.6562 0 1 1 7.4375 0z" fill="url(#e)"/>
  <path d="m148.4 127.54c-1.8105 0-3.1378 0.61168-3.4692 1.375-12.881-2.7213-17.582 4.4843-9.5326 7.5625l-0.40631 2.0625c-2.9983 2.789-4.3925 6.2786-5.7196 8.6562 0.75133 0.26361 2.2208 0.49726 3.563 0.71875-1.0674 2.7114-1.719 5.6966-1.719 8.9062 0 4.4709 1.1842 8.5853 3.1567 11.969-0.84974 0.816-1.7115 1.6735-2.4066 2.4375 0 0 1.4578-0.77841 3.0004-1.5312 3.0276 4.6208 7.5974 7.6518 12.783 7.7812l-3.0942-0.21875v0.71875h-0.06251c-0.91622 0-1.8275 0.09897-2.6879 0.28125l-6.1259-2.125-0.12502 5.5312c-2.3294 2.3038-3.7818 5.4816-3.7818 9.0312v14.938c4.9576 2.4569 12.894 3.6115 20.94 3.5 0.01272 0.01902 0.01852 0.04349 0.03125 0.0625l3.688-0.09375-0.15627-0.25c0.4947-0.03182 0.97767-0.0828 1.469-0.125v0.25l3.4692-0.46875v-0.03125c4.1351-0.57877 8.022-1.4605 11.158-2.8438v-14.938c-1e-5 -7.0384-5.654-12.702-12.689-12.719l-0.43756-4.0938-8.0324 4.0938h-2.8442l-0.06251-0.46875h-0.21878c7.9263-0.05332 14.518-6.8162 16.284-15.875 3.1022 0.16238 5.3444-0.6616 8.5012-1.6875-5.4836-1.7206-4.734-13.318-11.22-20.375h0.06251c-0.01536-0.29686-0.20247-1.5738-0.28129-2.0938 10.992-2.3853 5.5386-10.841-9.6889-7.9062 0.08651-0.14007 0.37506-0.22274 0.37506-0.375 0-0.91425-1.6662-1.6562-3.7193-1.6562z" fill="url(#d)"/>
 </g>
</svg>
