<?xml version="1.0" encoding="UTF-8"?>
<svg viewBox="0 0 140 190" xmlns="http://www.w3.org/2000/svg" xmlns:xlink="http://www.w3.org/1999/xlink">
 <defs>
  <linearGradient id="a">
   <stop stop-color="#f0eb00" offset="0"/>
   <stop stop-color="#ff0" offset="1"/>
  </linearGradient>
  <linearGradient id="j" x1="356.44" x2="484.8" y1="437.5" y2="256.18" gradientTransform="matrix(.18682 0 0 .14486 -49.32 316.05)" gradientUnits="userSpaceOnUse">
   <stop stop-color="#ffd8c1" offset="0"/>
   <stop stop-color="#ffeded" offset="1"/>
  </linearGradient>
  <linearGradient id="h" x1="16.386" x2="38.163" y1="404.99" y2="386.88" gradientUnits="userSpaceOnUse">
   <stop stop-color="#ff44ab" offset="0"/>
   <stop stop-color="#f6c" offset="1"/>
  </linearGradient>
  <linearGradient id="g" x1="16.097" x2="18.682" y1="379.55" y2="376.05" gradientUnits="userSpaceOnUse">
   <stop stop-color="#c10000" offset="0"/>
   <stop stop-color="#ff433e" offset="1"/>
  </linearGradient>
  <linearGradient id="f" x1="12.837" x2="40.373" y1="341.63" y2="334.47" gradientUnits="userSpaceOnUse">
   <stop stop-color="#f0a700" offset="0"/>
   <stop stop-color="#ffed00" offset="1"/>
  </linearGradient>
  <linearGradient id="b" x1="688.3" x2="361.5" y1="-31.93" y2="346.67" gradientTransform="matrix(.18682 0 0 .14486 -49.62 316.67)" gradientUnits="userSpaceOnUse">
   <stop stop-color="#fff" offset="0"/>
   <stop stop-color="#fff" stop-opacity="0" offset="1"/>
  </linearGradient>
  <linearGradient id="i" x1="6.1233" x2="12.59" y1="386.43" y2="385.28" gradientUnits="userSpaceOnUse" xlink:href="#a"/>
  <linearGradient id="e" x1="13.342" x2="41.096" y1="347.24" y2="339.9" gradientUnits="userSpaceOnUse" xlink:href="#a"/>
  <linearGradient id="d" x1="38.621" x2="41.408" y1="388.21" y2="386.44" gradientUnits="userSpaceOnUse" xlink:href="#a"/>
  <linearGradient id="c" x1="20.007" x2="27.292" y1="403.17" y2="397.34" gradientUnits="userSpaceOnUse" xlink:href="#a"/>
 </defs>
 <path d="m21 5h103c8.864 0 16 7.136 16 16v153c0 8.864-7.136 16-16 16h-103c-8.864 0-16-7.136-16-16v-153c0-8.864 7.136-16 16-16z" fill-opacity=".49804"/>
 <path d="m17 1h103c8.864 0 16 7.136 16 16v153c0 8.864-7.136 16-16 16h-103c-8.864 0-16-7.136-16-16v-153c0-8.864 7.136-16 16-16z" fill="#e7e7e7"/>
 <path d="m19 3h103c8.864 0 16 7.136 16 16v153c0 8.864-7.136 16-16 16h-103c-8.864 0-16-7.136-16-16v-153c0-8.864 7.136-16 16-16z" fill="#c7891f"/>
 <path d="m18 2h103c8.864 0 16 7.136 16 16v153c0 8.864-7.136 16-16 16h-103c-8.864 0-16-7.136-16-16v-153c0-8.864 7.136-16 16-16z" fill="#fff"/>
 <path d="m10.027 12.24h6.3962v10.951l9.2204-10.951h7.4262l-11.945 14.206 13.174 15.794h-8.0076l-9.8684-11.815v11.815h-6.3962v-30"/>
 <path d="m128.66 176.63h-6.3962v-10.951l-9.2204 10.951h-7.4262l11.945-14.206-13.174-15.794h8.0077l9.8683 11.815v-11.815h6.3962v30"/>
 <path d="m20.527 48.665c-2.6664 0-4.8299 3.2635-4.8299 7.2857 0 3.4266 4.3921 9.1917 4.2215 11.93-1.4102 0.78242-5.7673-6.4375-8.019-6.4375-2.6664 0-4.8299 3.2635-4.8299 7.2857s2.1635 7.2857 4.8299 7.2857c2.3125 0 6.2757-7.214 8.019-6.5627l-2.9289 12.874 7.0236-0.04171s-3.0769-12.481-3.0808-12.776h0.0553v0.01391c1.7073-0.63971 5.8059 6.6322 8.102 6.6322 2.6664 0 4.8299-3.2635 4.8299-7.2857s-2.1635-7.2857-4.8299-7.2857c-2.2426 0-6.3077 7.1005-8.0928 6.368 0.02508-2.8054 4.3598-8.5763 4.3598-11.999 0-4.0221-2.1635-7.2857-4.8299-7.2857z" fill-rule="evenodd"/>
 <path d="m117.42 139.96c2.6664 0 4.8299-3.2635 4.8299-7.2857 0-3.4266-4.3921-9.1917-4.2215-11.93 1.4102-0.78242 5.7673 6.4375 8.019 6.4375 2.6664 0 4.8299-3.2635 4.8299-7.2857s-2.1635-7.2857-4.8299-7.2857c-2.3125 0-6.2757 7.214-8.019 6.5627l2.9289-12.874-7.0236 0.04171s3.077 12.481 3.0808 12.776h-0.05531v-0.01391c-1.7073 0.63971-5.8059-6.6322-8.102-6.6322-2.6664 0-4.8299 3.2635-4.8299 7.2857s2.1635 7.2857 4.8299 7.2857c2.2426 0 6.3077-7.1005 8.0928-6.368-0.02508 2.8054-4.3598 8.5763-4.3598 11.999 0 4.0221 2.1635 7.2857 4.8299 7.2857z" fill-rule="evenodd"/>
 <g transform="matrix(1.0001 0 0 1 45.25 -276.25)">
  <path d="m22.869 329.59c-1.9842-1.6215-3.4181-2.6306-5.778-5.1187-1.766 7.1847-4.0023 6.1544-7.0279 3.6112-3.0185-3.0358-2.7811 11.103-8.6026-1.836-1.678 0.2303 1.7377 10.879 2.2012 15.019 3.4692 4.8944-2.0114 11.096-0.27571 14.598 5.7368-0.37639 0.64032 6.2262 2.3582 9.7604 0.37339 4.6799 2.0213 8.4565 2.6607 12.734 9.6958 4.4312-8.4196 7.463-4.2211 11.013 0.79456 3.2658-1.5587 9.1693-0.56012 13.581-0.71246 5.9994-0.62702 11.414 6.75 11.688 12.781 2.4794 25.817 2.3938 37.875-2.3438 0.13459-6.9874-0.09522-14.906-0.21875-21.344 3.1647-3.8642-7.8952-6.4984-10.38-9.9821 3.5274-4.3212 2.3103-12.724 9.4644-13.327 0.75941-6.259-1.4136-13.959-4.741-19.847 1.0703-7.6604 2.3427-15.295 3.0625-23-7.1696 14.794-4.2841-3.014-7.4509 4.0129-2.0507 2.3071-3.2983-0.73022-4.6039-0.61039-1.2964-5.8176-3.648 7.2447-5.3827-3.6525-2.2441 9.1411-2.8663-6.3017-4.4531 3.0722l-0.67655 1.9729z"/>
  <path d="m41.252 363.4c0 11.413-7.5639 20.676-16.884 20.676s-16.884-9.263-16.884-20.676 7.5639-20.676 16.884-20.676 16.884 9.263 16.884 20.676z" fill="url(#j)"/>
  <path d="m7.8733 389.54-2.0455-1.4268 6.7803-5.5303 1.5152 3.2071s-5.9189 4.0192-6.25 3.75z" fill="url(#i)" fill-rule="evenodd"/>
  <path d="m18.343 383.21c-7.0491 0-12.725 5.6758-12.725 12.725v14.929c9.3799 4.6491 29.526 4.8938 40.619 0v-14.929c0-7.049-5.6758-12.725-12.725-12.725h-15.169z" fill="url(#h)"/>
  <path d="m4.8299 354.1s1.698-14.375 20.612-14.41c19.976 0.81952 19.997 26.496 19.997 26.496-4.8529 1.5773-3.5051 3.2584-10.747 0.76005 0.79167-5.699-0.49946-9.8788-3.9251-12.815-4.2689 2.2389-21.564 1.5045-25.937-0.03006z" fill="#6d2b00" fill-rule="evenodd"/>
  <path transform="matrix(.14486 0 0 .0979 -27.305 339.53)" d="m353 245.86c0 11.868-9.408 21.5-21 21.5s-21-9.632-21-21.5 9.408-21.5 21-21.5 21 9.632 21 21.5z" fill="#fff"/>
  <path transform="matrix(.08278 0 0 .08197 -7.9974 343.49)" d="m353 245.86c0 11.868-9.408 21.5-21 21.5s-21-9.632-21-21.5 9.408-21.5 21-21.5 21 9.632 21 21.5z" fill="#b67870"/>
  <path transform="matrix(.05173 0 0 .06603 1.6563 347.56)" d="m353 245.86c0 11.868-9.408 21.5-21 21.5s-21-9.632-21-21.5 9.408-21.5 21-21.5 21 9.632 21 21.5z"/>
  <path transform="matrix(.14486 0 0 .0979 -37.393 339.18)" d="m353 245.86c0 11.868-9.408 21.5-21 21.5s-21-9.632-21-21.5 9.408-21.5 21-21.5 21 9.632 21 21.5z" fill="#fff"/>
  <path transform="matrix(.08278 0 0 .08197 -18.086 343.15)" d="m353 245.86c0 11.868-9.408 21.5-21 21.5s-21-9.632-21-21.5 9.408-21.5 21-21.5 21 9.632 21 21.5z" fill="#b67870"/>
  <path transform="matrix(.05173 0 0 .06603 -8.4322 347.22)" d="m353 245.86c0 11.868-9.408 21.5-21 21.5s-21-9.632-21-21.5 9.408-21.5 21-21.5 21 9.632 21 21.5z"/>
  <path d="m12.818 376.78c2.9203 0.13892 7.3022 0.33556 11.728 0-4.654-1.7178-7.9208-2.2461-11.728 0z" fill="url(#g)" fill-rule="evenodd"/>
  <path d="m32.441 399.09 1.2636 0.12326 1.3714 14.513-3.4652 0.2504 0.83024-14.886z" fill="#b30d95"/>
  <path d="m14.48 364.99c-0.7919 1.2868-1.9449 3.4024-1.7806 4.3749s1.6524 0.76247 2.4423 1.3231l0.33085-0.47789c-0.69469-0.49301-1.7829-0.00802-1.918-0.80757s0.68107-2.9149 1.4217-4.1184l-0.49627-0.29408z" fill-rule="evenodd"/>
  <path d="m16.216 377.57c1.104 2.3366-0.66812 2.3584-1.4582 2.7308-0.6143-0.46097-1.9296-1.8291-2.3377-2.7849-0.12841 5.3067 1.7245 8.2034 3.068 9.669s9.2824 2.5649 13.557 0 13.239-11.336 8.3623-18.518c-0.66766 0.46471-1.884 0.36324-2.744 0.19728 0.12214 1.5878-2.0187 6.1902-5.927 7.9001s-6.7232 2.1233-7.7523 3.6559c-2.0112 0.05948-3.1336-0.74848-2.2216-2.8323-0.49104 0.16096-2.0062-0.02066-2.5467-0.01816z" fill="#6d2b00" fill-rule="evenodd"/>
  <path d="m17.134 372.21s-7.0851 1.8239-7.506 3.0866 1.0522 2.7358 1.0522 2.7358 4.6298-3.8582 6.594-3.788c-0.1403-0.49104 0.07015-1.1224-0.1403-2.0343z" fill="#6d2b00" fill-rule="evenodd"/>
  <path d="m17.673 372.23s7.4085 0.11546 8.1878 1.1944-0.18555 2.9253-0.18555 2.9253-5.742-2.8781-7.5952-2.2236c-0.01304-0.51052-0.33503-0.96301-0.40705-1.8961z" fill="#6d2b00" fill-rule="evenodd"/>
  <path d="m6.4466 336.68 2.5884-6.6036 5.0884 6.9697 3.5732-8.7374 4.4571 8.5481s3.1313-8.8406 3.1313-8.164 3.2955 9.2247 3.2955 9.2247l3.75-8.1945 2.4901 8.1062 4.3028-7.0329 1.25 6.25v5s-27.5 1.25-30 0-4.0138-5.2216-3.9268-5.3661z" fill="url(#f)" fill-rule="evenodd"/>
  <path d="m7.155 348.22c10.076 2.3865 22.627 2.4749 33.146 0l2.3865-16.529-4.5962 6.5407-2.8284-7.4246-3.5355 7.2478-3.6239-8.3085-3.2704 8.2201-3.7123-8.0433-3.2704 8.7504-4.8614-7.6014-3.6239 7.8666-5.5685-6.8943s3.0936 15.822 3.3588 16.175z" fill="url(#e)" fill-rule="evenodd"/>
  <path d="m37.649 382.78c-0.6721 0.50967-2.9168 2.3865-2.9168 2.3865l9.3912 6.8732 2.5-2.5-8.9744-6.7597z" fill="url(#d)" fill-rule="evenodd"/>
  <path d="m23.533 399.85-6.9417-7.9478h17.405l-10.463 7.9478z" fill="#ff8900" fill-rule="evenodd"/>
  <path d="m21.258 394.01-2.7544 3.3964 3.9393 2.7526-4.2785 3.0644 2.8518 2.832 2.8935-4.9242 2.9904 4.8232 3.0429-3.2955-5-2.5 4.7223-3.2197-3.1187-2.7526-2.5485 4.9874-2.74-5.1642z" fill="url(#c)" fill-rule="evenodd"/>
  <path d="m17.386 328.92-2.5312 6.1875-2.1562-3.4062-1.25 2.7188-2.7188-3.7188-2.2188 5.6875-3-3.7188s3.0786 15.834 3.3438 16.188h0.03125c-1.9455 3.0954-2.3438 5.875-2.3438 5.875 0.86733 0.30435 2.506 0.5568 4.1875 0.78125-0.96612 2.6034-1.5312 5.4556-1.5312 8.5 0 4.2174 1.04 8.1349 2.8125 11.406-0.23986 0.17339-0.6341 0.3398-0.6875 0.5-0.42089 1.2627 1.0625 2.75 1.0625 2.75s0.78779-0.56256 1.1875-0.875c0.1986 0.27012 0.35268 0.58679 0.5625 0.84375 0.00387 2.651 0.5175 4.604 1.1875 6.125-0.07887 0.0314-0.17192 0.02958-0.25 0.0625l-0.75-1.625-6.7812 5.5312 1.8438 1.3125c-1.1847 1.9342-2.0625 4.0878-2.0625 6.5313v14.906c6.0124 2.98 16.36 3.9263 26 3.0938v0.03125l3.4375-0.25v-0.03125c4.1345-0.57877 8.0521-1.4605 11.188-2.8438v-14.906c0-1.7779-0.37817-3.4659-1.0312-5l1.4062-1.4062-8.9688-6.75c-0.23706 0.17977-0.57039 0.46615-1.0312 0.84375-0.93882-0.23512-1.9275-0.39146-2.9375-0.40625 2.438-2.5345 4.7098-5.7492 5.0625-9.125 0.92232-1.851 1.6198-3.8582 2.0312-6.0312 1.2543-0.27217 2.1273-1.0843 4.6562-1.9062 0 0-0.04063-10.27-5.125-18.031l2.375-16.438-2.625 3.75-0.9375-4.6562-2.375 3.9062-1.5-3.875-1.5938 3.25-1.3125-4.3438-2.1875 4.7812-2.0625-4.75-1.2812 3.2188c-0.76089-2.0638-1.5312-3.9672-1.5312-4.2812 0-0.46436-1.2309 3.027-2.1562 5.5938l-2-4.375-1.0938 2.875-2.3438-4.5z" fill="url(#b)"/>
 </g>
</svg>
