<?xml version="1.0" encoding="UTF-8"?>
<svg viewBox="0 0 140 190" xmlns="http://www.w3.org/2000/svg">
 <path d="m21 5h103c8.864 0 16 7.136 16 16v153c0 8.864-7.136 16-16 16h-103c-8.864 0-16-7.136-16-16v-153c0-8.864 7.136-16 16-16z" fill-opacity=".49804"/>
 <path d="m17 1h103c8.864 0 16 7.136 16 16v153c0 8.864-7.136 16-16 16h-103c-8.864 0-16-7.136-16-16v-153c0-8.864 7.136-16 16-16z" fill="#e7e7e7"/>
 <path d="m19 3h103c8.864 0 16 7.136 16 16v153c0 8.864-7.136 16-16 16h-103c-8.864 0-16-7.136-16-16v-153c0-8.864 7.136-16 16-16z" fill="#c7891f"/>
 <path d="m18 2h103c8.864 0 16 7.136 16 16v153c0 8.864-7.136 16-16 16h-103c-8.864 0-16-7.136-16-16v-153c0-8.864 7.136-16 16-16z" fill="#fff"/>
 <g transform="matrix(.59314 0 0 .23894 -85.412 49.256)">
  <path d="m260.18 149.6c-4.8362 19.241-19.676 52.006-10.275 62.122 5.7065 4.6568 8.4221-4.8759 9.5723-11.187h0.23038l-3.7898 31.836 8.7775-0.09375s-3.7812-30.602-3.7898-31.773h0.09215c0.92901 5.157 4.4542 15.833 8.3321 11.767 11.339-11.397-5.358-43.83-9.1499-62.671z" fill-rule="evenodd"/>
 </g>
 <g transform="matrix(.59314 0 0 .23894 -105.41 .48105)">
  <path d="m260.18 149.6c-4.8362 19.241-19.676 52.006-10.275 62.122 5.7065 4.6568 8.4221-4.8759 9.5723-11.187h0.23038l-3.7898 31.836 8.7775-0.09375s-3.7812-30.602-3.7898-31.773h0.09215c0.92901 5.157 4.4542 15.833 8.3321 11.767 11.339-11.397-5.358-43.83-9.1499-62.671z" fill-rule="evenodd"/>
 </g>
 <g transform="matrix(.59314 0 0 .23894 -64.27 .39884)">
  <path d="m260.18 149.6c-4.8362 19.241-19.676 52.006-10.275 62.122 5.7065 4.6568 8.4221-4.8759 9.5723-11.187h0.23038l-3.7898 31.836 8.7775-0.09375s-3.7812-30.602-3.7898-31.773h0.09215c0.92901 5.157 4.4542 15.833 8.3321 11.767 11.339-11.397-5.358-43.83-9.1499-62.671z" fill-rule="evenodd"/>
 </g>
 <g transform="matrix(.59314 0 0 .23894 -105.93 35.658)">
  <path d="m260.18 149.6c-4.8362 19.241-19.676 52.006-10.275 62.122 5.7065 4.6568 8.4221-4.8759 9.5723-11.187h0.23038l-3.7898 31.836 8.7775-0.09375s-3.7812-30.602-3.7898-31.773h0.09215c0.92901 5.157 4.4542 15.833 8.3321 11.767 11.339-11.397-5.358-43.83-9.1499-62.671z" fill-rule="evenodd"/>
 </g>
 <g transform="matrix(.59314 0 0 .23894 -65.973 34.483)">
  <path d="m260.18 149.6c-4.8362 19.241-19.676 52.006-10.275 62.122 5.7065 4.6568 8.4221-4.8759 9.5723-11.187h0.23038l-3.7898 31.836 8.7775-0.09375s-3.7812-30.602-3.7898-31.773h0.09215c0.92901 5.157 4.4542 15.833 8.3321 11.767 11.339-11.397-5.358-43.83-9.1499-62.671z" fill-rule="evenodd"/>
 </g>
 <g transform="matrix(-.59314 0 0 -.23894 202.53 155.13)">
  <path d="m260.18 149.6c-4.8362 19.241-19.676 52.006-10.275 62.122 5.7065 4.6568 8.4221-4.8759 9.5723-11.187h0.23038l-3.7898 31.836 8.7775-0.09375s-3.7812-30.602-3.7898-31.773h0.09215c0.92901 5.157 4.4542 15.833 8.3321 11.767 11.339-11.397-5.358-43.83-9.1499-62.671z" fill-rule="evenodd"/>
 </g>
 <g transform="matrix(-.59314 0 0 -.23894 244.2 155.21)">
  <path d="m260.18 149.6c-4.8362 19.241-19.676 52.006-10.275 62.122 5.7065 4.6568 8.4221-4.8759 9.5723-11.187h0.23038l-3.7898 31.836 8.7775-0.09375s-3.7812-30.602-3.7898-31.773h0.09215c0.92901 5.157 4.4542 15.833 8.3321 11.767 11.339-11.397-5.358-43.83-9.1499-62.671z" fill-rule="evenodd"/>
 </g>
 <g transform="matrix(-.59314 0 0 -.23894 244.84 185.77)">
  <path d="m260.18 149.6c-4.8362 19.241-19.676 52.006-10.275 62.122 5.7065 4.6568 8.4221-4.8759 9.5723-11.187h0.23038l-3.7898 31.836 8.7775-0.09375s-3.7812-30.602-3.7898-31.773h0.09215c0.92901 5.157 4.4542 15.833 8.3321 11.767 11.339-11.397-5.358-43.83-9.1499-62.671z" fill-rule="evenodd"/>
 </g>
 <g transform="matrix(-.59314 0 0 -.23894 203.71 185.77)">
  <path d="m260.18 149.6c-4.8362 19.241-19.676 52.006-10.275 62.122 5.7065 4.6568 8.4221-4.8759 9.5723-11.187h0.23038l-3.7898 31.836 8.7775-0.09375s-3.7812-30.602-3.7898-31.773h0.09215c0.92901 5.157 4.4542 15.833 8.3321 11.767 11.339-11.397-5.358-43.83-9.1499-62.671z" fill-rule="evenodd"/>
 </g>
 <path d="m20.645 48.665c-4.9243 7.8247-20.035 21.149-10.462 25.263 5.8105 1.8937 8.5757-1.9828 9.7468-4.5494h0.23458l-3.8588 12.946 8.9375-0.03813s-3.8501-12.445-3.8589-12.921h0.09384c0.94594 2.0972 4.5354 6.4387 8.484 4.7853 11.546-4.6349-5.4557-17.824-9.3168-25.486z" fill-rule="evenodd"/>
 <path d="m12.164 41.575v-5.5458c1.0189 0.57603 1.9936 1.0114 2.9239 1.3061 0.93033 0.28131 1.8496 0.42197 2.7578 0.42196 1.905 1e-5 3.3891-0.63629 4.4524-1.9089 1.0632-1.286 1.689-3.1882 1.8773-5.7066-0.75315 0.66979-1.5561 1.1721-2.4089 1.507s-1.7776 0.50235-2.7744 0.50234c-2.5363 1e-5 -4.5852-0.8908-6.1469-2.6724-1.5506-1.795-2.3258-4.1526-2.3258-7.0729 0-3.2284 0.86389-5.8137 2.5917-7.7561 1.7388-1.9424 4.0647-2.9135 6.9776-2.9136 3.234 3e-5 5.7371 1.3195 7.5092 3.9584s2.6581 6.3697 2.6581 11.192c-2e-5 4.9564-1.0356 8.8546-3.1067 11.694-2.0711 2.8265-4.912 4.2397-8.5226 4.2397-1.1629 0-2.276-0.10716-3.3393-0.32149-1.0632-0.20093-2.1044-0.50904-3.1233-0.9243m7.8913-14.447c1.1186 1e-5 1.9604-0.43534 2.5252-1.3061 0.56484-0.8841 0.84726-2.2036 0.84728-3.9584-2e-5 -1.7414-0.28244-3.0542-0.84728-3.9383s-1.4066-1.3262-2.5252-1.3262-1.9604 0.44208-2.5252 1.3262-0.84729 2.1969-0.84728 3.9383c-1e-5 1.7549 0.28241 3.0743 0.84728 3.9584 0.56484 0.87074 1.4066 1.3061 2.5252 1.3061" fill="#0c0c0c"/>
 <path d="m118.04 140c4.9243-7.8247 20.035-21.149 10.462-25.263-5.8105-1.8937-8.5757 1.9828-9.7468 4.5494h-0.23458l3.8588-12.946-8.9375 0.03813s3.8501 12.445 3.8589 12.921h-0.09383c-0.94595-2.0972-4.5354-6.4387-8.484-4.7853-11.546 4.6349 5.4557 17.824 9.3168 25.486z" fill-rule="evenodd"/>
 <path d="m126.52 147.59v5.5458c-1.0189-0.57602-1.9936-1.0114-2.9239-1.3061-0.93034-0.28132-1.8496-0.42197-2.7578-0.42197-1.905 0-3.3891 0.6363-4.4523 1.9089-1.0632 1.286-1.689 3.1882-1.8773 5.7066 0.75315-0.66979 1.5561-1.1721 2.4089-1.507s1.7776-0.50235 2.7744-0.50234c2.5363-1e-5 4.5853 0.8908 6.1469 2.6724 1.5506 1.795 2.3259 4.1526 2.3258 7.0729 1e-5 3.2284-0.86388 5.8137-2.5917 7.7561-1.7388 1.9424-4.0647 2.9135-6.9776 2.9136-3.234-3e-5 -5.7371-1.3195-7.5092-3.9584s-2.6581-6.3697-2.6581-11.192c3e-5 -4.9564 1.0356-8.8546 3.1067-11.694 2.0711-2.8265 4.912-4.2397 8.5226-4.2397 1.1629 0 2.276 0.10716 3.3393 0.32149 1.0632 0.20094 2.1043 0.50904 3.1233 0.92431m-7.8913 14.447c-1.1186-2e-5 -1.9604 0.43534-2.5252 1.3061-0.56484 0.8841-0.84726 2.2036-0.84728 3.9584 2e-5 1.7414 0.28244 3.0542 0.84728 3.9383s1.4066 1.3262 2.5252 1.3262 1.9604-0.44208 2.5252-1.3262 0.84728-2.1969 0.84728-3.9383c0-1.7549-0.28242-3.0743-0.84728-3.9584-0.56485-0.87074-1.4066-1.3061-2.5252-1.3061" fill="#0c0c0c"/>
</svg>
