<?xml version="1.0" encoding="UTF-8"?>
<svg viewBox="0 0 140 190" xmlns="http://www.w3.org/2000/svg">
 <path d="m21 5h103c8.864 0 16 7.136 16 16v153c0 8.864-7.136 16-16 16h-103c-8.864 0-16-7.136-16-16v-153c0-8.864 7.136-16 16-16z" fill-opacity=".49804"/>
 <path d="m17 1h103c8.864 0 16 7.136 16 16v153c0 8.864-7.136 16-16 16h-103c-8.864 0-16-7.136-16-16v-153c0-8.864 7.136-16 16-16z" fill="#e7e7e7"/>
 <path d="m19 3h103c8.864 0 16 7.136 16 16v153c0 8.864-7.136 16-16 16h-103c-8.864 0-16-7.136-16-16v-153c0-8.864 7.136-16 16-16z" fill="#c7891f"/>
 <path d="m18 2h103c8.864 0 16 7.136 16 16v153c0 8.864-7.136 16-16 16h-103c-8.864 0-16-7.136-16-16v-153c0-8.864 7.136-16 16-16z" fill="#fff"/>
 <path d="m12.404 41.335v-5.5458c1.0189 0.57602 1.9936 1.0114 2.9239 1.3061 0.93034 0.28131 1.8496 0.42197 2.7578 0.42197 1.905 0 3.3891-0.63629 4.4524-1.9089 1.0632-1.286 1.689-3.1882 1.8773-5.7066-0.75315 0.6698-1.5561 1.1721-2.4089 1.507s-1.7776 0.50235-2.7744 0.50234c-2.5363 1e-5 -4.5853-0.8908-6.1469-2.6724-1.5506-1.795-2.3259-4.1526-2.3259-7.0729 0-3.2283 0.86389-5.8137 2.5917-7.7561 1.7388-1.9424 4.0647-2.9135 6.9776-2.9136 3.234 3e-5 5.7371 1.3195 7.5092 3.9584s2.6581 6.3697 2.6581 11.192c-2e-5 4.9564-1.0356 8.8546-3.1067 11.694-2.0711 2.8265-4.912 4.2397-8.5226 4.2397-1.1629 0-2.276-0.10717-3.3393-0.3215-1.0632-0.20094-2.1044-0.50904-3.1233-0.9243m7.8913-14.447c1.1186 2e-5 1.9604-0.43535 2.5252-1.3061 0.56484-0.8841 0.84726-2.2036 0.84728-3.9584-2e-5 -1.7414-0.28244-3.0542-0.84728-3.9383s-1.4066-1.3262-2.5252-1.3262-1.9604 0.44208-2.5252 1.3262-0.84728 2.1969-0.84727 3.9383c-1e-5 1.7549 0.28242 3.0743 0.84727 3.9584 0.56484 0.87074 1.4066 1.3061 2.5252 1.3061" fill="#f00"/>
 <g fill="#f00">
  <path transform="matrix(.31657 0 0 .41973 -33.049 -16.808)" d="m147.21 156.42c-2.5357 0.01275-5.3218 0.48209-8.4062 1.5312-33.623 19.537 11.705 51.041 30.844 78.094l0.55251 0.13831c21.033-29.569 61.072-62.108 30.479-78.232-24.237-8.244-30.711 19.198-30.938 20.188-0.19739-0.86352-5.1424-21.806-22.531-21.719z" fill-rule="evenodd"/>
 </g>
 <path d="m126.46 147.67v5.5458c-1.0189-0.57602-1.9936-1.0114-2.9239-1.3061-0.93033-0.28132-1.8496-0.42197-2.7578-0.42197-1.905 0-3.3891 0.63629-4.4524 1.9089-1.0632 1.286-1.689 3.1882-1.8773 5.7066 0.75315-0.6698 1.5561-1.1721 2.4089-1.507s1.7776-0.50234 2.7744-0.50233c2.5363-1e-5 4.5853 0.8908 6.1469 2.6724 1.5506 1.795 2.3258 4.1527 2.3258 7.0729 0 3.2283-0.86389 5.8137-2.5917 7.7561-1.7388 1.9424-4.0647 2.9135-6.9776 2.9136-3.234-3e-5 -5.7371-1.3195-7.5092-3.9584s-2.6581-6.3697-2.6581-11.192c1e-5 -4.9564 1.0356-8.8546 3.1067-11.694 2.0711-2.8265 4.912-4.2397 8.5226-4.2397 1.1629 0 2.276 0.10716 3.3393 0.32149 1.0632 0.20094 2.1044 0.50904 3.1233 0.9243m-7.8913 14.447c-1.1186-1e-5 -1.9604 0.43534-2.5252 1.3061-0.56484 0.8841-0.84726 2.2036-0.84728 3.9584 2e-5 1.7414 0.28244 3.0542 0.84728 3.9384s1.4066 1.3261 2.5252 1.3262 1.9604-0.44208 2.5252-1.3262 0.84729-2.1969 0.84728-3.9384c1e-5 -1.7548-0.28242-3.0743-0.84728-3.9584-0.56483-0.87074-1.4066-1.3061-2.5252-1.3061" fill="#f00"/>
 <g fill="#f00">
  <path transform="matrix(-.31657 0 0 -.41973 171.91 205.65)" d="m147.21 156.42c-2.5357 0.01275-5.3218 0.48209-8.4062 1.5312-33.623 19.537 11.705 51.041 30.844 78.094l0.55251 0.13831c21.033-29.569 61.072-62.108 30.479-78.232-24.237-8.244-30.711 19.198-30.938 20.188-0.19739-0.86352-5.1424-21.806-22.531-21.719z" fill-rule="evenodd"/>
 </g>
 <g transform="translate(352.5 189.5)" fill="#f00">
  <path transform="matrix(.18388 0 0 .24795 -315.44 -143.06)" d="m147.21 156.42c-2.5357 0.01275-5.3218 0.48209-8.4062 1.5312-33.623 19.537 11.705 51.041 30.844 78.094l0.55251 0.13831c21.033-29.569 61.072-62.108 30.479-78.232-24.237-8.244-30.711 19.198-30.938 20.188-0.19739-0.86352-5.1424-21.806-22.531-21.719z" fill-rule="evenodd"/>
  <path transform="matrix(.18388 0 0 .24795 -335.44 -188.06)" d="m147.21 156.42c-2.5357 0.01275-5.3218 0.48209-8.4062 1.5312-33.623 19.537 11.705 51.041 30.844 78.094l0.55251 0.13831c21.033-29.569 61.072-62.108 30.479-78.232-24.237-8.244-30.711 19.198-30.938 20.188-0.19739-0.86352-5.1424-21.806-22.531-21.719z" fill-rule="evenodd"/>
  <path transform="matrix(.18388 0 0 .24795 -296.44 -188.28)" d="m147.21 156.42c-2.5357 0.01275-5.3218 0.48209-8.4062 1.5312-33.623 19.537 11.705 51.041 30.844 78.094l0.55251 0.13831c21.033-29.569 61.072-62.108 30.479-78.232-24.237-8.244-30.711 19.198-30.938 20.188-0.19739-0.86352-5.1424-21.806-22.531-21.719z" fill-rule="evenodd"/>
  <path transform="matrix(.18388 0 0 .24795 -334.8 -157.06)" d="m147.21 156.42c-2.5357 0.01275-5.3218 0.48209-8.4062 1.5312-33.623 19.537 11.705 51.041 30.844 78.094l0.55251 0.13831c21.033-29.569 61.072-62.108 30.479-78.232-24.237-8.244-30.711 19.198-30.938 20.188-0.19739-0.86352-5.1424-21.806-22.531-21.719z" fill-rule="evenodd"/>
  <path transform="matrix(.18388 0 0 .24795 -295.44 -158.06)" d="m147.21 156.42c-2.5357 0.01275-5.3218 0.48209-8.4062 1.5312-33.623 19.537 11.705 51.041 30.844 78.094l0.55251 0.13831c21.033-29.569 61.072-62.108 30.479-78.232-24.237-8.244-30.711 19.198-30.938 20.188-0.19739-0.86352-5.1424-21.806-22.531-21.719z" fill-rule="evenodd"/>
  <path transform="matrix(-.18388 0 0 -.24795 -272.2 -30.939)" d="m147.21 156.42c-2.5357 0.01275-5.3218 0.48209-8.4062 1.5312-33.623 19.537 11.705 51.041 30.844 78.094l0.55251 0.13831c21.033-29.569 61.072-62.108 30.479-78.232-24.237-8.244-30.711 19.198-30.938 20.188-0.19739-0.86352-5.1424-21.806-22.531-21.719z" fill-rule="evenodd"/>
  <path transform="matrix(-.18388 0 0 -.24795 -271.56 -3.9392)" d="m147.21 156.42c-2.5357 0.01275-5.3218 0.48209-8.4062 1.5312-33.623 19.537 11.705 51.041 30.844 78.094l0.55251 0.13831c21.033-29.569 61.072-62.108 30.479-78.232-24.237-8.244-30.711 19.198-30.938 20.188-0.19739-0.86352-5.1424-21.806-22.531-21.719z" fill-rule="evenodd"/>
  <path transform="matrix(-.18388 0 0 -.24795 -234.2 -3.9392)" d="m147.21 156.42c-2.5357 0.01275-5.3218 0.48209-8.4062 1.5312-33.623 19.537 11.705 51.041 30.844 78.094l0.55251 0.13831c21.033-29.569 61.072-62.108 30.479-78.232-24.237-8.244-30.711 19.198-30.938 20.188-0.19739-0.86352-5.1424-21.806-22.531-21.719z" fill-rule="evenodd"/>
  <path transform="matrix(-.18388 0 0 -.24795 -232.56 -31.719)" d="m147.21 156.42c-2.5357 0.01275-5.3218 0.48209-8.4062 1.5312-33.623 19.537 11.705 51.041 30.844 78.094l0.55251 0.13831c21.033-29.569 61.072-62.108 30.479-78.232-24.237-8.244-30.711 19.198-30.938 20.188-0.19739-0.86352-5.1424-21.806-22.531-21.719z" fill-rule="evenodd"/>
 </g>
</svg>
