<?xml version="1.0" encoding="UTF-8"?>
<svg viewBox="0 0 140 190" xmlns="http://www.w3.org/2000/svg" xmlns:xlink="http://www.w3.org/1999/xlink">
 <defs>
  <linearGradient id="a">
   <stop stop-color="#f0a700" offset="0"/>
   <stop stop-color="#ffed00" offset="1"/>
  </linearGradient>
  <linearGradient id="b">
   <stop stop-color="#ffd8c1" offset="0"/>
   <stop stop-color="#ffeded" offset="1"/>
  </linearGradient>
  <linearGradient id="i" x1="80.794" x2="102.57" y1="199.47" y2="181.37" gradientUnits="userSpaceOnUse">
   <stop stop-color="#0083cc" offset="0"/>
   <stop stop-color="#24a4cc" offset="1"/>
  </linearGradient>
  <linearGradient id="f" x1="653" x2="708" y1="210.36" y2="160.36" gradientUnits="userSpaceOnUse">
   <stop stop-color="#f0eb00" offset="0"/>
   <stop stop-color="#ff0" offset="1"/>
  </linearGradient>
  <linearGradient id="e" x1="77.505" x2="80.09" y1="170.69" y2="167.19" gradientUnits="userSpaceOnUse">
   <stop stop-color="#c10000" offset="0"/>
   <stop stop-color="#ff433e" offset="1"/>
  </linearGradient>
  <linearGradient id="c" x1="159.67" x2="79.528" y1="102.5" y2="154.32" gradientUnits="userSpaceOnUse">
   <stop stop-color="#fff" offset="0"/>
   <stop stop-color="#fff" stop-opacity="0" offset="1"/>
  </linearGradient>
  <linearGradient id="j" x1="356.44" x2="484.8" y1="437.5" y2="256.18" gradientTransform="matrix(.18682 0 0 .14486 12.089 108.53)" gradientUnits="userSpaceOnUse" xlink:href="#b"/>
  <linearGradient id="h" x1="74.021" x2="116.13" y1="182.17" y2="143.66" gradientTransform="scale(1.0757 .92964)" gradientUnits="userSpaceOnUse" xlink:href="#a"/>
  <linearGradient id="g" x1="632" x2="698" y1="146.36" y2="85.362" gradientUnits="userSpaceOnUse" xlink:href="#a"/>
  <linearGradient id="d" x1="77.565" x2="90.238" y1="187.68" y2="178.49" gradientUnits="userSpaceOnUse" xlink:href="#b"/>
 </defs>
 <path d="m21 5h103c8.864 0 16 7.136 16 16v153c0 8.864-7.136 16-16 16h-103c-8.864 0-16-7.136-16-16v-153c0-8.864 7.136-16 16-16z" fill-opacity=".49804"/>
 <path d="m17 1h103c8.864 0 16 7.136 16 16v153c0 8.864-7.136 16-16 16h-103c-8.864 0-16-7.136-16-16v-153c0-8.864 7.136-16 16-16z" fill="#e7e7e7"/>
 <path d="m19 3h103c8.864 0 16 7.136 16 16v153c0 8.864-7.136 16-16 16h-103c-8.864 0-16-7.136-16-16v-153c0-8.864 7.136-16 16-16z" fill="#c7891f"/>
 <path d="m18 2h103c8.864 0 16 7.136 16 16v153c0 8.864-7.136 16-16 16h-103c-8.864 0-16-7.136-16-16v-153c0-8.864 7.136-16 16-16z" fill="#fff"/>
 <path d="m22.289 42.783h-0.4984c-4.0869 0-7.2656-1.3664-9.5361-4.0991s-3.4057-6.5371-3.4057-11.413c0-4.8627 1.1297-8.6738 3.3891-11.433 2.2705-2.7595 5.3938-4.1393 9.3699-4.1393 4.0204 3e-5 7.1493 1.3664 9.3866 4.0991 2.2483 2.7328 3.3725 6.5573 3.3725 11.474-3e-5 3.3758-0.59811 6.2826-1.7942 8.7207-1.1851 2.438-2.8963 4.2733-5.1335 5.5057l5.0006 6.7515h-6.0971l-4.0537-5.4655m-0.68115-25.479c-1.9493 3e-5 -3.4611 0.87075-4.5354 2.6122s-1.6115 4.1929-1.6115 7.3543c-1e-5 3.215 0.52608 5.6798 1.5783 7.3945 1.0522 1.7013 2.5751 2.5519 4.5687 2.5519 1.9604 0 3.4777-0.87072 4.5521-2.6122s1.6115-4.1862 1.6115-7.3342c-2e-5 -3.1614-0.53719-5.6128-1.6115-7.3543s-2.5917-2.6122-4.5521-2.6122" fill="#f00"/>
 <path d="m116.9 146.09h0.4984c4.0869 0 7.2656 1.3664 9.5361 4.0991s3.4058 6.5372 3.4057 11.413c1e-5 4.8627-1.1297 8.6738-3.3891 11.433-2.2705 2.7595-5.3938 4.1393-9.37 4.1393-4.0204-3e-5 -7.1493-1.3664-9.3866-4.0991-2.2483-2.7328-3.3725-6.5573-3.3725-11.474 3e-5 -3.3758 0.59811-6.2826 1.7942-8.7207 1.1851-2.438 2.8963-4.2733 5.1335-5.5057l-5.0006-6.7515h6.0971l4.0537 5.4655m0.68114 25.479c1.9493-2e-5 3.4611-0.87075 4.5355-2.6122s1.6115-4.1929 1.6115-7.3543c1e-5 -3.215-0.52608-5.6798-1.5783-7.3945-1.0522-1.7013-2.5751-2.5519-4.5687-2.5519-1.9604 0-3.4777 0.87073-4.5521 2.6122s-1.6115 4.1862-1.6115 7.3342c1e-5 3.1614 0.53718 5.6128 1.6115 7.3543s2.5917 2.6122 4.5521 2.6122" fill="#f00"/>
 <path d="m20.66 48.665c-4.1258 8.2455-7.1342 12.498-13.34 17.04 5.8724 4.487 10.013 9.1245 13.46 16.62 3.0792-7.1212 6.8464-12.43 13.39-16.843-6.582-3.3489-10.393-8.6536-13.51-16.817z" fill="#f00" fill-rule="evenodd"/>
 <path d="m118.59 106.34c-4.1258 8.2455-7.1342 12.498-13.34 17.04 5.8724 4.487 10.013 9.1245 13.46 16.62 3.0792-7.1212 6.8464-12.43 13.39-16.843-6.582-3.3489-10.393-8.6536-13.51-16.817z" fill="#f00" fill-rule="evenodd"/>
 <g transform="translate(-22.25 -70.697)">
  <path d="m78.088 116.75c0.24877 8.3892-8.7744-11.842-4.9499 1.0178-0.17772 4.9454 5.745 12.646 1.6435 15.655-5.4893 3.2014-9.4148 8.6823-11.281 14.719 6.7237-0.95439 2.7831 4.8072 3.4887 8.9028 0.20578 7.7494 5.8018 16.133 12.775 19.897-8.4661 1.6323-11.54 8.8847-10.669 15.893-5.6938 3.8243-0.00893 8.9838-0.85061 12.525 1.6202 3.9894 8.9399 3.7634 13.069 4.9375 10.521 0.87167 21.44 0.54476 31.344-3.5-0.82413-9.4244 4.2372-22.266-8.2889-28.644 6.224-0.11589 14.098-1.5705 20.133-2.8872-6.8644-2.7082-18.925-5.578-16.759-15.308 1.5344-11.465-2.2727-26.823-15.428-28.974 1.0283-6.3222 2.5488-12.59 2.5-19.031-5.6776 14.511-4.5466-8.8204-7.2188 1.2179-2.0539 7.8029-3.5223-10.376-5.1814 2.9775-1.9734-2.1838-3.7016-14.038-3.8518-2.2755l-0.47279 2.8758z"/>
  <path d="m102.66 155.88c0 11.413-7.5639 20.676-16.884 20.676s-16.884-9.263-16.884-20.676 7.5639-20.676 16.884-20.676 16.884 9.263 16.884 20.676z" fill="url(#j)"/>
  <path d="m82.737 177.71c-7.0491 0-12.719 5.6697-12.719 12.719v3.1875c-1.1777 1.8335-2.3328 3.5535-2.0938 4.9688 0.17641 1.0443 1.0929 1.8923 2.0938 2.625v4.125c9.3799 4.6491 29.532 4.8938 40.625 0v-14.906c0-7.049-5.6697-12.719-12.719-12.719h-15.188z" fill="url(#i)"/>
  <path d="m66.238 146.58s3.8964-14.131 20.612-14.41c16.434-0.27971 20.82 13.882 18.967 29.832-1.7128 8.5014 11.901 12.785 11.901 12.785-4.8529 1.5773-16.452 3.0141-23.694 0.51577 6.2878-4.7219 1.0465-27.348-2.3791-30.284-4.2689 3.3879-21.033 3.0955-25.406 1.5609z" fill="url(#h)" fill-rule="evenodd"/>
  <path transform="matrix(.14486 0 0 .14486 34.302 119.65)" d="m353 245.86c0 11.868-9.408 21.5-21 21.5s-21-9.632-21-21.5 9.408-21.5 21-21.5 21 9.632 21 21.5z" fill="#fff"/>
  <path transform="matrix(.08278 0 0 .12128 53.609 125.52)" d="m353 245.86c0 11.868-9.408 21.5-21 21.5s-21-9.632-21-21.5 9.408-21.5 21-21.5 21 9.632 21 21.5z" fill="#0f90cc"/>
  <path transform="matrix(.05173 0 0 .09769 63.263 131.54)" d="m353 245.86c0 11.868-9.408 21.5-21 21.5s-21-9.632-21-21.5 9.408-21.5 21-21.5 21 9.632 21 21.5z"/>
  <g transform="matrix(.1198 0 0 .097053 4.5969 112.88)" fill-rule="evenodd">
   <path d="m618 99.362 10-85 38 115s34-123 34-119 23 91 23 91l-18 70h-77l-10-72z" fill="url(#g)"/>
   <path d="m589 51.362 36 179c27 10.667 60 9.3333 84 1l25-178-44 89-23-119-23 118-55-90z" fill="url(#f)"/>
  </g>
  <path transform="matrix(.14486 0 0 .14486 24.214 119.15)" d="m353 245.86c0 11.868-9.408 21.5-21 21.5s-21-9.632-21-21.5 9.408-21.5 21-21.5 21 9.632 21 21.5z" fill="#fff"/>
  <path transform="matrix(.08278 0 0 .12128 43.521 125.02)" d="m353 245.86c0 11.868-9.408 21.5-21 21.5s-21-9.632-21-21.5 9.408-21.5 21-21.5 21 9.632 21 21.5z" fill="#0f90cc"/>
  <path transform="matrix(.05173 0 0 .09769 53.175 131.04)" d="m353 245.86c0 11.868-9.408 21.5-21 21.5s-21-9.632-21-21.5 9.408-21.5 21-21.5 21 9.632 21 21.5z"/>
  <path d="m74.226 167.92c3.531 4.4137 6.9358 2.9004 11.728 0-4.2876-0.25221-7.188-1.5133-11.728 0z" fill="url(#e)" fill-rule="evenodd"/>
  <path d="m96.849 193.57 1.2636 0.12326 1.3714 14.513-3.4652 0.2504 0.83024-14.886z" fill="#004cb0"/>
  <path d="m80.219 199.02-0.8125 0.5625c2.0435 2.961 3.7414 5.674 5.8872 6.0572s4.6729-1.5504 6.7066-2.4634l-0.40625-0.90625c-1.9562 0.87828-3.8435 1.423-5.6875 1.0938s-3.7412-1.5236-5.6875-4.3438z" fill="#004cb0" fill-rule="evenodd"/>
  <path d="m75.888 157.47c-0.7919 1.2868-1.7344 2.4905-1.5702 3.4629s1.4419 1.6744 2.2319 2.235l0.33085-0.47789c-0.69469-0.49301-1.1516-1.1304-1.2866-1.93s0.04973-1.7925 0.79036-2.996l-0.49627-0.29408z" fill-rule="evenodd"/>
  <path d="m80.724 178.25s-6.3178 11.774-4.882 20.389c5.4563-9.7639 12.636-19.241 16.656-20.964-1.4359-0.57435-10.338-0.28718-11.774 0.57435z" fill="url(#d)" fill-rule="evenodd"/>
  <path d="m67.836 198.51c0.27928 1.6533 2.4515 2.8468 3.7946 3.7999l0.32637-0.26906c-1.1811-0.83819-1.7639-0.95624-1.9935-2.3156s-2.4067-2.8686-2.1274-1.2152z" fill="#004cb0" fill-rule="evenodd"/>
  <path d="m88.469 113.9c0-0.24209-1.37 3.7271-2.5625 7.1875l-1.4062-5.9375-1.5938 6.6562-3.0625-7.5312-1.2188 8.1875-3.4688-4.5938 3.9062 15.781c-10.096 3.5956-12.812 12.938-12.812 12.938 0.88934 0.31208 2.5137 0.52992 4.2188 0.71875-0.98259 2.6216-1.5625 5.5219-1.5625 8.5938 0 11.413 7.5552 20.656 16.875 20.656 3.864 0 7.3724-1.6662 10.219-4.3438-0.46693 1.3041-1.0663 2.4161-1.9688 3.0938 7.242 2.4983 18.835 1.0773 23.688-0.5 0 0-13.619-4.3111-11.906-12.813 1.722-14.82-2.0708-27.917-15.781-29.5l2.5-14.438-1.8438 3c-0.68391-2.1069-2.2188-6.8412-2.2188-7.1562zm-5.7188 63.813c-7.049 0-12.719 5.6697-12.719 12.719v3.1875c-1.1777 1.8335-2.3328 3.5535-2.0938 4.9688 0.17641 1.0443 1.0929 1.8923 2.0938 2.625v4.1562c6.0121 2.9799 16.361 3.9261 26 3.0938 1.1486-0.09918 2.3203-0.09362 3.4375-0.25 4.1346-0.57876 8.052-1.4604 11.188-2.8438v-14.938c0-7.049-5.7009-12.719-12.75-12.719h-15.156z" fill="url(#c)"/>
 </g>
</svg>
