<?xml version="1.0" encoding="UTF-8"?>
<svg viewBox="0 0 140 190" xmlns="http://www.w3.org/2000/svg">
 <path d="m21 5h103c8.864 0 16 7.136 16 16v153c0 8.864-7.136 16-16 16h-103c-8.864 0-16-7.136-16-16v-153c0-8.864 7.136-16 16-16z" fill-opacity=".49804"/>
 <path d="m17 1h103c8.864 0 16 7.136 16 16v153c0 8.864-7.136 16-16 16h-103c-8.864 0-16-7.136-16-16v-153c0-8.864 7.136-16 16-16z" fill="#e7e7e7"/>
 <path d="m19 3h103c8.864 0 16 7.136 16 16v153c0 8.864-7.136 16-16 16h-103c-8.864 0-16-7.136-16-16v-153c0-8.864 7.136-16 16-16z" fill="#c7891f"/>
 <path d="m18 2h103c8.864 0 16 7.136 16 16v153c0 8.864-7.136 16-16 16h-103c-8.864 0-16-7.136-16-16v-153c0-8.864 7.136-16 16-16z" fill="#fff"/>
 <path d="m11.275 11.998h18.69v4.3603l-9.6689 25.639h-6.23l9.1539-24.313h-11.945v-5.6865" fill="#f00"/>
 <g fill="#f00">
  <path transform="matrix(.31657 0 0 .41973 -33.049 -16.808)" d="m147.21 156.42c-2.5357 0.01275-5.3218 0.48209-8.4062 1.5312-33.623 19.537 11.705 51.041 30.844 78.094l0.55251 0.13831c21.033-29.569 61.072-62.108 30.479-78.232-24.237-8.244-30.711 19.198-30.938 20.188-0.19739-0.86352-5.1424-21.806-22.531-21.719z" fill-rule="evenodd"/>
 </g>
 <path d="m127.59 177h-18.69v-4.3603l9.6689-25.639h6.23l-9.1539 24.313h11.945v5.6865" fill="#f00"/>
 <g fill="#f00">
  <path transform="matrix(-.31661 0 0 -.41973 171.92 205.65)" d="m147.21 156.42c-2.5357 0.01275-5.3218 0.48209-8.4062 1.5312-33.623 19.537 11.705 51.041 30.844 78.094l0.55251 0.13831c21.033-29.569 61.072-62.108 30.479-78.232-24.237-8.244-30.711 19.198-30.938 20.188-0.19739-0.86352-5.1424-21.806-22.531-21.719z" fill-rule="evenodd"/>
 </g>
 <g fill="#f00">
  <path transform="matrix(.18388 0 0 .24795 20.055 6.4393)" d="m147.21 156.42c-2.5357 0.01275-5.3218 0.48209-8.4062 1.5312-33.623 19.537 11.705 51.041 30.844 78.094l0.55251 0.13831c21.033-29.569 61.072-62.108 30.479-78.232-24.237-8.244-30.711 19.198-30.938 20.188-0.19739-0.86352-5.1424-21.806-22.531-21.719z" fill-rule="evenodd"/>
 </g>
 <g fill="#f00">
  <path transform="matrix(.18388 0 0 .24795 56.055 6.4393)" d="m147.21 156.42c-2.5357 0.01275-5.3218 0.48209-8.4062 1.5312-33.623 19.537 11.705 51.041 30.844 78.094l0.55251 0.13831c21.033-29.569 61.072-62.108 30.479-78.232-24.237-8.244-30.711 19.198-30.938 20.188-0.19739-0.86352-5.1424-21.806-22.531-21.719z" fill-rule="evenodd"/>
 </g>
 <g fill="#f00">
  <path transform="matrix(.18388 0 0 .24795 38.695 21.219)" d="m147.21 156.42c-2.5357 0.01275-5.3218 0.48209-8.4062 1.5312-33.623 19.537 11.705 51.041 30.844 78.094l0.55251 0.13831c21.033-29.569 61.072-62.108 30.479-78.232-24.237-8.244-30.711 19.198-30.938 20.188-0.19739-0.86352-5.1424-21.806-22.531-21.719z" fill-rule="evenodd"/>
 </g>
 <g fill="#f00">
  <path transform="matrix(.18388 0 0 .24795 38.695 44.439)" d="m147.21 156.42c-2.5357 0.01275-5.3218 0.48209-8.4062 1.5312-33.623 19.537 11.705 51.041 30.844 78.094l0.55251 0.13831c21.033-29.569 61.072-62.108 30.479-78.232-24.237-8.244-30.711 19.198-30.938 20.188-0.19739-0.86352-5.1424-21.806-22.531-21.719z" fill-rule="evenodd"/>
 </g>
 <g fill="#f00">
  <path transform="matrix(-.18388 0 0 -.24795 119.3 180.56)" d="m147.21 156.42c-2.5357 0.01275-5.3218 0.48209-8.4062 1.5312-33.623 19.537 11.705 51.041 30.844 78.094l0.55251 0.13831c21.033-29.569 61.072-62.108 30.479-78.232-24.237-8.244-30.711 19.198-30.938 20.188-0.19739-0.86352-5.1424-21.806-22.531-21.719z" fill-rule="evenodd"/>
 </g>
 <g fill="#f00">
  <path transform="matrix(-.18388 0 0 -.24795 101.3 165.78)" d="m147.21 156.42c-2.5357 0.01275-5.3218 0.48209-8.4062 1.5312-33.623 19.537 11.705 51.041 30.844 78.094l0.55251 0.13831c21.033-29.569 61.072-62.108 30.479-78.232-24.237-8.244-30.711 19.198-30.938 20.188-0.19739-0.86352-5.1424-21.806-22.531-21.719z" fill-rule="evenodd"/>
 </g>
 <g fill="#f00">
  <path transform="matrix(-.18388 0 0 -.24795 84.305 180.56)" d="m147.21 156.42c-2.5357 0.01275-5.3218 0.48209-8.4062 1.5312-33.623 19.537 11.705 51.041 30.844 78.094l0.55251 0.13831c21.033-29.569 61.072-62.108 30.479-78.232-24.237-8.244-30.711 19.198-30.938 20.188-0.19739-0.86352-5.1424-21.806-22.531-21.719z" fill-rule="evenodd"/>
 </g>
</svg>
