<?xml version="1.0" encoding="UTF-8"?>
<svg viewBox="0 0 140 190" xmlns="http://www.w3.org/2000/svg">
 <path d="m21 5h103c8.864 0 16 7.136 16 16v153c0 8.864-7.136 16-16 16h-103c-8.864 0-16-7.136-16-16v-153c0-8.864 7.136-16 16-16z" fill-opacity=".49804"/>
 <path d="m17 1h103c8.864 0 16 7.136 16 16v153c0 8.864-7.136 16-16 16h-103c-8.864 0-16-7.136-16-16v-153c0-8.864 7.136-16 16-16z" fill="#e7e7e7"/>
 <path d="m19 3h103c8.864 0 16 7.136 16 16v153c0 8.864-7.136 16-16 16h-103c-8.864 0-16-7.136-16-16v-153c0-8.864 7.136-16 16-16z" fill="#c7891f"/>
 <path d="m18 2h103c8.864 0 16 7.136 16 16v153c0 8.864-7.136 16-16 16h-103c-8.864 0-16-7.136-16-16v-153c0-8.864 7.136-16 16-16z" fill="#fff"/>
 <path d="m11.275 11.998h18.69v4.3603l-9.6689 25.639h-6.23l9.1539-24.313h-11.945v-5.6865" fill="#f00"/>
 <path d="m127.5 177h-18.69v-4.3603l9.6689-25.639h6.23l-9.1539 24.313h11.945v5.6865" fill="#f00"/>
 <path d="m20.41 48.665c-4.1258 8.2455-7.1342 12.498-13.34 17.04 5.8724 4.487 10.013 9.1245 13.46 16.62 3.0792-7.1212 6.8464-12.43 13.39-16.843-6.582-3.3489-10.393-8.6536-13.51-16.817z" fill="#f00" fill-rule="evenodd"/>
 <path d="m51.13 45c-2.4033 4.8454-4.1557 7.3444-7.7702 10.013 3.4206 2.6368 5.8324 5.3619 7.8405 9.7668 1.7936-4.1847 3.988-7.3044 7.7995-9.8977-3.834-1.968-6.0537-5.0852-7.8698-9.8823z" fill="#f00" fill-rule="evenodd"/>
 <path d="m87.77 45.22c-2.4033 4.8454-4.1557 7.3444-7.7702 10.013 3.4206 2.6368 5.8324 5.3619 7.8405 9.7668 1.7936-4.1847 3.988-7.3044 7.7995-9.8977-3.834-1.968-6.0536-5.0852-7.8698-9.8823z" fill="#f00" fill-rule="evenodd"/>
 <path d="m70.13 60.22c-2.4033 4.8454-4.1557 7.3444-7.7702 10.013 3.4206 2.6368 5.8324 5.3619 7.8405 9.7668 1.7936-4.1847 3.988-7.3044 7.7995-9.8977-3.834-1.968-6.0537-5.0852-7.8698-9.8823z" fill="#f00" fill-rule="evenodd"/>
 <path d="m70.13 83.22c-2.4033 4.8454-4.1557 7.3444-7.7702 10.013 3.4206 2.6368 5.8324 5.3619 7.8405 9.7668 1.7936-4.1847 3.988-7.3044 7.7995-9.8977-3.834-1.968-6.0537-5.0852-7.8698-9.8823z" fill="#f00" fill-rule="evenodd"/>
 <path d="m52.77 122.22c-2.4033 4.8454-4.1557 7.3444-7.7702 10.013 3.4206 2.6368 5.8324 5.3619 7.8405 9.7668 1.7936-4.1847 3.988-7.3044 7.7995-9.8977-3.834-1.968-6.0537-5.0852-7.8698-9.8823z" fill="#f00" fill-rule="evenodd"/>
 <path d="m70.13 107.22c-2.4033 4.8454-4.1557 7.3444-7.7702 10.013 3.4206 2.6368 5.8324 5.3619 7.8405 9.7668 1.7936-4.1847 3.988-7.3044 7.7995-9.8977-3.834-1.968-6.0537-5.0852-7.8698-9.8823z" fill="#f00" fill-rule="evenodd"/>
 <path d="m88.13 122.22c-2.4033 4.8454-4.1557 7.3444-7.7702 10.013 3.4206 2.6368 5.8324 5.3619 7.8405 9.7668 1.7936-4.1847 3.988-7.3044 7.7995-9.8977-3.834-1.968-6.0536-5.0852-7.8698-9.8823z" fill="#f00" fill-rule="evenodd"/>
 <path d="m118.34 106.34c-4.1258 8.2455-7.1342 12.498-13.34 17.04 5.8724 4.487 10.013 9.1245 13.46 16.62 3.0792-7.1212 6.8464-12.43 13.39-16.843-6.582-3.3489-10.393-8.6536-13.51-16.817z" fill="#f00" fill-rule="evenodd"/>
</svg>
