<?xml version="1.0" encoding="UTF-8"?>
<svg viewBox="0 0 140 190" xmlns="http://www.w3.org/2000/svg">
 <path d="m21 5h103c8.864 0 16 7.136 16 16v153c0 8.864-7.136 16-16 16h-103c-8.864 0-16-7.136-16-16v-153c0-8.864 7.136-16 16-16z" fill-opacity=".49804"/>
 <path d="m17 1h103c8.864 0 16 7.136 16 16v153c0 8.864-7.136 16-16 16h-103c-8.864 0-16-7.136-16-16v-153c0-8.864 7.136-16 16-16z" fill="#e7e7e7"/>
 <path d="m19 3h103c8.864 0 16 7.136 16 16v153c0 8.864-7.136 16-16 16h-103c-8.864 0-16-7.136-16-16v-153c0-8.864 7.136-16 16-16z" fill="#c7891f"/>
 <path d="m18 2h103c8.864 0 16 7.136 16 16v153c0 8.864-7.136 16-16 16h-103c-8.864 0-16-7.136-16-16v-153c0-8.864 7.136-16 16-16z" fill="#fff"/>
 <path d="m11.275 11.998h18.69v4.3603l-9.6689 25.639h-6.23l9.1539-24.313h-11.945v-5.6865"/>
 <path d="m127.5 177h-18.69v-4.3603l9.6689-25.639h6.23l-9.1539 24.313h11.945v5.6865"/>
 <path d="m20.527 48.665c-2.6664 0-4.8299 3.2635-4.8299 7.2857 0 3.4266 4.3921 9.1917 4.2215 11.93-1.4102 0.78242-5.7673-6.4375-8.019-6.4375-2.6664 0-4.8299 3.2635-4.8299 7.2857s2.1635 7.2857 4.8299 7.2857c2.3125 0 6.2757-7.214 8.019-6.5627l-2.9289 12.874 7.0236-0.04171s-3.077-12.481-3.0808-12.776h0.05531v0.01391c1.7073-0.63971 5.8059 6.6322 8.102 6.6322 2.6664 0 4.8299-3.2635 4.8299-7.2857s-2.1635-7.2857-4.8299-7.2857c-2.2426 0-6.3077 7.1005-8.0928 6.368 0.02508-2.8054 4.3598-8.5763 4.3598-11.999 0-4.0221-2.1635-7.2857-4.8299-7.2857z" fill-rule="evenodd"/>
 <path d="m51.199 45c-1.5532 0-2.8134 1.9178-2.8134 4.2814 0 2.0136 2.5584 5.4014 2.459 7.0103-0.82146 0.45978-3.3594-3.783-4.6711-3.783-1.5532 0-2.8134 1.9178-2.8134 4.2814s1.2602 4.2814 2.8134 4.2814c1.347 0 3.6556-4.2392 4.6711-3.8565l-1.7061 7.5651 4.0912-0.02451s-1.7923-7.3345-1.7945-7.5079h0.03221v0.00818c0.9945-0.37593 3.3819 3.8973 4.7194 3.8973 1.5532 0 2.8134-1.9178 2.8134-4.2814s-1.2602-4.2814-2.8134-4.2814c-1.3063 0-3.6742 4.1726-4.714 3.7421 0.01461-1.6486 2.5396-5.0398 2.5396-7.0512 0-2.3636-1.2602-4.2814-2.8134-4.2814z" fill-rule="evenodd"/>
 <path d="m69.839 60.22c-1.5532 0-2.8134 1.9178-2.8134 4.2814 0 2.0136 2.5584 5.4014 2.459 7.0103-0.82147 0.45978-3.3594-3.783-4.6711-3.783-1.5532 0-2.8134 1.9178-2.8134 4.2814s1.2602 4.2814 2.8134 4.2814c1.347 0 3.6555-4.2392 4.6711-3.8565l-1.7061 7.5651 4.0912-0.02452s-1.7923-7.3345-1.7945-7.5079h0.03222v0.00818c0.99449-0.37592 3.3819 3.8973 4.7194 3.8973 1.5532 0 2.8134-1.9178 2.8134-4.2814s-1.2602-4.2814-2.8134-4.2814c-1.3063 0-3.6742 4.1726-4.714 3.7421 0.01461-1.6486 2.5396-5.0398 2.5396-7.0512 0-2.3636-1.2602-4.2814-2.8134-4.2814z" fill-rule="evenodd"/>
 <path d="m87.199 45c-1.5532 0-2.8134 1.9178-2.8134 4.2814 0 2.0136 2.5584 5.4014 2.459 7.0103-0.82146 0.45979-3.3594-3.783-4.6711-3.783-1.5532 0-2.8134 1.9178-2.8134 4.2814s1.2602 4.2814 2.8134 4.2814c1.347 0 3.6555-4.2392 4.6711-3.8565l-1.7061 7.5651 4.0912-0.02452s-1.7923-7.3344-1.7945-7.5079h0.03222v0.00817c0.99449-0.37592 3.3819 3.8973 4.7194 3.8973 1.5532 0 2.8134-1.9178 2.8134-4.2814s-1.2602-4.2814-2.8134-4.2814c-1.3063 0-3.6742 4.1726-4.714 3.7421 0.0146-1.6486 2.5396-5.0398 2.5396-7.0512 0-2.3636-1.2602-4.2814-2.8134-4.2814z" fill-rule="evenodd"/>
 <path d="m70.199 83c-1.5532 0-2.8134 1.9178-2.8134 4.2814 0 2.0136 2.5584 5.4014 2.459 7.0103-0.82146 0.45978-3.3594-3.783-4.6711-3.783-1.5532 0-2.8134 1.9178-2.8134 4.2814s1.2602 4.2814 2.8134 4.2814c1.347 0 3.6555-4.2392 4.6711-3.8565l-1.7061 7.5651 4.0912-0.02451s-1.7923-7.3345-1.7945-7.5079h0.03221v0.00818c0.9945-0.37593 3.3819 3.8973 4.7194 3.8973 1.5532 0 2.8134-1.9178 2.8134-4.2814s-1.2602-4.2814-2.8134-4.2814c-1.3063 0-3.6742 4.1726-4.714 3.7421 0.01461-1.6486 2.5396-5.0398 2.5396-7.0512 0-2.3636-1.2602-4.2814-2.8134-4.2814z" fill-rule="evenodd"/>
 <path d="m70.161 126.78c1.5532 0 2.8134-1.9178 2.8134-4.2814 0-2.0136-2.5584-5.4014-2.459-7.0103 0.82146-0.45978 3.3594 3.783 4.6711 3.783 1.5532 0 2.8134-1.9178 2.8134-4.2814s-1.2602-4.2814-2.8134-4.2814c-1.347 0-3.6555 4.2392-4.6711 3.8565l1.7061-7.5651-4.0912 0.02451s1.7923 7.3345 1.7945 7.5079h-0.03222v-0.00818c-0.9945 0.37592-3.3819-3.8973-4.7194-3.8973-1.5532 0-2.8134 1.9178-2.8134 4.2814s1.2602 4.2814 2.8134 4.2814c1.3063 0 3.6742-4.1726 4.714-3.7421-0.01461 1.6486-2.5396 5.0398-2.5396 7.0512 0 2.3636 1.2602 4.2814 2.8134 4.2814z" fill-rule="evenodd"/>
 <path d="m88.161 141.78c1.5532 0 2.8134-1.9178 2.8134-4.2814 0-2.0136-2.5584-5.4014-2.459-7.0103 0.82146-0.45978 3.3594 3.783 4.6711 3.783 1.5532 0 2.8134-1.9178 2.8134-4.2814s-1.2602-4.2814-2.8134-4.2814c-1.347 0-3.6556 4.2392-4.6711 3.8565l1.7061-7.5651-4.0912 0.02451s1.7923 7.3345 1.7945 7.5079h-0.03221v-0.00817c-0.9945 0.37592-3.3819-3.8973-4.7194-3.8973-1.5532 0-2.8134 1.9178-2.8134 4.2814s1.2602 4.2814 2.8134 4.2814c1.3063 0 3.6742-4.1726 4.714-3.7421-0.01461 1.6486-2.5396 5.0398-2.5396 7.0512 0 2.3636 1.2602 4.2814 2.8134 4.2814z" fill-rule="evenodd"/>
 <path d="m52.801 141.78c1.5532 0 2.8134-1.9178 2.8134-4.2814 0-2.0136-2.5584-5.4014-2.459-7.0103 0.82146-0.45978 3.3594 3.783 4.6711 3.783 1.5532 0 2.8134-1.9178 2.8134-4.2814s-1.2602-4.2814-2.8134-4.2814c-1.347 0-3.6555 4.2392-4.6711 3.8565l1.7061-7.5651-4.0912 0.02452s1.7923 7.3345 1.7945 7.5079h-0.03221v-0.00818c-0.9945 0.37592-3.3819-3.8973-4.7194-3.8973-1.5532 0-2.8134 1.9178-2.8134 4.2814s1.2602 4.2814 2.8134 4.2814c1.3063 0 3.6742-4.1726 4.714-3.7421-0.01461 1.6486-2.5396 5.0398-2.5396 7.0512 0 2.3636 1.2602 4.2814 2.8134 4.2814z" fill-rule="evenodd"/>
 <path d="m117.54 139.96c2.6664 0 4.8299-3.2635 4.8299-7.2857 0-3.4266-4.3921-9.1917-4.2215-11.93 1.4102-0.78242 5.7673 6.4375 8.019 6.4375 2.6664 0 4.8299-3.2635 4.8299-7.2857s-2.1635-7.2857-4.8299-7.2857c-2.3125 0-6.2757 7.214-8.019 6.5627l2.9289-12.874-7.0236 0.04171s3.077 12.481 3.0808 12.776h-0.05531v-0.01391c-1.7073 0.63971-5.8059-6.6322-8.102-6.6322-2.6664 0-4.8299 3.2635-4.8299 7.2857s2.1635 7.2857 4.8299 7.2857c2.2426 0 6.3077-7.1005 8.0928-6.368-0.02508 2.8054-4.3598 8.5763-4.3598 11.999 0 4.0221 2.1635 7.2857 4.8299 7.2857z" fill-rule="evenodd"/>
</svg>
