<?xml version="1.0" encoding="UTF-8"?>
<svg viewBox="0 0 140 190" xmlns="http://www.w3.org/2000/svg">
 <path d="m21 5h103c8.864 0 16 7.136 16 16v153c0 8.864-7.136 16-16 16h-103c-8.864 0-16-7.136-16-16v-153c0-8.864 7.136-16 16-16z" fill-opacity=".49804"/>
 <path d="m17 1h103c8.864 0 16 7.136 16 16v153c0 8.864-7.136 16-16 16h-103c-8.864 0-16-7.136-16-16v-153c0-8.864 7.136-16 16-16z" fill="#e7e7e7"/>
 <path d="m19 3h103c8.864 0 16 7.136 16 16v153c0 8.864-7.136 16-16 16h-103c-8.864 0-16-7.136-16-16v-153c0-8.864 7.136-16 16-16z" fill="#c7891f"/>
 <path d="m18 2h103c8.864 0 16 7.136 16 16v153c0 8.864-7.136 16-16 16h-103c-8.864 0-16-7.136-16-16v-153c0-8.864 7.136-16 16-16z" fill="#fff"/>
 <path d="m21.069 27.429c-1.1186 1e-5 -1.9604 0.44207-2.5252 1.3262-0.55379 0.87073-0.83067 2.1835-0.83066 3.9383s0.27688 3.0743 0.83066 3.9584c0.56484 0.87073 1.4066 1.3061 2.5252 1.3061 1.1297 0 1.9714-0.43535 2.5252-1.3061 0.56483-0.8841 0.84726-2.2036 0.84727-3.9584s-0.28244-3.0676-0.84727-3.9383c-0.55379-0.8841-1.3955-1.3262-2.5252-1.3262m7.9079-14.407v5.5458c-1.0522-0.60278-2.0434-1.0448-2.9738-1.3262-0.93036-0.29468-1.8386-0.44203-2.7246-0.44205-1.905 2e-5 -3.3891 0.64301-4.4524 1.929-1.0633 1.2726-1.6835 3.1681-1.8607 5.6865 0.73097-0.65638 1.5229-1.1453 2.3757-1.4668 0.8528-0.33488 1.7831-0.50232 2.791-0.50234 2.5363 2e-5 4.5797 0.89753 6.1303 2.6925 1.5616 1.795 2.3424 4.146 2.3425 7.0528-2e-5 3.215-0.86945 5.7936-2.6083 7.736-1.7389 1.929-4.0703 2.8935-6.9942 2.8935-3.223 0-5.7205-1.3128-7.4926-3.9383-1.761-2.639-2.6415-6.3764-2.6415-11.212 0-4.9564 1.03-8.8478 3.0901-11.674 2.0711-2.8399 4.9064-4.2598 8.506-4.2598 1.1408 3e-5 2.2483 0.1072 3.3226 0.3215s2.1376 0.53586 3.1897 0.9645"/>
 <path d="m117.85 161.9c1.1186-2e-5 1.9604-0.44208 2.5252-1.3262 0.55379-0.87073 0.83067-2.1835 0.83066-3.9383s-0.27687-3.0743-0.83066-3.9584c-0.56484-0.87072-1.4066-1.3061-2.5252-1.3061-1.1297 0-1.9714 0.43536-2.5252 1.3061-0.56483 0.88411-0.84726 2.2036-0.84727 3.9584s0.28244 3.0676 0.84727 3.9383c0.55379 0.8841 1.3955 1.3262 2.5252 1.3262m-7.9079 14.407v-5.5458c1.0522 0.60278 2.0434 1.0448 2.9738 1.3262 0.93035 0.29468 1.8385 0.44204 2.7246 0.44206 1.905-2e-5 3.3891-0.64302 4.4524-1.929 1.0633-1.2726 1.6835-3.1681 1.8607-5.6865-0.73097 0.65637-1.5229 1.1453-2.3757 1.4668-0.85281 0.33487-1.7832 0.50232-2.791 0.50234-2.5363-2e-5 -4.5797-0.89753-6.1303-2.6925-1.5616-1.795-2.3424-4.146-2.3425-7.0528 3e-5 -3.215 0.86946-5.7936 2.6083-7.736 1.7389-1.929 4.0702-2.8935 6.9942-2.8935 3.223 0 5.7205 1.3128 7.4926 3.9383 1.761 2.639 2.6415 6.3764 2.6415 11.212 0 4.9564-1.03 8.8478-3.0901 11.674-2.0711 2.8399-4.9064 4.2598-8.506 4.2598-1.1408-3e-5 -2.2483-0.1072-3.3226-0.3215s-2.1376-0.53586-3.1897-0.96449"/>
 <path d="m20.527 48.665c-2.6664 0-4.8299 3.2635-4.8299 7.2857 0 3.4266 4.3921 9.1917 4.2215 11.93-1.4102 0.78242-5.7673-6.4375-8.019-6.4375-2.6664 0-4.8299 3.2635-4.8299 7.2857s2.1635 7.2857 4.8299 7.2857c2.3125 0 6.2757-7.214 8.019-6.5627l-2.9289 12.874 7.0236-0.04171s-3.077-12.481-3.0808-12.776h0.05531v0.01391c1.7073-0.63971 5.8059 6.6322 8.102 6.6322 2.6664 0 4.8299-3.2635 4.8299-7.2857s-2.1635-7.2857-4.8299-7.2857c-2.2426 0-6.3077 7.1005-8.0928 6.368 0.02508-2.8054 4.3598-8.5763 4.3598-11.999 0-4.0221-2.1635-7.2857-4.8299-7.2857z" fill-rule="evenodd"/>
 <path d="m117.82 139.96c2.6664 0 4.8299-3.2635 4.8299-7.2857 0-3.4266-4.3921-9.1917-4.2215-11.93 1.4102-0.78242 5.7673 6.4375 8.019 6.4375 2.6664 0 4.8299-3.2635 4.8299-7.2857s-2.1635-7.2857-4.8299-7.2857c-2.3125 0-6.2757 7.214-8.019 6.5627l2.9289-12.874-7.0236 0.04171s3.077 12.481 3.0808 12.776h-0.05531v-0.01391c-1.7073 0.63971-5.8059-6.6322-8.102-6.6322-2.6664 0-4.8299 3.2635-4.8299 7.2857s2.1635 7.2857 4.8299 7.2857c2.2426 0 6.3077-7.1005 8.0928-6.368-0.02508 2.8054-4.3598 8.5763-4.3598 11.999 0 4.0221 2.1635 7.2857 4.8299 7.2857z" fill-rule="evenodd"/>
 <path d="m51.199 45c-1.5532 0-2.8134 1.9178-2.8134 4.2814 0 2.0136 2.5584 5.4014 2.459 7.0103-0.82147 0.45978-3.3594-3.783-4.6711-3.783-1.5532 0-2.8134 1.9178-2.8134 4.2814s1.2602 4.2814 2.8134 4.2814c1.347 0 3.6556-4.2392 4.6711-3.8565l-1.7061 7.5651 4.0912-0.02452s-1.7923-7.3345-1.7945-7.5079h0.03221v0.00818c0.9945-0.37593 3.3819 3.8973 4.7194 3.8973 1.5532 0 2.8134-1.9178 2.8134-4.2814s-1.2602-4.2814-2.8134-4.2814c-1.3063 0-3.6742 4.1726-4.714 3.7421 0.01461-1.6486 2.5396-5.0398 2.5396-7.0512 0-2.3636-1.2602-4.2814-2.8134-4.2814z" fill-rule="evenodd"/>
 <path d="m87.199 45c-1.5532 0-2.8134 1.9178-2.8134 4.2814 0 2.0136 2.5584 5.4014 2.459 7.0103-0.82146 0.45979-3.3594-3.783-4.6711-3.783-1.5532 0-2.8134 1.9178-2.8134 4.2814s1.2602 4.2814 2.8134 4.2814c1.347 0 3.6555-4.2392 4.6711-3.8565l-1.7061 7.5651 4.0912-0.02451s-1.7923-7.3345-1.7945-7.5079h0.03222v0.00817c0.99449-0.37592 3.3819 3.8973 4.7194 3.8974 1.5532 0 2.8134-1.9178 2.8134-4.2814s-1.2602-4.2814-2.8134-4.2814c-1.3063 0-3.6742 4.1726-4.714 3.7421 0.0146-1.6486 2.5396-5.0398 2.5396-7.0512 0-2.3636-1.2602-4.2814-2.8134-4.2814z" fill-rule="evenodd"/>
 <path d="m51.199 81c-1.5532 0-2.8134 1.9178-2.8134 4.2814 0 2.0136 2.5584 5.4014 2.459 7.0103-0.82147 0.45978-3.3594-3.783-4.6711-3.783-1.5532 0-2.8134 1.9178-2.8134 4.2814s1.2602 4.2814 2.8134 4.2814c1.347 0 3.6555-4.2392 4.6711-3.8565l-1.7061 7.5651 4.0912-0.02452s-1.7923-7.3344-1.7945-7.5079h0.03222v0.00819c0.99449-0.37592 3.3819 3.8973 4.7194 3.8973 1.5532 0 2.8134-1.9178 2.8134-4.2814s-1.2602-4.2814-2.8134-4.2814c-1.3063 0-3.6742 4.1726-4.714 3.7421 0.01461-1.6486 2.5396-5.0398 2.5396-7.0512 0-2.3636-1.2602-4.2814-2.8134-4.2814z" fill-rule="evenodd"/>
 <path d="m86.801 101c1.5532 0 2.8134-1.9178 2.8134-4.2814 0-2.0136-2.5584-5.4014-2.459-7.0103 0.82146-0.45978 3.3594 3.783 4.6711 3.783 1.5532 0 2.8134-1.9178 2.8134-4.2814s-1.2602-4.2814-2.8134-4.2814c-1.347 0-3.6556 4.2392-4.6711 3.8565l1.7061-7.5651-4.0912 0.02451s1.7923 7.3345 1.7945 7.5079h-0.0322v-0.00817c-0.99451 0.37592-3.3819-3.8973-4.7194-3.8974-1.5532 0-2.8134 1.9178-2.8134 4.2814s1.2602 4.2814 2.8134 4.2814c1.3063 0 3.6742-4.1726 4.714-3.7421-0.01462 1.6486-2.5396 5.0398-2.5396 7.0512 0 2.3636 1.2602 4.2814 2.8134 4.2814z" fill-rule="evenodd"/>
 <path d="m88.161 142c1.5532 0 2.8134-1.9178 2.8134-4.2814 0-2.0136-2.5584-5.4014-2.459-7.0103 0.82146-0.45978 3.3594 3.783 4.6711 3.783 1.5532 0 2.8134-1.9178 2.8134-4.2814s-1.2602-4.2814-2.8134-4.2814c-1.347 0-3.6556 4.2392-4.6711 3.8565l1.7061-7.5651-4.0912 0.02451s1.7923 7.3345 1.7945 7.5079h-0.03221v-0.00818c-0.9945 0.37593-3.3819-3.8973-4.7194-3.8973-1.5532 0-2.8134 1.9178-2.8134 4.2814s1.2602 4.2813 2.8134 4.2813c1.3063 0 3.6742-4.1726 4.714-3.7421-0.01461 1.6486-2.5396 5.0398-2.5396 7.0512 0 2.3636 1.2602 4.2814 2.8134 4.2814z" fill-rule="evenodd"/>
 <path d="m52.801 141.78c1.5532 0 2.8134-1.9178 2.8134-4.2813 0-2.0136-2.5584-5.4014-2.459-7.0103 0.82146-0.45979 3.3594 3.783 4.6711 3.783 1.5532 0 2.8134-1.9178 2.8134-4.2814s-1.2602-4.2814-2.8134-4.2814c-1.347 0-3.6555 4.2392-4.6711 3.8565l1.7061-7.5651-4.0912 0.02452s1.7923 7.3344 1.7945 7.5079h-0.03221v-0.00819c-0.9945 0.37593-3.3819-3.8973-4.7194-3.8973-1.5532 0-2.8134 1.9178-2.8134 4.2814s1.2602 4.2814 2.8134 4.2814c1.3063 0 3.6742-4.1726 4.714-3.7421-0.01461 1.6486-2.5396 5.0398-2.5396 7.0512 0 2.3636 1.2602 4.2813 2.8134 4.2813z" fill-rule="evenodd"/>
</svg>
