<?xml version="1.0" encoding="UTF-8"?>
<svg viewBox="0 0 140 190" xmlns="http://www.w3.org/2000/svg">
 <path d="m21 5h103c8.864 0 16 7.136 16 16v153c0 8.864-7.136 16-16 16h-103c-8.864 0-16-7.136-16-16v-153c0-8.864 7.136-16 16-16z" fill-opacity=".49804"/>
 <path d="m17 1h103c8.864 0 16 7.136 16 16v153c0 8.864-7.136 16-16 16h-103c-8.864 0-16-7.136-16-16v-153c0-8.864 7.136-16 16-16z" fill="#e7e7e7"/>
 <path d="m19 3h103c8.864 0 16 7.136 16 16v153c0 8.864-7.136 16-16 16h-103c-8.864 0-16-7.136-16-16v-153c0-8.864 7.136-16 16-16z" fill="#c7891f"/>
 <path d="m18 2h103c8.864 0 16 7.136 16 16v153c0 8.864-7.136 16-16 16h-103c-8.864 0-16-7.136-16-16v-153c0-8.864 7.136-16 16-16z" fill="#fff"/>
 <path d="m21.069 27.429c-1.1186 1e-5 -1.9604 0.44207-2.5252 1.3262-0.55379 0.87073-0.83067 2.1835-0.83066 3.9383s0.27688 3.0743 0.83066 3.9584c0.56484 0.87073 1.4066 1.3061 2.5252 1.3061 1.1297 0 1.9714-0.43535 2.5252-1.3061 0.56483-0.8841 0.84726-2.2036 0.84727-3.9584s-0.28244-3.0676-0.84727-3.9383c-0.55379-0.8841-1.3955-1.3262-2.5252-1.3262m7.9079-14.407v5.5458c-1.0522-0.60278-2.0434-1.0448-2.9738-1.3262-0.93036-0.29468-1.8386-0.44203-2.7246-0.44205-1.905 2e-5 -3.3891 0.64301-4.4524 1.929-1.0633 1.2726-1.6835 3.1681-1.8607 5.6865 0.73097-0.65638 1.5229-1.1453 2.3757-1.4668 0.8528-0.33488 1.7831-0.50232 2.791-0.50234 2.5363 2e-5 4.5797 0.89753 6.1303 2.6925 1.5616 1.795 2.3424 4.146 2.3425 7.0528-2e-5 3.215-0.86945 5.7936-2.6083 7.736-1.7389 1.929-4.0703 2.8935-6.9942 2.8935-3.223 0-5.7205-1.3128-7.4926-3.9383-1.761-2.639-2.6415-6.3764-2.6415-11.212 0-4.9564 1.03-8.8478 3.0901-11.674 2.0711-2.8399 4.9064-4.2598 8.506-4.2598 1.1408 3e-5 2.2483 0.1072 3.3226 0.3215s2.1376 0.53586 3.1897 0.9645" fill="#f00"/>
 <path d="m117.61 161.74c1.1186-2e-5 1.9604-0.44207 2.5252-1.3262 0.55378-0.87073 0.83067-2.1835 0.83066-3.9383s-0.27688-3.0743-0.83066-3.9584c-0.56484-0.87073-1.4066-1.3061-2.5252-1.3061-1.1297 0-1.9714 0.43536-2.5252 1.3061-0.56483 0.88411-0.84726 2.2036-0.84727 3.9584s0.28244 3.0676 0.84727 3.9383c0.55379 0.88411 1.3955 1.3262 2.5252 1.3262m-7.9079 14.407v-5.5458c1.0522 0.60278 2.0434 1.0448 2.9738 1.3262 0.93036 0.29468 1.8386 0.44204 2.7246 0.44206 1.905-2e-5 3.3891-0.64302 4.4523-1.929 1.0633-1.2726 1.6835-3.1681 1.8607-5.6865-0.73097 0.65637-1.5229 1.1453-2.3757 1.4668-0.8528 0.33488-1.7831 0.50232-2.791 0.50234-2.5363-2e-5 -4.5797-0.89753-6.1303-2.6925-1.5616-1.795-2.3424-4.146-2.3425-7.0528 1e-5 -3.215 0.86944-5.7936 2.6083-7.736 1.7389-1.929 4.0703-2.8935 6.9942-2.8935 3.223 0 5.7205 1.3128 7.4926 3.9383 1.761 2.639 2.6415 6.3764 2.6415 11.212 0 4.9564-1.03 8.8478-3.0901 11.674-2.0711 2.8399-4.9064 4.2598-8.506 4.2598-1.1408-3e-5 -2.2483-0.1072-3.3226-0.3215s-2.1376-0.53586-3.1898-0.96449" fill="#f00"/>
 <path d="m20.41 48.665c-4.1258 8.2455-7.1342 12.498-13.34 17.04 5.8724 4.487 10.013 9.1245 13.46 16.62 3.0792-7.1212 6.8464-12.43 13.39-16.843-6.582-3.3489-10.393-8.6536-13.51-16.817z" fill="#f00" fill-rule="evenodd"/>
 <path d="m51.13 45c-2.4033 4.8454-4.1557 7.3444-7.7702 10.013 3.4206 2.6368 5.8324 5.3619 7.8405 9.7668 1.7936-4.1847 3.988-7.3044 7.7995-9.8977-3.834-1.968-6.0537-5.0852-7.8698-9.8823z" fill="#f00" fill-rule="evenodd"/>
 <path d="m87.13 45c-2.4033 4.8454-4.1557 7.3444-7.7702 10.013 3.4206 2.6368 5.8324 5.3619 7.8405 9.7668 1.7936-4.1847 3.988-7.3044 7.7995-9.8977-3.834-1.968-6.0536-5.0852-7.8698-9.8823z" fill="#f00" fill-rule="evenodd"/>
 <path d="m51.13 81c-2.4033 4.8454-4.1557 7.3444-7.7702 10.013 3.4206 2.6368 5.8324 5.3619 7.8405 9.7668 1.7936-4.1847 3.988-7.3044 7.7995-9.8977-3.834-1.968-6.0537-5.0852-7.8698-9.8823z" fill="#f00" fill-rule="evenodd"/>
 <path d="m86.77 81c-2.4033 4.8454-4.1557 7.3444-7.7702 10.013 3.4206 2.6368 5.8324 5.3619 7.8405 9.7668 1.7936-4.1847 3.988-7.3044 7.7995-9.8977-3.834-1.968-6.0537-5.0852-7.8698-9.8823z" fill="#f00" fill-rule="evenodd"/>
 <path d="m53.13 122.22c-2.4033 4.8454-4.1557 7.3444-7.7702 10.013 3.4206 2.6368 5.8324 5.3619 7.8405 9.7668 1.7936-4.1847 3.988-7.3044 7.7995-9.8977-3.834-1.968-6.0537-5.0852-7.8698-9.8823z" fill="#f00" fill-rule="evenodd"/>
 <path d="m88.13 122.22c-2.4033 4.8454-4.1557 7.3444-7.7702 10.013 3.4206 2.6368 5.8324 5.3619 7.8405 9.7668 1.7936-4.1847 3.988-7.3044 7.7995-9.8977-3.834-1.968-6.0536-5.0852-7.8698-9.8823z" fill="#f00" fill-rule="evenodd"/>
 <path d="m118.34 106.34c-4.1258 8.2455-7.1342 12.498-13.34 17.04 5.8724 4.487 10.013 9.1245 13.46 16.62 3.0792-7.1212 6.8464-12.43 13.39-16.843-6.582-3.3489-10.393-8.6536-13.51-16.817z" fill="#f00" fill-rule="evenodd"/>
</svg>
