<?xml version="1.0" encoding="UTF-8"?>
<svg viewBox="0 0 140 190" xmlns="http://www.w3.org/2000/svg">
 <path d="m21 5h103c8.864 0 16 7.136 16 16v153c0 8.864-7.136 16-16 16h-103c-8.864 0-16-7.136-16-16v-153c0-8.864 7.136-16 16-16z" fill-opacity=".49804"/>
 <path d="m17 1h103c8.864 0 16 7.136 16 16v153c0 8.864-7.136 16-16 16h-103c-8.864 0-16-7.136-16-16v-153c0-8.864 7.136-16 16-16z" fill="#e7e7e7"/>
 <path d="m19 3h103c8.864 0 16 7.136 16 16v153c0 8.864-7.136 16-16 16h-103c-8.864 0-16-7.136-16-16v-153c0-8.864 7.136-16 16-16z" fill="#c7891f"/>
 <path d="m18 2h103c8.864 0 16 7.136 16 16v153c0 8.864-7.136 16-16 16h-103c-8.864 0-16-7.136-16-16v-153c0-8.864 7.136-16 16-16z" fill="#fff"/>
 <path d="m21.309 27.189c-1.1186 1e-5 -1.9604 0.44207-2.5252 1.3262-0.55378 0.87073-0.83067 2.1835-0.83066 3.9383s0.27688 3.0743 0.83066 3.9584c0.56484 0.87073 1.4066 1.3061 2.5252 1.3061 1.1297 0 1.9714-0.43536 2.5252-1.3061 0.56484-0.88411 0.84726-2.2036 0.84728-3.9584s-0.28244-3.0676-0.84728-3.9383c-0.55379-0.8841-1.3955-1.3262-2.5252-1.3262m7.9079-14.407v5.5458c-1.0522-0.60278-2.0434-1.0448-2.9738-1.3262-0.93036-0.29468-1.8386-0.44203-2.7246-0.44206-1.905 3e-5 -3.3891 0.64302-4.4524 1.929-1.0633 1.2726-1.6835 3.1681-1.8607 5.6865 0.73097-0.65637 1.5229-1.1453 2.3757-1.4668 0.8528-0.33487 1.7831-0.50232 2.791-0.50234 2.5363 2e-5 4.5797 0.89753 6.1303 2.6925 1.5616 1.795 2.3424 4.146 2.3425 7.0528-2e-5 3.215-0.86945 5.7936-2.6083 7.736-1.7389 1.929-4.0703 2.8935-6.9942 2.8935-3.223 0-5.7205-1.3128-7.4926-3.9383-1.761-2.639-2.6415-6.3764-2.6415-11.212 0-4.9564 1.03-8.8478 3.0901-11.674 2.0711-2.8399 4.9064-4.2598 8.506-4.2598 1.1408 3e-5 2.2483 0.1072 3.3226 0.3215s2.1376 0.53586 3.1897 0.96449" fill="#f00"/>
 <g fill="#f00">
  <path transform="matrix(.31657 0 0 .41973 -33.049 -16.808)" d="m147.21 156.42c-2.5357 0.01275-5.3218 0.48209-8.4062 1.5312-33.623 19.537 11.705 51.041 30.844 78.094l0.55251 0.13831c21.033-29.569 61.072-62.108 30.479-78.232-24.237-8.244-30.711 19.198-30.938 20.188-0.19739-0.86352-5.1424-21.806-22.531-21.719z" fill-rule="evenodd"/>
 </g>
 <path d="m117.56 161.81c1.1186-1e-5 1.9604-0.44208 2.5252-1.3262 0.55378-0.87073 0.83066-2.1835 0.83065-3.9383s-0.27687-3.0743-0.83065-3.9584c-0.56485-0.87072-1.4066-1.3061-2.5252-1.3061-1.1297 0-1.9714 0.43537-2.5252 1.3061-0.56482 0.88411-0.84726 2.2036-0.84726 3.9584s0.28244 3.0676 0.84726 3.9383c0.55379 0.8841 1.3955 1.3262 2.5252 1.3262m-7.9079 14.407v-5.5458c1.0522 0.60278 2.0434 1.0448 2.9738 1.3262 0.93036 0.29469 1.8386 0.44203 2.7246 0.44207 1.905-4e-5 3.3891-0.64303 4.4524-1.929 1.0633-1.2726 1.6835-3.1681 1.8607-5.6865-0.73098 0.65638-1.5229 1.1453-2.3757 1.4668-0.8528 0.33488-1.7831 0.50232-2.791 0.50234-2.5363-2e-5 -4.5797-0.89753-6.1303-2.6925-1.5616-1.795-2.3424-4.146-2.3425-7.0528 3e-5 -3.215 0.86946-5.7937 2.6083-7.736 1.7389-1.929 4.0703-2.8935 6.9942-2.8935 3.223 0 5.7205 1.3128 7.4926 3.9383 1.761 2.639 2.6415 6.3764 2.6415 11.212 1e-5 4.9564-1.03 8.8478-3.0901 11.674-2.0711 2.8398-4.9064 4.2598-8.506 4.2598-1.1408-3e-5 -2.2483-0.10719-3.3226-0.32149s-2.1376-0.53587-3.1897-0.9645" fill="#f00"/>
 <g fill="#f00">
  <path transform="matrix(-.31661 0 0 -.41973 171.92 205.65)" d="m147.21 156.42c-2.5357 0.01275-5.3218 0.48209-8.4062 1.5312-33.623 19.537 11.705 51.041 30.844 78.094l0.55251 0.13831c21.033-29.569 61.072-62.108 30.479-78.232-24.237-8.244-30.711 19.198-30.938 20.188-0.19739-0.86352-5.1424-21.806-22.531-21.719z" fill-rule="evenodd"/>
 </g>
 <g fill="#f00">
  <path transform="matrix(.18388 0 0 .24795 20.055 6.2193)" d="m147.21 156.42c-2.5357 0.01275-5.3218 0.48209-8.4062 1.5312-33.623 19.537 11.705 51.041 30.844 78.094l0.55251 0.13831c21.033-29.569 61.072-62.108 30.479-78.232-24.237-8.244-30.711 19.198-30.938 20.188-0.19739-0.86352-5.1424-21.806-22.531-21.719z" fill-rule="evenodd"/>
 </g>
 <g fill="#f00">
  <path transform="matrix(.18388 0 0 .24795 56.055 6.4393)" d="m147.21 156.42c-2.5357 0.01275-5.3218 0.48209-8.4062 1.5312-33.623 19.537 11.705 51.041 30.844 78.094l0.55251 0.13831c21.033-29.569 61.072-62.108 30.479-78.232-24.237-8.244-30.711 19.198-30.938 20.188-0.19739-0.86352-5.1424-21.806-22.531-21.719z" fill-rule="evenodd"/>
 </g>
 <g fill="#f00">
  <path transform="matrix(.18388 0 0 .24795 20.055 42.439)" d="m147.21 156.42c-2.5357 0.01275-5.3218 0.48209-8.4062 1.5312-33.623 19.537 11.705 51.041 30.844 78.094l0.55251 0.13831c21.033-29.569 61.072-62.108 30.479-78.232-24.237-8.244-30.711 19.198-30.938 20.188-0.19739-0.86352-5.1424-21.806-22.531-21.719z" fill-rule="evenodd"/>
 </g>
 <g fill="#f00">
  <path transform="matrix(-.18388 0 0 -.24795 117.94 139.78)" d="m147.21 156.42c-2.5357 0.01275-5.3218 0.48209-8.4062 1.5312-33.623 19.537 11.705 51.041 30.844 78.094l0.55251 0.13831c21.033-29.569 61.072-62.108 30.479-78.232-24.237-8.244-30.711 19.198-30.938 20.188-0.19739-0.86352-5.1424-21.806-22.531-21.719z" fill-rule="evenodd"/>
 </g>
 <g fill="#f00">
  <path transform="matrix(-.18388 0 0 -.24795 84.305 180.56)" d="m147.21 156.42c-2.5357 0.01275-5.3218 0.48209-8.4062 1.5312-33.623 19.537 11.705 51.041 30.844 78.094l0.55251 0.13831c21.033-29.569 61.072-62.108 30.479-78.232-24.237-8.244-30.711 19.198-30.938 20.188-0.19739-0.86352-5.1424-21.806-22.531-21.719z" fill-rule="evenodd"/>
 </g>
 <g fill="#f00">
  <path transform="matrix(-.18388 0 0 -.24795 119.3 180.56)" d="m147.21 156.42c-2.5357 0.01275-5.3218 0.48209-8.4062 1.5312-33.623 19.537 11.705 51.041 30.844 78.094l0.55251 0.13831c21.033-29.569 61.072-62.108 30.479-78.232-24.237-8.244-30.711 19.198-30.938 20.188-0.19739-0.86352-5.1424-21.806-22.531-21.719z" fill-rule="evenodd"/>
 </g>
</svg>
