<?xml version="1.0" encoding="UTF-8"?>
<svg viewBox="0 0 140 190" xmlns="http://www.w3.org/2000/svg">
 <path d="m21 5h103c8.864 0 16 7.136 16 16v153c0 8.864-7.136 16-16 16h-103c-8.864 0-16-7.136-16-16v-153c0-8.864 7.136-16 16-16z" fill-opacity=".49804"/>
 <path d="m17 1h103c8.864 0 16 7.136 16 16v153c0 8.864-7.136 16-16 16h-103c-8.864 0-16-7.136-16-16v-153c0-8.864 7.136-16 16-16z" fill="#e7e7e7"/>
 <path d="m19 3h103c8.864 0 16 7.136 16 16v153c0 8.864-7.136 16-16 16h-103c-8.864 0-16-7.136-16-16v-153c0-8.864 7.136-16 16-16z" fill="#c7891f"/>
 <path d="m18 2h103c8.864 0 16 7.136 16 16v153c0 8.864-7.136 16-16 16h-103c-8.864 0-16-7.136-16-16v-153c0-8.864 7.136-16 16-16z" fill="#fff"/>
 <path d="m20.527 48.67c-2.6664 0-4.8299 3.2635-4.8299 7.2857 0 3.4266 4.3921 9.1917 4.2215 11.93-1.4102 0.78242-5.7673-6.4375-8.019-6.4375-2.6664 0-4.8299 3.2635-4.8299 7.2857s2.1635 7.2857 4.8299 7.2857c2.3125 0 6.2757-7.214 8.019-6.5627l-2.9289 12.874 7.0236-0.04171s-3.0769-12.481-3.0808-12.776h0.0553v0.01391c1.7073-0.63971 5.8059 6.6322 8.102 6.6322 2.6664 0 4.8299-3.2635 4.8299-7.2857s-2.1635-7.2857-4.8299-7.2857c-2.2426 0-6.3077 7.1005-8.0928 6.368 0.02508-2.8054 4.3598-8.5763 4.3598-11.999 0-4.0221-2.1635-7.2857-4.8299-7.2857z" fill-rule="evenodd"/>
 <path d="m11.677 42.368v-23.59l-5.237-0.06877 0.25258-3.6227 4.9544-3.0885h5.4922v30.37m13.434-15.222c-2e-5 -3.7508-0.26521-6.3897-0.79542-7.9169-0.52019-1.5405-1.4005-2.3107-2.641-2.3108s-2.1258 0.77028-2.656 2.3108c-0.53017 1.5271-0.79529 4.1661-0.79528 7.9169-1e-5 3.791 0.26511 6.4634 0.79528 8.0173s1.4156 2.3309 2.656 2.3309c1.2305 0 2.1109-0.77695 2.641-2.3309s0.7954-4.2263 0.79542-8.0173m5.7772 0.06028c-3e-5 4.9698-0.8003 8.8077-2.4009 11.514-1.6006 2.6925-3.8716 4.0388-6.8127 4.0388-2.9511 0-5.227-1.3463-6.8276-4.0388-1.6006-2.7059-2.4009-6.5438-2.4009-11.514 0-4.9832 0.80025-8.8211 2.4009-11.514 1.6006-2.7059 3.8765-4.0589 6.8276-4.0589 2.9412 2e-5 5.2121 1.353 6.8127 4.0589 1.6006 2.6926 2.4009 6.5304 2.4009 11.514"/>
 <path d="m117.42 139.96c2.6664 0 4.8299-3.2635 4.8299-7.2857 0-3.4266-4.3921-9.1917-4.2215-11.93 1.4102-0.78242 5.7673 6.4375 8.019 6.4375 2.6664 0 4.8299-3.2635 4.8299-7.2857s-2.1635-7.2857-4.8299-7.2857c-2.3125 0-6.2757 7.214-8.019 6.5627l2.9289-12.874-7.0236 0.04171s3.077 12.481 3.0808 12.776h-0.05531v-0.01391c-1.7073 0.63971-5.8059-6.6322-8.102-6.6322-2.6664 0-4.8299 3.2635-4.8299 7.2857s2.1635 7.2857 4.8299 7.2857c2.2426 0 6.3077-7.1005 8.0928-6.368-0.02508 2.8054-4.3598 8.5763-4.3598 11.999 0 4.0221 2.1635 7.2857 4.8299 7.2857z" fill-rule="evenodd"/>
 <path d="m126.27 146.27v23.59l5.237 0.06877-0.25258 3.6227-4.9544 3.0885h-5.4922v-30.37m-13.434 15.222c2e-5 3.7508 0.26521 6.3897 0.79542 7.9169 0.52019 1.5405 1.4005 2.3107 2.641 2.3108s2.1258-0.77028 2.656-2.3108c0.53017-1.5271 0.79529-4.1661 0.79528-7.9169 1e-5 -3.791-0.26511-6.4634-0.79528-8.0173s-1.4156-2.3309-2.656-2.3309c-1.2305 0-2.1109 0.77695-2.641 2.3309s-0.7954 4.2263-0.79542 8.0173m-5.7772-0.06028c3e-5 -4.9698 0.8003-8.8077 2.4009-11.514 1.6006-2.6925 3.8716-4.0388 6.8127-4.0388 2.9511 0 5.227 1.3463 6.8276 4.0388 1.6006 2.7059 2.4009 6.5438 2.4009 11.514 0 4.9832-0.80025 8.8211-2.4009 11.514-1.6006 2.7059-3.8765 4.0589-6.8276 4.0589-2.9412-2e-5 -5.2121-1.353-6.8127-4.0589-1.6006-2.6926-2.4009-6.5304-2.4009-11.514"/>
 <path d="m49.199 36c-1.5532 0-2.8134 1.9178-2.8134 4.2814 0 2.0136 2.5584 5.4014 2.459 7.0103-0.82146 0.45978-3.3594-3.783-4.6711-3.783-1.5532 0-2.8134 1.9178-2.8134 4.2814s1.2602 4.2814 2.8134 4.2814c1.347 0 3.6555-4.2392 4.6711-3.8565l-1.7061 7.5651 4.0912-0.02451s-1.7923-7.3345-1.7945-7.5079h0.03222v0.00817c0.9945-0.37592 3.3819 3.8973 4.7194 3.8973 1.5532 0 2.8134-1.9178 2.8134-4.2814s-1.2602-4.2814-2.8134-4.2814c-1.3063 0-3.6742 4.1726-4.714 3.7421 0.01461-1.6486 2.5396-5.0398 2.5396-7.0512 0-2.3636-1.2602-4.2814-2.8134-4.2814z" fill-rule="evenodd"/>
 <path d="m68.839 50.22c-1.5532 0-2.8134 1.9178-2.8134 4.2814 0 2.0136 2.5584 5.4014 2.459 7.0103-0.82147 0.45978-3.3594-3.783-4.6711-3.783-1.5532 0-2.8134 1.9178-2.8134 4.2814s1.2602 4.2814 2.8134 4.2814c1.347 0 3.6555-4.2392 4.6711-3.8565l-1.7061 7.5651 4.0912-0.02451s-1.7923-7.3345-1.7945-7.5079h0.03222v0.00817c0.99449-0.37592 3.3819 3.8973 4.7194 3.8973 1.5532 0 2.8134-1.9178 2.8134-4.2814s-1.2602-4.2814-2.8134-4.2814c-1.3063 0-3.6742 4.1726-4.714 3.7421 0.01461-1.6486 2.5396-5.0398 2.5396-7.0512 0-2.3636-1.2602-4.2814-2.8134-4.2814z" fill-rule="evenodd"/>
 <path d="m90.199 36.22c-1.5532 0-2.8134 1.9178-2.8134 4.2814 0 2.0136 2.5584 5.4014 2.459 7.0103-0.82146 0.45978-3.3594-3.783-4.6711-3.783-1.5532 0-2.8134 1.9178-2.8134 4.2814s1.2602 4.2814 2.8134 4.2814c1.347 0 3.6555-4.2392 4.6711-3.8565l-1.7061 7.5651 4.0912-0.02451s-1.7923-7.3345-1.7945-7.5079h0.03222v0.00817c0.99449-0.37592 3.3819 3.8973 4.7194 3.8974 1.5532 0 2.8134-1.9178 2.8134-4.2814s-1.2602-4.2814-2.8134-4.2814c-1.3063 0-3.6742 4.1726-4.714 3.7421 0.0146-1.6486 2.5396-5.0398 2.5396-7.0512 0-2.3636-1.2602-4.2814-2.8134-4.2814z" fill-rule="evenodd"/>
 <path d="m48.839 71.22c-1.5532 0-2.8134 1.9178-2.8134 4.2814 0 2.0136 2.5584 5.4014 2.459 7.0103-0.82147 0.45978-3.3594-3.783-4.6711-3.783-1.5532 0-2.8134 1.9178-2.8134 4.2814s1.2602 4.2814 2.8134 4.2814c1.347 0 3.6555-4.2392 4.6711-3.8565l-1.7061 7.5651 4.0912-0.02451s-1.7923-7.3345-1.7945-7.5079h0.03222v0.00818c0.99449-0.37592 3.3819 3.8973 4.7194 3.8973 1.5532 0 2.8134-1.9178 2.8134-4.2814s-1.2602-4.2814-2.8134-4.2814c-1.3063 0-3.6742 4.1726-4.714 3.7421 0.01461-1.6486 2.5396-5.0398 2.5396-7.0512 0-2.3636-1.2602-4.2814-2.8134-4.2814z" fill-rule="evenodd"/>
 <path d="m88.199 70c-1.5532 0-2.8134 1.9178-2.8134 4.2814 0 2.0136 2.5584 5.4014 2.459 7.0103-0.82146 0.45978-3.3594-3.783-4.6711-3.783-1.5532 0-2.8134 1.9178-2.8134 4.2814s1.2602 4.2814 2.8134 4.2814c1.347 0 3.6555-4.2392 4.6711-3.8565l-1.7061 7.5651 4.0912-0.02451s-1.7923-7.3345-1.7945-7.5079h0.03221v0.00817c0.9945-0.37592 3.3819 3.8973 4.7194 3.8973 1.5532 0 2.8134-1.9178 2.8134-4.2814s-1.2602-4.2814-2.8134-4.2814c-1.3063 0-3.6742 4.1726-4.714 3.7421 0.01461-1.6486 2.5396-5.0398 2.5396-7.0512 0-2.3636-1.2602-4.2814-2.8134-4.2814z" fill-rule="evenodd"/>
 <path d="m48.161 119c1.5532 0 2.8134-1.9178 2.8134-4.2814 0-2.0136-2.5584-5.4014-2.459-7.0103 0.82147-0.45979 3.3594 3.783 4.6711 3.783 1.5532 0 2.8134-1.9178 2.8134-4.2814s-1.2602-4.2814-2.8134-4.2814c-1.347 0-3.6556 4.2392-4.6711 3.8565l1.7061-7.5651-4.0912 0.02451s1.7923 7.3345 1.7945 7.5079h-0.03221v-0.00817c-0.9945 0.37592-3.3819-3.8973-4.7194-3.8973-1.5532 0-2.8134 1.9178-2.8134 4.2814s1.2602 4.2814 2.8134 4.2814c1.3063 0 3.6742-4.1726 4.714-3.7421-0.01461 1.6486-2.5396 5.0398-2.5396 7.0512 0 2.3636 1.2602 4.2814 2.8134 4.2814z" fill-rule="evenodd"/>
 <path d="m89.801 119.78c1.5532 0 2.8134-1.9178 2.8134-4.2814 0-2.0136-2.5584-5.4014-2.459-7.0103 0.82147-0.45978 3.3594 3.783 4.6711 3.783 1.5532 0 2.8134-1.9178 2.8134-4.2814s-1.2602-4.2814-2.8134-4.2814c-1.347 0-3.6556 4.2392-4.6711 3.8565l1.7061-7.5651-4.0912 0.02451s1.7923 7.3345 1.7945 7.5079h-0.03221v-0.00817c-0.9945 0.37592-3.3819-3.8973-4.7194-3.8973-1.5532 0-2.8134 1.9178-2.8134 4.2814s1.2602 4.2814 2.8134 4.2814c1.3063 0 3.6742-4.1726 4.714-3.7421-0.01461 1.6486-2.5396 5.0398-2.5396 7.0512 0 2.3636 1.2602 4.2814 2.8134 4.2814z" fill-rule="evenodd"/>
 <path d="m68.801 137c1.5532 0 2.8134-1.9178 2.8134-4.2814 0-2.0136-2.5584-5.4014-2.459-7.0103 0.82146-0.45978 3.3594 3.783 4.6711 3.783 1.5532 0 2.8134-1.9178 2.8134-4.2814s-1.2602-4.2814-2.8134-4.2814c-1.347 0-3.6555 4.2392-4.6711 3.8565l1.7061-7.5651-4.0912 0.02451s1.7923 7.3345 1.7945 7.5079h-0.03222v-0.00818c-0.9945 0.37592-3.3819-3.8973-4.7194-3.8973-1.5532 0-2.8134 1.9178-2.8134 4.2814s1.2602 4.2814 2.8134 4.2814c1.3063 0 3.6742-4.1726 4.714-3.7421-0.01461 1.6486-2.5396 5.0398-2.5396 7.0512 0 2.3636 1.2602 4.2814 2.8134 4.2814z" fill-rule="evenodd"/>
 <path d="m90.161 149.78c1.5532 0 2.8134-1.9178 2.8134-4.2814 0-2.0136-2.5584-5.4014-2.459-7.0103 0.82146-0.45978 3.3594 3.783 4.6711 3.783 1.5532 0 2.8134-1.9178 2.8134-4.2814s-1.2602-4.2814-2.8134-4.2814c-1.347 0-3.6556 4.2392-4.6711 3.8565l1.7061-7.5651-4.0912 0.02451s1.7923 7.3345 1.7945 7.5079h-0.03221v-0.00817c-0.9945 0.37592-3.3819-3.8973-4.7194-3.8973-1.5532 0-2.8134 1.9178-2.8134 4.2814s1.2602 4.2814 2.8134 4.2814c1.3063 0 3.6742-4.1726 4.714-3.7421-0.01461 1.6486-2.5396 5.0398-2.5396 7.0512 0 2.3636 1.2602 4.2814 2.8134 4.2814z" fill-rule="evenodd"/>
 <path d="m49.161 149.78c1.5532 0 2.8134-1.9178 2.8134-4.2814 0-2.0136-2.5584-5.4014-2.459-7.0103 0.82146-0.45978 3.3594 3.783 4.6711 3.783 1.5532 0 2.8134-1.9178 2.8134-4.2814s-1.2602-4.2814-2.8134-4.2814c-1.347 0-3.6555 4.2392-4.6711 3.8565l1.7061-7.5651-4.0912 0.02452s1.7923 7.3345 1.7945 7.5079h-0.03221v-0.00818c-0.9945 0.37592-3.3819-3.8973-4.7194-3.8973-1.5532 0-2.8134 1.9178-2.8134 4.2814s1.2602 4.2814 2.8134 4.2814c1.3063 0 3.6742-4.1726 4.714-3.7421-0.01461 1.6486-2.5396 5.0398-2.5396 7.0512 0 2.3636 1.2602 4.2814 2.8134 4.2814z" fill-rule="evenodd"/>
</svg>
