<?xml version="1.0" encoding="UTF-8"?>
<svg viewBox="0 0 140 190" xmlns="http://www.w3.org/2000/svg">
 <path d="m21 5h103c8.864 0 16 7.136 16 16v153c0 8.864-7.136 16-16 16h-103c-8.864 0-16-7.136-16-16v-153c0-8.864 7.136-16 16-16z" fill-opacity=".49804"/>
 <path d="m17 1h103c8.864 0 16 7.136 16 16v153c0 8.864-7.136 16-16 16h-103c-8.864 0-16-7.136-16-16v-153c0-8.864 7.136-16 16-16z" fill="#e7e7e7"/>
 <path d="m19 3h103c8.864 0 16 7.136 16 16v153c0 8.864-7.136 16-16 16h-103c-8.864 0-16-7.136-16-16v-153c0-8.864 7.136-16 16-16z" fill="#c7891f"/>
 <path d="m18 2h103c8.864 0 16 7.136 16 16v153c0 8.864-7.136 16-16 16h-103c-8.864 0-16-7.136-16-16v-153c0-8.864 7.136-16 16-16z" fill="#fff"/>
 <path d="m11.677 42.368v-23.59l-5.237-0.06877 0.25258-3.6227 4.9544-3.0885h5.4922v30.37m13.434-15.222c-2e-5 -3.7508-0.26521-6.3897-0.79542-7.9169-0.52019-1.5405-1.4005-2.3107-2.641-2.3108s-2.1258 0.77028-2.656 2.3108c-0.53017 1.5271-0.79529 4.1661-0.79528 7.9169-1e-5 3.791 0.26511 6.4634 0.79528 8.0173s1.4156 2.3309 2.656 2.3309c1.2305 0 2.1109-0.77695 2.641-2.3309s0.7954-4.2263 0.79542-8.0173m5.7772 0.06028c-3e-5 4.9698-0.8003 8.8077-2.4009 11.514-1.6006 2.6925-3.8716 4.0388-6.8127 4.0388-2.9511 0-5.227-1.3463-6.8276-4.0388-1.6006-2.7059-2.4009-6.5438-2.4009-11.514 0-4.9832 0.80025-8.8211 2.4009-11.514 1.6006-2.7059 3.8765-4.0589 6.8276-4.0589 2.9412 2e-5 5.2121 1.353 6.8127 4.0589 1.6006 2.6926 2.4009 6.5304 2.4009 11.514" fill="#f00"/>
 <path d="m127.2 146.47v23.59l5.237 0.06877-0.25258 3.6227-4.9544 3.0885h-5.4922v-30.37m-13.434 15.222c2e-5 3.7508 0.26521 6.3897 0.79542 7.9169 0.52019 1.5405 1.4005 2.3107 2.641 2.3108s2.1258-0.77028 2.656-2.3108c0.53017-1.5271 0.79529-4.1661 0.79528-7.9169 1e-5 -3.791-0.26511-6.4634-0.79528-8.0173s-1.4156-2.3309-2.656-2.3309c-1.2305 0-2.1109 0.77695-2.641 2.3309s-0.7954 4.2263-0.79542 8.0173m-5.7772-0.06028c3e-5 -4.9698 0.8003-8.8077 2.4009-11.514 1.6006-2.6925 3.8716-4.0388 6.8127-4.0388 2.9511 0 5.227 1.3463 6.8276 4.0388 1.6006 2.7059 2.4009 6.5438 2.4009 11.514 0 4.9832-0.80025 8.8211-2.4009 11.514-1.6006 2.7059-3.8765 4.0589-6.8276 4.0589-2.9412-2e-5 -5.2121-1.353-6.8127-4.0589-1.6006-2.6926-2.4009-6.5304-2.4009-11.514" fill="#f00"/>
 <path d="m20.41 48.665c-4.1258 8.2455-7.1342 12.498-13.34 17.04 5.8724 4.487 10.013 9.1245 13.46 16.62 3.0792-7.1212 6.8464-12.43 13.39-16.843-6.582-3.3489-10.393-8.6536-13.51-16.817z" fill="#f00" fill-rule="evenodd"/>
 <path d="m49.13 36.22c-2.4033 4.8454-4.1557 7.3444-7.7702 10.013 3.4206 2.6368 5.8324 5.3619 7.8405 9.7668 1.7936-4.1847 3.988-7.3044 7.7995-9.8977-3.834-1.968-6.0537-5.0852-7.8698-9.8823z" fill="#f00" fill-rule="evenodd"/>
 <path d="m90.13 36.22c-2.4033 4.8454-4.1557 7.3444-7.7702 10.013 3.4206 2.6368 5.8324 5.3619 7.8405 9.7668 1.7936-4.1847 3.988-7.3044 7.7995-9.8977-3.834-1.968-6.0536-5.0852-7.8698-9.8823z" fill="#f00" fill-rule="evenodd"/>
 <path d="m68.77 50.22c-2.4033 4.8454-4.1557 7.3444-7.7702 10.013 3.4206 2.6368 5.8324 5.3619 7.8405 9.7668 1.7936-4.1847 3.988-7.3044 7.7995-9.8977-3.834-1.968-6.0537-5.0852-7.8698-9.8823z" fill="#f00" fill-rule="evenodd"/>
 <path d="m48.77 71.22c-2.4033 4.8454-4.1557 7.3444-7.7702 10.013 3.4206 2.6368 5.8324 5.3619 7.8405 9.7668 1.7936-4.1847 3.988-7.3044 7.7995-9.8977-3.834-1.968-6.0537-5.0852-7.8698-9.8823z" fill="#f00" fill-rule="evenodd"/>
 <path d="m88.13 70.22c-2.4033 4.8454-4.1557 7.3444-7.7702 10.013 3.4206 2.6368 5.8324 5.3619 7.8405 9.7668 1.7936-4.1847 3.988-7.3044 7.7995-9.8977-3.834-1.968-6.0537-5.0852-7.8698-9.8823z" fill="#f00" fill-rule="evenodd"/>
 <path d="m89.77 100c-2.4033 4.8454-4.1557 7.3444-7.7702 10.013 3.4206 2.6368 5.8324 5.3619 7.8405 9.7668 1.7936-4.1847 3.988-7.3044 7.7995-9.8977-3.834-1.968-6.0537-5.0852-7.8698-9.8823z" fill="#f00" fill-rule="evenodd"/>
 <path d="m48.13 100c-2.4033 4.8454-4.1557 7.3444-7.7702 10.013 3.4206 2.6368 5.8324 5.3619 7.8405 9.7668 1.7936-4.1847 3.988-7.3044 7.7995-9.8977-3.834-1.968-6.0536-5.0852-7.8698-9.8823z" fill="#f00" fill-rule="evenodd"/>
 <path d="m49.13 130c-2.4033 4.8454-4.1557 7.3444-7.7702 10.013 3.4206 2.6368 5.8324 5.3619 7.8405 9.7668 1.7936-4.1847 3.988-7.3044 7.7995-9.8977-3.834-1.968-6.0537-5.0852-7.8698-9.8823z" fill="#f00" fill-rule="evenodd"/>
 <path d="m68.13 117c-2.4033 4.8454-4.1557 7.3444-7.7702 10.013 3.4206 2.6368 5.8324 5.3619 7.8405 9.7668 1.7936-4.1847 3.988-7.3044 7.7995-9.8977-3.834-1.968-6.0537-5.0852-7.8698-9.8823z" fill="#f00" fill-rule="evenodd"/>
 <path d="m90.13 130.22c-2.4033 4.8454-4.1557 7.3444-7.7702 10.013 3.4206 2.6368 5.8324 5.3619 7.8405 9.7668 1.7936-4.1847 3.988-7.3044 7.7995-9.8977-3.834-1.968-6.0536-5.0852-7.8698-9.8823z" fill="#f00" fill-rule="evenodd"/>
 <path d="m118.34 106.3c-4.1258 8.2455-7.1342 12.498-13.34 17.04 5.8724 4.487 10.013 9.1245 13.46 16.62 3.0792-7.1212 6.8464-12.43 13.39-16.843-6.582-3.3489-10.393-8.6536-13.51-16.817z" fill="#f00" fill-rule="evenodd"/>
</svg>
