<?xml version="1.0" encoding="UTF-8"?>
<svg viewBox="0 0 140 190" xmlns="http://www.w3.org/2000/svg">
 <path d="m21 5h103c8.864 0 16 7.136 16 16v153c0 8.864-7.136 16-16 16h-103c-8.864 0-16-7.136-16-16v-153c0-8.864 7.136-16 16-16z" fill-opacity=".49804"/>
 <path d="m17 1h103c8.864 0 16 7.136 16 16v153c0 8.864-7.136 16-16 16h-103c-8.864 0-16-7.136-16-16v-153c0-8.864 7.136-16 16-16z" fill="#e7e7e7"/>
 <path d="m19 3h103c8.864 0 16 7.136 16 16v153c0 8.864-7.136 16-16 16h-103c-8.864 0-16-7.136-16-16v-153c0-8.864 7.136-16 16-16z" fill="#c7891f"/>
 <path d="m18 2h103c8.864 0 16 7.136 16 16v153c0 8.864-7.136 16-16 16h-103c-8.864 0-16-7.136-16-16v-153c0-8.864 7.136-16 16-16z" fill="#fff"/>
 <path d="m11.677 42.368v-23.59l-5.237-0.06877 0.25258-3.6227 4.9544-3.0885h5.4922v30.37m13.434-15.222c-2e-5 -3.7508-0.26521-6.3897-0.79542-7.9169-0.52019-1.5405-1.4005-2.3107-2.641-2.3108s-2.1258 0.77028-2.656 2.3108c-0.53017 1.5271-0.79529 4.1661-0.79528 7.9169-1e-5 3.791 0.26511 6.4634 0.79528 8.0173s1.4156 2.3309 2.656 2.3309c1.2305 0 2.1109-0.77695 2.641-2.3309s0.7954-4.2263 0.79542-8.0173m5.7772 0.06028c-3e-5 4.9698-0.8003 8.8077-2.4009 11.514-1.6006 2.6925-3.8716 4.0388-6.8127 4.0388-2.9511 0-5.227-1.3463-6.8276-4.0388-1.6006-2.7059-2.4009-6.5438-2.4009-11.514 0-4.9832 0.80025-8.8211 2.4009-11.514 1.6006-2.7059 3.8765-4.0589 6.8276-4.0589 2.9412 2e-5 5.2121 1.353 6.8127 4.0589 1.6006 2.6926 2.4009 6.5304 2.4009 11.514" fill="#f00"/>
 <g fill="#f00">
  <path transform="matrix(.31657 0 0 .41973 -33.049 -16.808)" d="m147.21 156.42c-2.5357 0.01275-5.3218 0.48209-8.4062 1.5312-33.623 19.537 11.705 51.041 30.844 78.094l0.55251 0.13831c21.033-29.569 61.072-62.108 30.479-78.232-24.237-8.244-30.711 19.198-30.938 20.188-0.19739-0.86352-5.1424-21.806-22.531-21.719z" fill-rule="evenodd"/>
 </g>
 <path d="m127.19 146.63v23.59l5.237 0.06877-0.25258 3.6227-4.9544 3.0885h-5.4922v-30.37m-13.434 15.222c2e-5 3.7508 0.26521 6.3897 0.79542 7.9169 0.52019 1.5405 1.4005 2.3107 2.641 2.3108s2.1258-0.77028 2.656-2.3108c0.53017-1.5271 0.79529-4.1661 0.79528-7.9169 1e-5 -3.791-0.26511-6.4634-0.79528-8.0173s-1.4156-2.3309-2.656-2.3309c-1.2305 0-2.1109 0.77695-2.641 2.3309s-0.7954 4.2263-0.79542 8.0173m-5.7772-0.06028c3e-5 -4.9698 0.8003-8.8077 2.4009-11.514 1.6006-2.6925 3.8716-4.0388 6.8127-4.0388 2.9511 0 5.227 1.3463 6.8276 4.0388 1.6006 2.7059 2.4009 6.5438 2.4009 11.514 0 4.9832-0.80025 8.8211-2.4009 11.514-1.6006 2.7059-3.8765 4.0589-6.8276 4.0589-2.9412-2e-5 -5.2121-1.353-6.8127-4.0589-1.6006-2.6926-2.4009-6.5304-2.4009-11.514" fill="#f00"/>
 <path d="m125.31 140c0.80271-0.00535 1.6847-0.20235 2.6611-0.64272 10.644-8.2003-3.7054-21.424-9.7641-32.779l-0.1749-0.05805c-6.6583 12.411-19.333 26.069-9.6485 32.837 7.6725 3.4603 9.7222-8.0581 9.7938-8.4734 0.06249 0.36245 1.6279 9.1528 7.1326 9.1161z" fill="#f00" fill-rule="evenodd"/>
 <g fill="#f00">
  <path transform="matrix(.18388 0 0 .24795 38.055 12.219)" d="m147.21 156.42c-2.5357 0.01275-5.3218 0.48209-8.4062 1.5312-33.623 19.537 11.705 51.041 30.844 78.094l0.55251 0.13831c21.033-29.569 61.072-62.108 30.479-78.232-24.237-8.244-30.711 19.198-30.938 20.188-0.19739-0.86352-5.1424-21.806-22.531-21.719z" fill-rule="evenodd"/>
 </g>
 <g fill="#f00">
  <path transform="matrix(-.18388 0 0 -.24795 99.945 174.78)" d="m147.21 156.42c-2.5357 0.01275-5.3218 0.48209-8.4062 1.5312-33.623 19.537 11.705 51.041 30.844 78.094l0.55251 0.13831c21.033-29.569 61.072-62.108 30.479-78.232-24.237-8.244-30.711 19.198-30.938 20.188-0.19739-0.86352-5.1424-21.806-22.531-21.719z" fill-rule="evenodd"/>
 </g>
 <g fill="#f00">
  <path transform="matrix(.18388 0 0 .24795 17.055 1.4393)" d="m147.21 156.42c-2.5357 0.01275-5.3218 0.48209-8.4062 1.5312-33.623 19.537 11.705 51.041 30.844 78.094l0.55251 0.13831c21.033-29.569 61.072-62.108 30.479-78.232-24.237-8.244-30.711 19.198-30.938 20.188-0.19739-0.86352-5.1424-21.806-22.531-21.719z" fill-rule="evenodd"/>
 </g>
 <g fill="#f00">
  <path transform="matrix(.18388 0 0 .24795 56.055 1.2193)" d="m147.21 156.42c-2.5357 0.01275-5.3218 0.48209-8.4062 1.5312-33.623 19.537 11.705 51.041 30.844 78.094l0.55251 0.13831c21.033-29.569 61.072-62.108 30.479-78.232-24.237-8.244-30.711 19.198-30.938 20.188-0.19739-0.86352-5.1424-21.806-22.531-21.719z" fill-rule="evenodd"/>
 </g>
 <g fill="#f00">
  <path transform="matrix(.18388 0 0 .24795 17.695 32.439)" d="m147.21 156.42c-2.5357 0.01275-5.3218 0.48209-8.4062 1.5312-33.623 19.537 11.705 51.041 30.844 78.094l0.55251 0.13831c21.033-29.569 61.072-62.108 30.479-78.232-24.237-8.244-30.711 19.198-30.938 20.188-0.19739-0.86352-5.1424-21.806-22.531-21.719z" fill-rule="evenodd"/>
 </g>
 <g fill="#f00">
  <path transform="matrix(.18388 0 0 .24795 57.055 31.439)" d="m147.21 156.42c-2.5357 0.01275-5.3218 0.48209-8.4062 1.5312-33.623 19.537 11.705 51.041 30.844 78.094l0.55251 0.13831c21.033-29.569 61.072-62.108 30.479-78.232-24.237-8.244-30.711 19.198-30.938 20.188-0.19739-0.86352-5.1424-21.806-22.531-21.719z" fill-rule="evenodd"/>
 </g>
 <g fill="#f00">
  <path transform="matrix(-.18388 0 0 -.24795 80.305 158.56)" d="m147.21 156.42c-2.5357 0.01275-5.3218 0.48209-8.4062 1.5312-33.623 19.537 11.705 51.041 30.844 78.094l0.55251 0.13831c21.033-29.569 61.072-62.108 30.479-78.232-24.237-8.244-30.711 19.198-30.938 20.188-0.19739-0.86352-5.1424-21.806-22.531-21.719z" fill-rule="evenodd"/>
 </g>
 <g fill="#f00">
  <path transform="matrix(-.18388 0 0 -.24795 80.945 185.56)" d="m147.21 156.42c-2.5357 0.01275-5.3218 0.48209-8.4062 1.5312-33.623 19.537 11.705 51.041 30.844 78.094l0.55251 0.13831c21.033-29.569 61.072-62.108 30.479-78.232-24.237-8.244-30.711 19.198-30.938 20.188-0.19739-0.86352-5.1424-21.806-22.531-21.719z" fill-rule="evenodd"/>
 </g>
 <g fill="#f00">
  <path transform="matrix(-.18388 0 0 -.24795 118.3 185.56)" d="m147.21 156.42c-2.5357 0.01275-5.3218 0.48209-8.4062 1.5312-33.623 19.537 11.705 51.041 30.844 78.094l0.55251 0.13831c21.033-29.569 61.072-62.108 30.479-78.232-24.237-8.244-30.711 19.198-30.938 20.188-0.19739-0.86352-5.1424-21.806-22.531-21.719z" fill-rule="evenodd"/>
 </g>
 <g fill="#f00">
  <path transform="matrix(-.18388 0 0 -.24795 119.94 157.78)" d="m147.21 156.42c-2.5357 0.01275-5.3218 0.48209-8.4062 1.5312-33.623 19.537 11.705 51.041 30.844 78.094l0.55251 0.13831c21.033-29.569 61.072-62.108 30.479-78.232-24.237-8.244-30.711 19.198-30.938 20.188-0.19739-0.86352-5.1424-21.806-22.531-21.719z" fill-rule="evenodd"/>
 </g>
</svg>
