<?xml version="1.0" encoding="UTF-8"?>
<svg viewBox="0 0 140 190" xmlns="http://www.w3.org/2000/svg">
 <path d="m21 5h103c8.864 0 16 7.136 16 16v153c0 8.864-7.136 16-16 16h-103c-8.864 0-16-7.136-16-16v-153c0-8.864 7.136-16 16-16z" fill-opacity=".49804"/>
 <path d="m17 1h103c8.864 0 16 7.136 16 16v153c0 8.864-7.136 16-16 16h-103c-8.864 0-16-7.136-16-16v-153c0-8.864 7.136-16 16-16z" fill="#e7e7e7"/>
 <path d="m19 3h103c8.864 0 16 7.136 16 16v153c0 8.864-7.136 16-16 16h-103c-8.864 0-16-7.136-16-16v-153c0-8.864 7.136-16 16-16z" fill="#c7891f"/>
 <path d="m18 2h103c8.864 0 16 7.136 16 16v153c0 8.864-7.136 16-16 16h-103c-8.864 0-16-7.136-16-16v-153c0-8.864 7.136-16 16-16z" fill="#fff"/>
 <path d="m69.839 45c-1.5532 0-2.8134 1.9178-2.8134 4.2814 0 2.0136 2.5584 5.4014 2.459 7.0103-0.82147 0.45979-3.3594-3.783-4.6711-3.783-1.5532 0-2.8134 1.9178-2.8134 4.2814s1.2602 4.2814 2.8134 4.2814c1.347 0 3.6555-4.2392 4.6711-3.8565l-1.7061 7.5651 4.0912-0.02451s-1.7923-7.3345-1.7945-7.5079h0.03222v0.00817c0.99449-0.37592 3.3819 3.8973 4.7194 3.8973 1.5532 0 2.8134-1.9178 2.8134-4.2814s-1.2602-4.2814-2.8134-4.2814c-1.3063 0-3.6742 4.1726-4.714 3.7421 0.01461-1.6486 2.5396-5.0398 2.5396-7.0512 0-2.3636-1.2602-4.2814-2.8134-4.2814z" fill-rule="evenodd"/>
 <path d="m70.199 86.22c-1.5532 0-2.8134 1.9178-2.8134 4.2814 0 2.0136 2.5584 5.4014 2.459 7.0103-0.82147 0.45978-3.3594-3.783-4.6711-3.783-1.5532 0-2.8134 1.9178-2.8134 4.2814s1.2602 4.2814 2.8134 4.2814c1.347 0 3.6555-4.2392 4.6711-3.8565l-1.7061 7.5651 4.0912-0.02451s-1.7923-7.3345-1.7945-7.5079h0.03222v0.00818c0.99449-0.37592 3.3819 3.8973 4.7194 3.8973 1.5532 0 2.8134-1.9178 2.8134-4.2814s-1.2602-4.2814-2.8134-4.2814c-1.3063 0-3.6742 4.1726-4.714 3.7421 0.01461-1.6486 2.5396-5.0398 2.5396-7.0512 0-2.3636-1.2602-4.2814-2.8134-4.2814z" fill-rule="evenodd"/>
 <path d="m69.161 143c1.5532 0 2.8134-1.9178 2.8134-4.2814 0-2.0136-2.5584-5.4014-2.459-7.0103 0.82146-0.45978 3.3594 3.783 4.6711 3.783 1.5532 0 2.8134-1.9178 2.8134-4.2814s-1.2602-4.2814-2.8134-4.2814c-1.347 0-3.6555 4.2392-4.6711 3.8565l1.7061-7.5651-4.0912 0.02451s1.7923 7.3345 1.7945 7.5079h-0.03222v-0.00818c-0.9945 0.37592-3.3819-3.8973-4.7194-3.8973-1.5532 0-2.8134 1.9178-2.8134 4.2814s1.2602 4.2814 2.8134 4.2814c1.3063 0 3.6742-4.1726 4.714-3.7421-0.01461 1.6486-2.5396 5.0398-2.5396 7.0512 0 2.3636 1.2602 4.2814 2.8134 4.2814z" fill-rule="evenodd"/>
 <path d="m20.527 48.665c-2.6664 0-4.8299 3.2635-4.8299 7.2857 0 3.4266 4.3921 9.1917 4.2215 11.93-1.4102 0.78242-5.7673-6.4375-8.019-6.4375-2.6664 0-4.8299 3.2635-4.8299 7.2857s2.1635 7.2857 4.8299 7.2857c2.3125 0 6.2757-7.214 8.019-6.5627l-2.9289 12.874 7.0236-0.04171s-3.0769-12.481-3.0808-12.776h0.0553v0.01391c1.7073-0.63971 5.8059 6.6322 8.102 6.6322 2.6664 0 4.8299-3.2635 4.8299-7.2857s-2.1635-7.2857-4.8299-7.2857c-2.2426 0-6.3077 7.1005-8.0928 6.368 0.02508-2.8054 4.3598-8.5763 4.3598-11.999 0-4.0221-2.1635-7.2857-4.8299-7.2857z" fill-rule="evenodd"/>
 <path d="m117.42 139.96c2.6664 0 4.8299-3.2635 4.8299-7.2857 0-3.4266-4.3921-9.1917-4.2215-11.93 1.4102-0.78242 5.7673 6.4375 8.019 6.4375 2.6664 0 4.8299-3.2635 4.8299-7.2857s-2.1635-7.2857-4.8299-7.2857c-2.3125 0-6.2757 7.214-8.019 6.5627l2.9289-12.874-7.0236 0.04171s3.077 12.481 3.0808 12.776h-0.05531v-0.01391c-1.7073 0.63971-5.8059-6.6322-8.102-6.6322-2.6664 0-4.8299 3.2635-4.8299 7.2857s2.1635 7.2857 4.8299 7.2857c2.2426 0 6.3077-7.1005 8.0928-6.368-0.02508 2.8054-4.3598 8.5763-4.3598 11.999 0 4.0221 2.1635 7.2857 4.8299 7.2857z" fill-rule="evenodd"/>
 <path d="m24.608 26.063c1.6724 0.52245 2.9405 1.4334 3.8044 2.7327 0.87494 1.286 1.3124 2.927 1.3124 4.9229-2e-5 2.9738-0.94144 5.2377-2.8242 6.7916-1.8828 1.5405-4.6296 2.3108-8.2402 2.3108-1.2737 0-2.5529-0.12726-3.8377-0.38178-1.2737-0.24112-2.5363-0.60951-3.7878-1.1052v-5.9678c1.1962 0.72337 2.3812 1.2726 3.5552 1.6477 1.1851 0.36169 2.348 0.54253 3.4888 0.54253 1.6945 0 2.9904-0.35498 3.8875-1.065 0.90818-0.70996 1.3623-1.728 1.3623-3.0542-1e-5 -1.3664-0.46519-2.3978-1.3955-3.0944-0.91928-0.70996-2.2816-1.065-4.0869-1.065h-2.5584v-4.9832h2.6914c1.6059 2e-5 2.8021-0.30138 3.5885-0.90421 0.78635-0.61618 1.1795-1.5472 1.1795-2.793-2e-5 -1.152-0.38212-2.0428-1.1463-2.6724s-1.8441-0.94437-3.2396-0.9444c-1.03 3e-5 -2.0711 0.14068-3.1233 0.42197s-2.0988 0.6966-3.1399 1.2458v-5.6664c1.2626-0.42863 2.5141-0.75013 3.7546-0.96449s2.4588-0.32147 3.6549-0.3215c3.223 3e-5 5.6319 0.64302 7.2268 1.929 1.6059 1.2726 2.4089 3.1949 2.4089 5.7668-2e-5 1.7549-0.38212 3.1949-1.1463 4.3201-0.76423 1.1119-1.8939 1.8955-3.3891 2.351"/>
 <path d="m114.07 162.93c-1.6724-0.52245-2.9405-1.4334-3.8044-2.7327-0.87495-1.286-1.3124-2.927-1.3124-4.9229 2e-5 -2.9738 0.94143-5.2377 2.8242-6.7916 1.8828-1.5405 4.6296-2.3108 8.2402-2.3108 1.2737 0 2.5529 0.12726 3.8377 0.38178 1.2737 0.24112 2.5363 0.6095 3.7878 1.1052v5.9678c-1.1962-0.72338-2.3812-1.2726-3.5552-1.6477-1.1851-0.36168-2.348-0.54252-3.4888-0.54252-1.6945 0-2.9904 0.35498-3.8875 1.065-0.90818 0.70996-1.3623 1.728-1.3623 3.0542 1e-5 1.3664 0.46518 2.3978 1.3955 3.0944 0.91927 0.70996 2.2816 1.0649 4.0869 1.065h2.5584v4.9832h-2.6913c-1.6059-1e-5 -2.8021 0.30139-3.5885 0.90422-0.78634 0.61617-1.1795 1.5472-1.1796 2.793 2e-5 1.152 0.38213 2.0428 1.1463 2.6724s1.8441 0.94437 3.2396 0.9444c1.03-3e-5 2.0711-0.14068 3.1233-0.42197s2.0988-0.6966 3.1399-1.2458v5.6664c-1.2626 0.42864-2.5141 0.75013-3.7546 0.9645s-2.4587 0.32146-3.6549 0.3215c-3.223-4e-5 -5.6319-0.64303-7.2268-1.929-1.6059-1.2726-2.4089-3.1949-2.4089-5.7668 2e-5 -1.7549 0.38212-3.1949 1.1463-4.3201 0.76423-1.1118 1.8939-1.8955 3.3891-2.3509"/>
</svg>
