<?xml version="1.0" encoding="UTF-8"?>
<svg viewBox="0 0 140 190" xmlns="http://www.w3.org/2000/svg">
 <path d="m21 5h103c8.864 0 16 7.136 16 16v153c0 8.864-7.136 16-16 16h-103c-8.864 0-16-7.136-16-16v-153c0-8.864 7.136-16 16-16z" fill-opacity=".49804"/>
 <path d="m17 1h103c8.864 0 16 7.136 16 16v153c0 8.864-7.136 16-16 16h-103c-8.864 0-16-7.136-16-16v-153c0-8.864 7.136-16 16-16z" fill="#e7e7e7"/>
 <path d="m19 3h103c8.864 0 16 7.136 16 16v153c0 8.864-7.136 16-16 16h-103c-8.864 0-16-7.136-16-16v-153c0-8.864 7.136-16 16-16z" fill="#c7891f"/>
 <path d="m18 2h103c8.864 0 16 7.136 16 16v153c0 8.864-7.136 16-16 16h-103c-8.864 0-16-7.136-16-16v-153c0-8.864 7.136-16 16-16z" fill="#fff"/>
 <path d="m24.848 25.822c1.6724 0.52245 2.9405 1.4334 3.8044 2.7327 0.87494 1.286 1.3124 2.927 1.3124 4.9229-2e-5 2.9738-0.94144 5.2377-2.8242 6.7916-1.8828 1.5405-4.6296 2.3108-8.2402 2.3108-1.2737 0-2.5529-0.12726-3.8377-0.38178-1.2737-0.24112-2.5363-0.6095-3.7878-1.1052v-5.9678c1.1962 0.72337 2.3812 1.2726 3.5552 1.6477 1.1851 0.36169 2.348 0.54253 3.4888 0.54253 1.6945 0 2.9904-0.35498 3.8875-1.065 0.90818-0.70997 1.3623-1.728 1.3623-3.0542-2e-5 -1.3664-0.46519-2.3978-1.3955-3.0944-0.91928-0.70996-2.2816-1.065-4.0869-1.065h-2.5584v-4.9832h2.6914c1.6059 2e-5 2.8021-0.30138 3.5885-0.90421 0.78635-0.61618 1.1795-1.5472 1.1795-2.793-1e-5 -1.152-0.38212-2.0428-1.1463-2.6724s-1.8441-0.94437-3.2396-0.9444c-1.03 3e-5 -2.0711 0.14068-3.1233 0.42196s-2.0988 0.6966-3.1399 1.2458v-5.6664c1.2626-0.42863 2.5141-0.75013 3.7546-0.96449s2.4588-0.32147 3.6549-0.3215c3.223 3e-5 5.6319 0.64302 7.2268 1.929 1.6059 1.2726 2.4089 3.1949 2.4089 5.7669-2e-5 1.7549-0.38212 3.1949-1.1463 4.3201-0.76423 1.1119-1.8939 1.8955-3.3891 2.351" fill="#f00"/>
 <g fill="#f00">
  <path transform="matrix(.31657 0 0 .41973 -33.049 -16.808)" d="m147.21 156.42c-2.5357 0.01275-5.3218 0.48209-8.4062 1.5312-33.623 19.537 11.705 51.041 30.844 78.094l0.55251 0.13831c21.033-29.569 61.072-62.108 30.479-78.232-24.237-8.244-30.711 19.198-30.938 20.188-0.19739-0.86352-5.1424-21.806-22.531-21.719z" fill-rule="evenodd"/>
 </g>
 <path d="m114.02 163.18c-1.6724-0.52244-2.9405-1.4334-3.8044-2.7327-0.87494-1.286-1.3124-2.927-1.3124-4.9229 2e-5 -2.9738 0.94144-5.2377 2.8242-6.7916 1.8828-1.5405 4.6296-2.3108 8.2402-2.3108 1.2737 0 2.5529 0.12725 3.8377 0.38177 1.2737 0.24112 2.5363 0.6095 3.7878 1.1052v5.9678c-1.1962-0.72337-2.3812-1.2726-3.5552-1.6477-1.1851-0.3617-2.348-0.54253-3.4888-0.54253-1.6946 0-2.9904 0.35498-3.8875 1.065-0.90818 0.70997-1.3623 1.728-1.3623 3.0542 1e-5 1.3664 0.46518 2.3978 1.3955 3.0944 0.91927 0.70996 2.2816 1.065 4.0868 1.065h2.5584v4.9832h-2.6914c-1.6059-1e-5 -2.8021 0.30139-3.5885 0.90422-0.78635 0.61618-1.1795 1.5472-1.1795 2.793 2e-5 1.152 0.38212 2.0428 1.1463 2.6724s1.8441 0.94437 3.2396 0.94439c1.03-2e-5 2.0711-0.14068 3.1233-0.42197s2.0988-0.69659 3.1399-1.2458v5.6664c-1.2626 0.42862-2.5141 0.75013-3.7546 0.96448s-2.4588 0.32146-3.6549 0.3215c-3.223-4e-5 -5.6319-0.64303-7.2268-1.929-1.6059-1.2726-2.4089-3.1949-2.4089-5.7668 2e-5 -1.7548 0.38213-3.1949 1.1463-4.3201 0.76422-1.1118 1.8939-1.8955 3.3891-2.3509" fill="#f00"/>
 <g fill="#f00">
  <path transform="matrix(-.31657 0 0 -.41973 171.91 205.65)" d="m147.21 156.42c-2.5357 0.01275-5.3218 0.48209-8.4062 1.5312-33.623 19.537 11.705 51.041 30.844 78.094l0.55251 0.13831c21.033-29.569 61.072-62.108 30.479-78.232-24.237-8.244-30.711 19.198-30.938 20.188-0.19739-0.86352-5.1424-21.806-22.531-21.719z" fill-rule="evenodd"/>
 </g>
 <g fill="#f00">
  <path transform="matrix(.18388 0 0 .24795 38.695 6.4393)" d="m147.21 156.42c-2.5357 0.01275-5.3218 0.48209-8.4062 1.5312-33.623 19.537 11.705 51.041 30.844 78.094l0.55251 0.13831c21.033-29.569 61.072-62.108 30.479-78.232-24.237-8.244-30.711 19.198-30.938 20.188-0.19739-0.86352-5.1424-21.806-22.531-21.719z" fill-rule="evenodd"/>
 </g>
 <g fill="#f00">
  <path transform="matrix(.18388 0 0 .24795 39.055 48.219)" d="m147.21 156.42c-2.5357 0.01275-5.3218 0.48209-8.4062 1.5312-33.623 19.537 11.705 51.041 30.844 78.094l0.55251 0.13831c21.033-29.569 61.072-62.108 30.479-78.232-24.237-8.244-30.711 19.198-30.938 20.188-0.19739-0.86352-5.1424-21.806-22.531-21.719z" fill-rule="evenodd"/>
 </g>
 <g fill="#f00">
  <path transform="matrix(-.18388 0 0 -.24795 100.3 181.56)" d="m147.21 156.42c-2.5357 0.01275-5.3218 0.48209-8.4062 1.5312-33.623 19.537 11.705 51.041 30.844 78.094l0.55251 0.13831c21.033-29.569 61.072-62.108 30.479-78.232-24.237-8.244-30.711 19.198-30.938 20.188-0.19739-0.86352-5.1424-21.806-22.531-21.719z" fill-rule="evenodd"/>
 </g>
</svg>
