<?xml version="1.0" encoding="UTF-8"?>
<svg viewBox="0 0 140 190" xmlns="http://www.w3.org/2000/svg">
 <path d="m21 5h103c8.864 0 16 7.136 16 16v153c0 8.864-7.136 16-16 16h-103c-8.864 0-16-7.136-16-16v-153c0-8.864 7.136-16 16-16z" fill-opacity=".49804"/>
 <path d="m17 1h103c8.864 0 16 7.136 16 16v153c0 8.864-7.136 16-16 16h-103c-8.864 0-16-7.136-16-16v-153c0-8.864 7.136-16 16-16z" fill="#e7e7e7"/>
 <path d="m19 3h103c8.864 0 16 7.136 16 16v153c0 8.864-7.136 16-16 16h-103c-8.864 0-16-7.136-16-16v-153c0-8.864 7.136-16 16-16z" fill="#c7891f"/>
 <path d="m18 2h103c8.864 0 16 7.136 16 16v153c0 8.864-7.136 16-16 16h-103c-8.864 0-16-7.136-16-16v-153c0-8.864 7.136-16 16-16z" fill="#fff"/>
 <path transform="scale(.90928 1.0998)" d="m27.063 23.698c1.8392 0.47505 3.2339 1.3033 4.184 2.4848 0.96224 1.1693 1.4434 2.6614 1.4434 4.4763-2e-5 2.7041-1.0354 4.7626-3.106 6.1755-2.0707 1.4008-5.0915 2.1011-9.0623 2.1011-1.4008 0-2.8076-0.11572-4.2205-0.34714-1.4008-0.21925-2.7893-0.55421-4.1657-1.0049v-5.4264c1.3155 0.65775 2.6188 1.1572 3.9099 1.4982 1.3033 0.32888 2.5822 0.49331 3.8368 0.49331 1.8636 0 3.2887-0.32278 4.2754-0.96835 0.99879-0.64556 1.4982-1.5713 1.4982-2.7772-2e-5 -1.2424-0.5116-2.1803-1.5347-2.8137-1.011-0.64555-2.5092-0.96834-4.4946-0.96835h-2.8137v-4.5311h2.9599c1.7662 2e-5 3.0816-0.27404 3.9465-0.82218 0.8648-0.56028 1.2972-1.4068 1.2972-2.5396-2e-5 -1.0475-0.42024-1.8575-1.2607-2.43s-2.0281-0.8587-3.5628-0.85872c-1.1328 2e-5 -2.2778 0.12792-3.4349 0.38368s-2.3082 0.63341-3.4532 1.1328v-5.1523c1.3886-0.38975 2.765-0.68208 4.1292-0.87699s2.7041-0.2923 4.0196-0.29233c3.5445 3e-5 6.1938 0.58469 7.9478 1.754 1.7662 1.1572 2.6492 2.9051 2.6492 5.2437-2e-5 1.5957-0.42025 2.9051-1.2607 3.9282-0.84047 1.011-2.0829 1.7236-3.7272 2.1377" fill="#f00"/>
 <path transform="scale(-.90928 -1.0998)" d="m-125.45-148.15c1.8392 0.47505 3.2339 1.3033 4.184 2.4848 0.96224 1.1693 1.4434 2.6614 1.4434 4.4763-2e-5 2.7041-1.0354 4.7626-3.106 6.1755-2.0707 1.4008-5.0915 2.1011-9.0623 2.1011-1.4008 0-2.8076-0.11572-4.2205-0.34715-1.4008-0.21925-2.7893-0.55421-4.1657-1.0049v-5.4264c1.3155 0.65775 2.6188 1.1572 3.9099 1.4982 1.3033 0.32887 2.5822 0.49331 3.8368 0.49331 1.8636 0 3.2887-0.32278 4.2754-0.96835 0.99879-0.64556 1.4982-1.5713 1.4982-2.7772-1e-5 -1.2424-0.51159-2.1803-1.5347-2.8137-1.011-0.64556-2.5092-0.96834-4.4946-0.96835h-2.8137v-4.5311h2.9599c1.7662 1e-5 3.0816-0.27405 3.9465-0.82219 0.8648-0.56028 1.2972-1.4068 1.2972-2.5396-2e-5 -1.0475-0.42025-1.8575-1.2607-2.43s-2.0281-0.8587-3.5628-0.85873c-1.1328 3e-5 -2.2778 0.12792-3.4349 0.38369s-2.3082 0.63341-3.4532 1.1328v-5.1523c1.3886-0.38975 2.765-0.68208 4.1292-0.877s2.704-0.2923 4.0196-0.29233c3.5445 3e-5 6.1938 0.58469 7.9478 1.754 1.7662 1.1572 2.6492 2.9051 2.6493 5.2437-3e-5 1.5957-0.42025 2.9051-1.2607 3.9282-0.84048 1.011-2.0829 1.7236-3.7272 2.1377" fill="#f00"/>
 <path d="m20.41 48.665c-4.1258 8.2455-7.1342 12.498-13.34 17.04 5.8724 4.487 10.013 9.1245 13.46 16.62 3.0792-7.1212 6.8464-12.43 13.39-16.843-6.582-3.3489-10.393-8.6536-13.51-16.817z" fill="#f00" fill-rule="evenodd"/>
 <path d="m69.77 45.22c-2.4033 4.8454-4.1557 7.3444-7.7702 10.013 3.4206 2.6368 5.8324 5.3619 7.8405 9.7668 1.7936-4.1847 3.988-7.3044 7.7995-9.8977-3.834-1.968-6.0537-5.0852-7.8698-9.8823z" fill="#f00" fill-rule="evenodd"/>
 <path d="m70.13 86.22c-2.4033 4.8454-4.1557 7.3444-7.7702 10.013 3.4206 2.6368 5.8324 5.3619 7.8405 9.7668 1.7936-4.1847 3.988-7.3044 7.7995-9.8977-3.834-1.968-6.0536-5.0852-7.8698-9.8823z" fill="#f00" fill-rule="evenodd"/>
 <path d="m69.13 123.22c-2.4033 4.8454-4.1557 7.3444-7.7702 10.013 3.4206 2.6368 5.8324 5.3619 7.8405 9.7668 1.7936-4.1847 3.988-7.3044 7.7995-9.8977-3.834-1.968-6.0537-5.0852-7.8698-9.8823z" fill="#f00" fill-rule="evenodd"/>
 <path d="m118.34 106.34c-4.1258 8.2455-7.1342 12.498-13.34 17.04 5.8724 4.487 10.013 9.1245 13.46 16.62 3.0792-7.1212 6.8464-12.43 13.39-16.843-6.582-3.3489-10.393-8.6536-13.51-16.817z" fill="#f00" fill-rule="evenodd"/>
</svg>
