<?xml version="1.0" encoding="UTF-8"?>
<svg viewBox="0 0 140 190" xmlns="http://www.w3.org/2000/svg">
 <path d="m21 5h103c8.864 0 16 7.136 16 16v153c0 8.864-7.136 16-16 16h-103c-8.864 0-16-7.136-16-16v-153c0-8.864 7.136-16 16-16z" fill-opacity=".49804"/>
 <path d="m17 1h103c8.864 0 16 7.136 16 16v153c0 8.864-7.136 16-16 16h-103c-8.864 0-16-7.136-16-16v-153c0-8.864 7.136-16 16-16z" fill="#e7e7e7"/>
 <path d="m19 3h103c8.864 0 16 7.136 16 16v153c0 8.864-7.136 16-16 16h-103c-8.864 0-16-7.136-16-16v-153c0-8.864 7.136-16 16-16z" fill="#c7891f"/>
 <path d="m18 2h103c8.864 0 16 7.136 16 16v153c0 8.864-7.136 16-16 16h-103c-8.864 0-16-7.136-16-16v-153c0-8.864 7.136-16 16-16z" fill="#fff"/>
 <g transform="matrix(.59314 0 0 .23894 -84.412 9.256)">
  <path d="m260.18 149.6c-4.8362 19.241-19.676 52.006-10.275 62.122 5.7065 4.6568 8.4221-4.8759 9.5723-11.187h0.23038l-3.7898 31.836 8.7775-0.09375s-3.7812-30.602-3.7898-31.773h0.09215c0.92901 5.157 4.4542 15.833 8.3321 11.767 11.339-11.397-5.358-43.83-9.1499-62.671z" fill-rule="evenodd"/>
 </g>
 <g transform="matrix(-.59314 0 0 -.23894 223.41 178.52)">
  <path d="m260.18 149.6c-4.8362 19.241-19.676 52.006-10.275 62.122 5.7065 4.6568 8.4221-4.8759 9.5723-11.187h0.23038l-3.7898 31.836 8.7775-0.09375s-3.7812-30.602-3.7898-31.773h0.09215c0.92901 5.157 4.4542 15.833 8.3321 11.767 11.339-11.397-5.358-43.83-9.1499-62.671z" fill-rule="evenodd"/>
 </g>
 <g transform="matrix(.59314 0 0 .23894 -84.053 50.479)">
  <path d="m260.18 149.6c-4.8362 19.241-19.676 52.006-10.275 62.122 5.7065 4.6568 8.4221-4.8759 9.5723-11.187h0.23038l-3.7898 31.836 8.7775-0.09375s-3.7812-30.602-3.7898-31.773h0.09215c0.92901 5.157 4.4542 15.833 8.3321 11.767 11.339-11.397-5.358-43.83-9.1499-62.671z" fill-rule="evenodd"/>
 </g>
 <g transform="matrix(1 0 0 .40081 -239.78 -10.811)">
  <path d="m260.42 148.39c-4.9243 19.522-20.034 52.765-10.462 63.029 5.8105 4.7247 8.5756-4.947 9.7467-11.35h0.23457l-3.8588 32.3 8.9374-0.09512s-3.85-31.049-3.8588-32.237h0.09383c0.94594 5.2323 4.5354 16.064 8.4839 11.939 11.546-11.564-5.4556-44.469-9.3166-63.586z" fill-rule="evenodd"/>
 </g>
 <path d="m24.608 26.063c1.6724 0.52245 2.9405 1.4334 3.8044 2.7327 0.87494 1.286 1.3124 2.927 1.3124 4.9229-2e-5 2.9738-0.94144 5.2377-2.8242 6.7916-1.8828 1.5405-4.6296 2.3108-8.2402 2.3108-1.2737 0-2.5529-0.12726-3.8377-0.38178-1.2737-0.24112-2.5363-0.60951-3.7878-1.1052v-5.9678c1.1962 0.72337 2.3812 1.2726 3.5552 1.6477 1.1851 0.36169 2.348 0.54253 3.4888 0.54253 1.6945 0 2.9904-0.35498 3.8875-1.065 0.90818-0.70996 1.3623-1.728 1.3623-3.0542-1e-5 -1.3664-0.46519-2.3978-1.3955-3.0944-0.91928-0.70996-2.2816-1.065-4.0869-1.065h-2.5584v-4.9832h2.6914c1.6059 2e-5 2.8021-0.30138 3.5885-0.90421 0.78635-0.61618 1.1795-1.5472 1.1795-2.793-2e-5 -1.152-0.38212-2.0428-1.1463-2.6724s-1.8441-0.94437-3.2396-0.9444c-1.03 3e-5 -2.0711 0.14068-3.1233 0.42197s-2.0988 0.6966-3.1399 1.2458v-5.6664c1.2626-0.42863 2.5141-0.75013 3.7546-0.96449s2.4588-0.32147 3.6549-0.3215c3.223 3e-5 5.6319 0.64302 7.2268 1.929 1.6059 1.2726 2.4089 3.1949 2.4089 5.7668-2e-5 1.7549-0.38212 3.1949-1.1463 4.3201-0.76423 1.1119-1.8939 1.8955-3.3891 2.351"/>
 <g transform="matrix(-1 0 0 -.40081 378.46 199.48)">
  <path d="m260.42 148.39c-4.9243 19.522-20.034 52.765-10.462 63.029 5.8105 4.7247 8.5756-4.947 9.7467-11.35h0.23457l-3.8588 32.3 8.9374-0.09512s-3.85-31.049-3.8588-32.237h0.09383c0.94594 5.2323 4.5354 16.064 8.4839 11.939 11.546-11.564-5.4556-44.469-9.3166-63.586z" fill-rule="evenodd"/>
 </g>
 <path d="m114.07 162.93c-1.6724-0.52245-2.9405-1.4334-3.8044-2.7327-0.87495-1.286-1.3124-2.927-1.3124-4.9229 2e-5 -2.9738 0.94143-5.2377 2.8242-6.7916 1.8828-1.5405 4.6296-2.3108 8.2402-2.3108 1.2737 0 2.5529 0.12726 3.8377 0.38178 1.2737 0.24112 2.5363 0.6095 3.7878 1.1052v5.9678c-1.1962-0.72338-2.3812-1.2726-3.5552-1.6477-1.1851-0.36168-2.348-0.54252-3.4888-0.54252-1.6945 0-2.9904 0.35498-3.8875 1.065-0.90818 0.70996-1.3623 1.728-1.3623 3.0542 1e-5 1.3664 0.46518 2.3978 1.3955 3.0944 0.91927 0.70996 2.2816 1.0649 4.0869 1.065h2.5584v4.9832h-2.6913c-1.6059-1e-5 -2.8021 0.30139-3.5885 0.90422-0.78634 0.61617-1.1795 1.5472-1.1796 2.793 2e-5 1.152 0.38213 2.0428 1.1463 2.6724s1.8441 0.94437 3.2396 0.9444c1.03-3e-5 2.0711-0.14068 3.1233-0.42197s2.0988-0.6966 3.1399-1.2458v5.6664c-1.2626 0.42864-2.5141 0.75013-3.7546 0.9645s-2.4587 0.32146-3.6549 0.3215c-3.223-4e-5 -5.6319-0.64303-7.2268-1.929-1.6059-1.2726-2.4089-3.1949-2.4089-5.7668 2e-5 -1.7549 0.38212-3.1949 1.1463-4.3201 0.76423-1.1118 1.8939-1.8955 3.3891-2.3509"/>
</svg>
