<?xml version="1.0" encoding="UTF-8"?>
<svg viewBox="0 0 140 190" xmlns="http://www.w3.org/2000/svg">
 <path d="m21 5h103c8.864 0 16 7.136 16 16v153c0 8.864-7.136 16-16 16h-103c-8.864 0-16-7.136-16-16v-153c0-8.864 7.136-16 16-16z" fill-opacity=".49804"/>
 <path d="m17 1h103c8.864 0 16 7.136 16 16v153c0 8.864-7.136 16-16 16h-103c-8.864 0-16-7.136-16-16v-153c0-8.864 7.136-16 16-16z" fill="#e7e7e7"/>
 <path d="m19 3h103c8.864 0 16 7.136 16 16v153c0 8.864-7.136 16-16 16h-103c-8.864 0-16-7.136-16-16v-153c0-8.864 7.136-16 16-16z" fill="#c7891f"/>
 <path d="m18 2h103c8.864 0 16 7.136 16 16v153c0 8.864-7.136 16-16 16h-103c-8.864 0-16-7.136-16-16v-153c0-8.864 7.136-16 16-16z" fill="#fff"/>
 <path d="m20.527 48.67c-2.6664 0-4.8299 3.2635-4.8299 7.2857 0 3.4266 4.3921 9.1917 4.2215 11.93-1.4102 0.78242-5.7673-6.4375-8.019-6.4375-2.6664 0-4.8299 3.2635-4.8299 7.2857s2.1635 7.2857 4.8299 7.2857c2.3125 0 6.2757-7.214 8.019-6.5627l-2.9289 12.874 7.0236-0.04171s-3.0769-12.481-3.0808-12.776h0.0553v0.01391c1.7073-0.63971 5.8059 6.6322 8.102 6.6322 2.6664 0 4.8299-3.2635 4.8299-7.2857s-2.1635-7.2857-4.8299-7.2857c-2.2426 0-6.3077 7.1005-8.0928 6.368 0.02508-2.8054 4.3598-8.5763 4.3598-11.999 0-4.0221-2.1635-7.2857-4.8299-7.2857z" fill-rule="evenodd"/>
 <path d="m117.42 139.96c2.6664 0 4.8299-3.2635 4.8299-7.2857 0-3.4266-4.3921-9.1917-4.2215-11.93 1.4102-0.78242 5.7673 6.4375 8.019 6.4375 2.6664 0 4.8299-3.2635 4.8299-7.2857s-2.1635-7.2857-4.8299-7.2857c-2.3125 0-6.2757 7.214-8.019 6.5627l2.9289-12.874-7.0236 0.04171s3.077 12.481 3.0808 12.776h-0.05531v-0.01391c-1.7073 0.63971-5.8059-6.6322-8.102-6.6322-2.6664 0-4.8299 3.2635-4.8299 7.2857s2.1635 7.2857 4.8299 7.2857c2.2426 0 6.3077-7.1005 8.0928-6.368-0.02508 2.8054-4.3598 8.5763-4.3598 11.999 0 4.0221 2.1635 7.2857 4.8299 7.2857z" fill-rule="evenodd"/>
 <path d="m68.839 50.22c-1.5532 0-2.8134 1.9178-2.8134 4.2814 0 2.0136 2.5584 5.4014 2.459 7.0103-0.82147 0.45978-3.3594-3.783-4.6711-3.783-1.5532 0-2.8134 1.9178-2.8134 4.2814s1.2602 4.2814 2.8134 4.2814c1.347 0 3.6555-4.2392 4.6711-3.8565l-1.7061 7.5651 4.0912-0.02451s-1.7923-7.3345-1.7945-7.5079h0.03222v0.00817c0.99449-0.37592 3.3819 3.8973 4.7194 3.8973 1.5532 0 2.8134-1.9178 2.8134-4.2814s-1.2602-4.2814-2.8134-4.2814c-1.3063 0-3.6742 4.1726-4.714 3.7421 0.01461-1.6486 2.5396-5.0398 2.5396-7.0512 0-2.3636-1.2602-4.2814-2.8134-4.2814z" fill-rule="evenodd"/>
 <path d="m68.801 137c1.5532 0 2.8134-1.9178 2.8134-4.2814 0-2.0136-2.5584-5.4014-2.459-7.0103 0.82146-0.45978 3.3594 3.783 4.6711 3.783 1.5532 0 2.8134-1.9178 2.8134-4.2814s-1.2602-4.2814-2.8134-4.2814c-1.347 0-3.6555 4.2392-4.6711 3.8565l1.7061-7.5651-4.0912 0.02451s1.7923 7.3345 1.7945 7.5079h-0.03222v-0.00818c-0.9945 0.37592-3.3819-3.8973-4.7194-3.8973-1.5532 0-2.8134 1.9178-2.8134 4.2814s1.2602 4.2814 2.8134 4.2814c1.3063 0 3.6742-4.1726 4.714-3.7421-0.01461 1.6486-2.5396 5.0398-2.5396 7.0512 0 2.3636 1.2602 4.2814 2.8134 4.2814z" fill-rule="evenodd"/>
 <path d="m18.801 36.311h10.915v5.6865h-18.025v-5.6865l9.0542-9.665c0.8085-0.8841 1.4066-1.7481 1.7942-2.5921s0.58145-1.7213 0.58147-2.6323c-2e-5 -1.4065-0.39319-2.5385-1.1795-3.3958-0.7753-0.8573-1.8108-1.286-3.1067-1.286-0.9968 2e-5 -2.0877 0.26124-3.2728 0.78365-1.1851 0.50906-2.4532 1.2726-3.8044 2.2907v-6.5907c1.4398-0.57598 2.863-1.0113 4.2696-1.3061 1.4066-0.30808 2.7855-0.46212 4.1367-0.46216 2.9682 3e-5 5.2719 0.79038 6.9111 2.371 1.6502 1.5807 2.4754 3.7843 2.4754 6.6108-2e-5 1.6343-0.3489 3.1614-1.0466 4.5813-0.69778 1.4066-2.1653 3.2954-4.4025 5.6664l-5.2996 5.6262"/>
 <path d="m120.12 152.44h-10.915v-5.6865h18.025v5.6865l-9.0542 9.665c-0.8085 0.88409-1.4066 1.7481-1.7942 2.5921s-0.58145 1.7213-0.58147 2.6323c2e-5 1.4065 0.3932 2.5385 1.1795 3.3958 0.7753 0.8573 1.8109 1.286 3.1067 1.286 0.9968-3e-5 2.0877-0.26124 3.2728-0.78364 1.1851-0.50906 2.4532-1.2726 3.8044-2.2907v6.5907c-1.4398 0.57598-2.863 1.0114-4.2696 1.3061-1.4066 0.30806-2.7855 0.46212-4.1367 0.46214-2.9682-2e-5 -5.2719-0.79037-6.9111-2.371-1.6502-1.5807-2.4754-3.7843-2.4754-6.6108 1e-5 -1.6343 0.3489-3.1614 1.0466-4.5813 0.69778-1.4066 2.1653-3.2954 4.4025-5.6664l5.2996-5.6262"/>
</svg>
