<?xml version="1.0" encoding="UTF-8"?>
<svg viewBox="0 0 140 190" xmlns="http://www.w3.org/2000/svg">
 <path d="m21 5h103c8.864 0 16 7.136 16 16v153c0 8.864-7.136 16-16 16h-103c-8.864 0-16-7.136-16-16v-153c0-8.864 7.136-16 16-16z" fill-opacity=".49804"/>
 <path d="m17 1h103c8.864 0 16 7.136 16 16v153c0 8.864-7.136 16-16 16h-103c-8.864 0-16-7.136-16-16v-153c0-8.864 7.136-16 16-16z" fill="#e7e7e7"/>
 <path d="m19 3h103c8.864 0 16 7.136 16 16v153c0 8.864-7.136 16-16 16h-103c-8.864 0-16-7.136-16-16v-153c0-8.864 7.136-16 16-16z" fill="#c7891f"/>
 <path d="m18 2h103c8.864 0 16 7.136 16 16v153c0 8.864-7.136 16-16 16h-103c-8.864 0-16-7.136-16-16v-153c0-8.864 7.136-16 16-16z" fill="#fff"/>
 <path transform="matrix(.90928 0 0 1.0998 333.5 184.5)" d="m-346.1-134.75h12.004v5.1706h-19.824v-5.1706l9.9576-8.7882c0.88916-0.8039 1.5469-1.5895 1.9732-2.3569s0.63946-1.5652 0.63947-2.3935c-1e-5 -1.2789-0.43242-2.3082-1.2972-3.0878-0.85265-0.77953-1.9915-1.1693-3.4166-1.1693-1.0962 2e-5 -2.296 0.23754-3.5993 0.71256-1.3033 0.46288-2.698 1.1572-4.184 2.0829v-5.9928c1.5834-0.52373 3.1486-0.9196 4.6956-1.1876 1.5469-0.28013 3.0634-0.4202 4.5494-0.42023 3.2644 3e-5 5.7979 0.71868 7.6006 2.156 1.8149 1.4373 2.7223 3.441 2.7223 6.0111-2e-5 1.486-0.3837 2.8746-1.151 4.1657-0.76739 1.279-2.3813 2.9964-4.8418 5.1523l-5.8284 5.1158" fill="#f00"/>
 <path transform="matrix(-.90928 0 0 -1.0998 333.5 184.5)" d="m234.67 29.148h12.004v5.1706h-19.824v-5.1706l9.9576-8.7882c0.88916-0.8039 1.5469-1.5895 1.9732-2.3569s0.63946-1.5652 0.63947-2.3935c-1e-5 -1.2789-0.43242-2.3082-1.2972-3.0878-0.85265-0.77953-1.9915-1.1693-3.4166-1.1693-1.0962 2e-5 -2.296 0.23754-3.5993 0.71256-1.3033 0.46288-2.698 1.1572-4.184 2.0829v-5.9928c1.5834-0.52373 3.1486-0.9196 4.6956-1.1876 1.5469-0.28012 3.0634-0.4202 4.5494-0.42023 3.2644 3e-5 5.7979 0.71868 7.6006 2.156 1.8149 1.4373 2.7223 3.441 2.7223 6.0111-2e-5 1.486-0.38371 2.8746-1.151 4.1657-0.76739 1.279-2.3813 2.9964-4.8418 5.1524l-5.8284 5.1158" fill="#f00"/>
 <path d="m20.41 48.665c-4.1258 8.2455-7.1342 12.498-13.34 17.04 5.8724 4.487 10.013 9.1245 13.46 16.62 3.0792-7.1212 6.8464-12.43 13.39-16.843-6.582-3.3489-10.393-8.6536-13.51-16.817z" fill="#f00" fill-rule="evenodd"/>
 <path d="m68.77 50.22c-2.4033 4.8454-4.1557 7.3444-7.7702 10.013 3.4206 2.6368 5.8324 5.3619 7.8405 9.7668 1.7936-4.1847 3.988-7.3044 7.7995-9.8977-3.834-1.968-6.0537-5.0852-7.8698-9.8823z" fill="#f00" fill-rule="evenodd"/>
 <path d="m68.13 117c-2.4033 4.8454-4.1557 7.3444-7.7702 10.013 3.4206 2.6368 5.8324 5.3619 7.8405 9.7668 1.7936-4.1847 3.988-7.3044 7.7995-9.8977-3.834-1.968-6.0537-5.0852-7.8698-9.8823z" fill="#f00" fill-rule="evenodd"/>
 <path d="m118.34 106.34c-4.1258 8.2455-7.1342 12.498-13.34 17.04 5.8724 4.487 10.013 9.1245 13.46 16.62 3.0792-7.1212 6.8464-12.43 13.39-16.843-6.582-3.3489-10.393-8.6536-13.51-16.817z" fill="#f00" fill-rule="evenodd"/>
</svg>
