<?xml version="1.0" encoding="UTF-8"?>
<svg viewBox="0 0 140 190" xmlns="http://www.w3.org/2000/svg">
 <path d="m21 5h103c8.864 0 16 7.136 16 16v153c0 8.864-7.136 16-16 16h-103c-8.864 0-16-7.136-16-16v-153c0-8.864 7.136-16 16-16z" fill-opacity=".49804"/>
 <path d="m17 1h103c8.864 0 16 7.136 16 16v153c0 8.864-7.136 16-16 16h-103c-8.864 0-16-7.136-16-16v-153c0-8.864 7.136-16 16-16z" fill="#e7e7e7"/>
 <path d="m19 3h103c8.864 0 16 7.136 16 16v153c0 8.864-7.136 16-16 16h-103c-8.864 0-16-7.136-16-16v-153c0-8.864 7.136-16 16-16z" fill="#c7891f"/>
 <path d="m18 2h103c8.864 0 16 7.136 16 16v153c0 8.864-7.136 16-16 16h-103c-8.864 0-16-7.136-16-16v-153c0-8.864 7.136-16 16-16z" fill="#fff"/>
 <path d="m18.8 36.311h10.915v5.6865h-18.025v-5.6865l9.0542-9.665c0.8085-0.8841 1.4066-1.7481 1.7942-2.5921s0.58145-1.7213 0.58146-2.6323c-1e-5 -1.4065-0.39319-2.5385-1.1795-3.3958-0.7753-0.8573-1.8109-1.286-3.1067-1.286-0.9968 3e-5 -2.0877 0.26124-3.2728 0.78365-1.1851 0.50906-2.4532 1.2726-3.8044 2.2907v-6.5907c1.4398-0.57599 2.863-1.0114 4.2696-1.3061 1.4066-0.30807 2.7855-0.46212 4.1367-0.46215 2.9682 3e-5 5.2719 0.79038 6.9111 2.371 1.6502 1.5807 2.4754 3.7843 2.4754 6.6108-2e-5 1.6343-0.3489 3.1614-1.0466 4.5813-0.69778 1.4066-2.1653 3.2954-4.4025 5.6664l-5.2996 5.6262" fill="#f00"/>
 <g fill="#f00">
  <path transform="matrix(.31657 0 0 .41973 -33.049 -16.808)" d="m147.21 156.42c-2.5357 0.01275-5.3218 0.48209-8.4062 1.5312-33.623 19.537 11.705 51.041 30.844 78.094l0.55251 0.13831c21.033-29.569 61.072-62.108 30.479-78.232-24.237-8.244-30.711 19.198-30.938 20.188-0.19739-0.86352-5.1424-21.806-22.531-21.719z" fill-rule="evenodd"/>
 </g>
 <path d="m120.07 152.69h-10.915v-5.6865h18.025v5.6865l-9.0542 9.665c-0.8085 0.88411-1.4066 1.7481-1.7942 2.5921s-0.58145 1.7213-0.58147 2.6323c2e-5 1.4065 0.3932 2.5385 1.1796 3.3958 0.77529 0.8573 1.8108 1.286 3.1067 1.286 0.99681-2e-5 2.0877-0.26124 3.2728-0.78365 1.1851-0.50906 2.4532-1.2726 3.8044-2.2907v6.5907c-1.4398 0.57598-2.863 1.0113-4.2696 1.3061-1.4066 0.30807-2.7855 0.46211-4.1367 0.46215-2.9682-4e-5 -5.2719-0.79037-6.9111-2.371-1.6502-1.5807-2.4754-3.7843-2.4754-6.6108 2e-5 -1.6343 0.3489-3.1614 1.0466-4.5813 0.69777-1.4066 2.1653-3.2954 4.4025-5.6664l5.2996-5.6262" fill="#f00"/>
 <g fill="#f00">
  <path transform="matrix(-.31657 0 0 -.41973 171.91 205.65)" d="m147.21 156.42c-2.5357 0.01275-5.3218 0.48209-8.4062 1.5312-33.623 19.537 11.705 51.041 30.844 78.094l0.55251 0.13831c21.033-29.569 61.072-62.108 30.479-78.232-24.237-8.244-30.711 19.198-30.938 20.188-0.19739-0.86352-5.1424-21.806-22.531-21.719z" fill-rule="evenodd"/>
 </g>
 <g fill="#f00">
  <path transform="matrix(.18388 0 0 .24795 37.695 11.439)" d="m147.21 156.42c-2.5357 0.01275-5.3218 0.48209-8.4062 1.5312-33.623 19.537 11.705 51.041 30.844 78.094l0.55251 0.13831c21.033-29.569 61.072-62.108 30.479-78.232-24.237-8.244-30.711 19.198-30.938 20.188-0.19739-0.86352-5.1424-21.806-22.531-21.719z" fill-rule="evenodd"/>
 </g>
 <g fill="#f00">
  <path transform="matrix(-.18388 0 0 -.24795 100.3 174.78)" d="m147.21 156.42c-2.5357 0.01275-5.3218 0.48209-8.4062 1.5312-33.623 19.537 11.705 51.041 30.844 78.094l0.55251 0.13831c21.033-29.569 61.072-62.108 30.479-78.232-24.237-8.244-30.711 19.198-30.938 20.188-0.19739-0.86352-5.1424-21.806-22.531-21.719z" fill-rule="evenodd"/>
 </g>
</svg>
