<?xml version="1.0" encoding="UTF-8"?>
<svg viewBox="0 0 140 190" xmlns="http://www.w3.org/2000/svg">
 <path d="m21 5h103c8.864 0 16 7.136 16 16v153c0 8.864-7.136 16-16 16h-103c-8.864 0-16-7.136-16-16v-153c0-8.864 7.136-16 16-16z" fill-opacity=".49804"/>
 <path d="m17 1h103c8.864 0 16 7.136 16 16v153c0 8.864-7.136 16-16 16h-103c-8.864 0-16-7.136-16-16v-153c0-8.864 7.136-16 16-16z" fill="#e7e7e7"/>
 <path d="m19 3h103c8.864 0 16 7.136 16 16v153c0 8.864-7.136 16-16 16h-103c-8.864 0-16-7.136-16-16v-153c0-8.864 7.136-16 16-16z" fill="#c7891f"/>
 <path d="m18 2h103c8.864 0 16 7.136 16 16v153c0 8.864-7.136 16-16 16h-103c-8.864 0-16-7.136-16-16v-153c0-8.864 7.136-16 16-16z" fill="#fff"/>
 <g transform="matrix(.59314 0 0 .23894 -85.425 14.585)">
  <path d="m260.18 149.6c-4.8362 19.241-19.676 52.006-10.275 62.122 5.7065 4.6568 8.4221-4.8759 9.5723-11.187h0.23038l-3.7898 31.836 8.7775-0.09375s-3.7812-30.602-3.7898-31.773h0.09215c0.92901 5.157 4.4542 15.833 8.3321 11.767 11.339-11.397-5.358-43.83-9.1499-62.671z" fill-rule="evenodd"/>
 </g>
 <g transform="matrix(-.59314 0 0 -.23894 223.04 172.76)">
  <path d="m260.18 149.6c-4.8362 19.241-19.676 52.006-10.275 62.122 5.7065 4.6568 8.4221-4.8759 9.5723-11.187h0.23038l-3.7898 31.836 8.7775-0.09375s-3.7812-30.602-3.7898-31.773h0.09215c0.92901 5.157 4.4542 15.833 8.3321 11.767 11.339-11.397-5.358-43.83-9.1499-62.671z" fill-rule="evenodd"/>
 </g>
 <g transform="matrix(1 0 0 .40081 -239.54 -11.052)">
  <path d="m260.18 148.99c-4.9243 19.522-20.034 52.765-10.462 63.029 5.8105 4.7247 8.5756-4.947 9.7467-11.35h0.23457l-3.8588 32.3 8.9374-0.09512s-3.85-31.049-3.8588-32.237h0.09383c0.94594 5.2323 4.5354 16.064 8.4839 11.939 11.546-11.564-5.4556-44.469-9.3166-63.586z" fill-rule="evenodd"/>
 </g>
 <path d="m18.8 36.311h10.915v5.6865h-18.025v-5.6865l9.0542-9.665c0.8085-0.8841 1.4066-1.7481 1.7942-2.5921s0.58145-1.7213 0.58146-2.6322c-1e-5 -1.4065-0.39319-2.5385-1.1795-3.3958-0.7753-0.8573-1.8108-1.286-3.1067-1.286-0.9968 2e-5 -2.0877 0.26124-3.2728 0.78365-1.1851 0.50906-2.4532 1.2726-3.8044 2.2907v-6.5907c1.4398-0.57598 2.863-1.0114 4.2696-1.3061 1.4066-0.30808 2.7855-0.46212 4.1367-0.46216 2.9682 3e-5 5.2719 0.79038 6.9111 2.371 1.6502 1.5807 2.4754 3.7843 2.4754 6.6108-2e-5 1.6343-0.34889 3.1614-1.0466 4.5813-0.69777 1.4066-2.1653 3.2954-4.4025 5.6664l-5.2996 5.6262"/>
 <g transform="matrix(-1 0 0 -.40081 378.46 199.96)">
  <path d="m259.94 149.6c-4.9243 19.522-20.034 52.765-10.462 63.029 5.8105 4.7247 8.5756-4.947 9.7467-11.35h0.23458l-3.8588 32.3 8.9374-0.09512s-3.85-31.049-3.8588-32.237h0.09382c0.94594 5.2323 4.5354 16.064 8.4839 11.939 11.546-11.564-5.4556-44.469-9.3166-63.586z" fill-rule="evenodd"/>
 </g>
 <path d="m120.12 152.44h-10.915v-5.6865h18.025v5.6865l-9.0542 9.665c-0.8085 0.8841-1.4066 1.7481-1.7942 2.5921s-0.58144 1.7213-0.58145 2.6323c1e-5 1.4065 0.39319 2.5385 1.1795 3.3958 0.77529 0.8573 1.8108 1.286 3.1067 1.286 0.9968-3e-5 2.0877-0.26125 3.2728-0.78365 1.1851-0.50906 2.4532-1.2726 3.8044-2.2907v6.5907c-1.4398 0.57599-2.863 1.0114-4.2696 1.3061-1.4066 0.30807-2.7855 0.46212-4.1367 0.46215-2.9682-3e-5 -5.2719-0.79037-6.9111-2.371-1.6502-1.5807-2.4754-3.7843-2.4754-6.6108 2e-5 -1.6343 0.3489-3.1614 1.0466-4.5813 0.69778-1.4066 2.1653-3.2954 4.4025-5.6664l5.2996-5.6262"/>
</svg>
