<?xml version="1.0" encoding="UTF-8"?>
<svg viewBox="0 0 140 190" xmlns="http://www.w3.org/2000/svg" xmlns:xlink="http://www.w3.org/1999/xlink">
 <defs>
  <linearGradient id="b">
   <stop stop-color="#830007" offset="0"/>
   <stop stop-color="#f00" offset="1"/>
  </linearGradient>
  <linearGradient id="a" x1="2" x2="109" y1="62.1" y2="127.7" gradientUnits="userSpaceOnUse">
   <stop stop-color="#ebf0d0" offset="0"/>
   <stop stop-color="#ffffeb" offset="1"/>
  </linearGradient>
  <linearGradient id="d" x1="138.23" x2="36.52" y1="146.62" y2="18.728" gradientTransform="scale(.85424 1.1706)" gradientUnits="userSpaceOnUse" xlink:href="#b"/>
  <linearGradient id="c" x1="22.029" x2="146.4" y1="17.153" y2="140.45" gradientTransform="scale(.85537 1.1691)" gradientUnits="userSpaceOnUse" xlink:href="#b"/>
 </defs>
 <path d="m21 5h103c8.864 0 16 7.136 16 16v153c0 8.864-7.136 16-16 16h-103c-8.864 0-16-7.136-16-16v-153c0-8.864 7.136-16 16-16z" fill-opacity=".49804"/>
 <path d="m17 1h103c8.864 0 16 7.136 16 16v153c0 8.864-7.136 16-16 16h-103c-8.864 0-16-7.136-16-16v-153c0-8.864 7.136-16 16-16z" fill="#fff"/>
 <path d="m19 3h103c8.864 0 16 7.136 16 16v153c0 8.864-7.136 16-16 16h-103c-8.864 0-16-7.136-16-16v-153c0-8.864 7.136-16 16-16z" fill="#c7891f"/>
 <path d="m18 2h103c8.864 0 16 7.136 16 16v153c0 8.864-7.136 16-16 16h-103c-8.864 0-16-7.136-16-16v-153c0-8.864 7.136-16 16-16z" fill="url(#a)"/>
 <path d="m22.167 10h94.417c8.1253 0 14.667 6.5413 14.667 14.667v140.25c0 8.1253-6.5413 14.667-14.667 14.667h-94.417c-8.1253 0-14.667-6.5413-14.667-14.667v-140.25c0-8.1253 6.5413-14.667 14.667-14.667z" fill="url(#d)"/>
 <path d="m22.156 9.375c-8.4608 0-15.281 6.8205-15.281 15.281v140.25c0 8.4608 6.8205 15.312 15.281 15.312h94.438c8.4608 0 15.281-6.8517 15.281-15.312v-140.25c0-8.4608-6.8205-15.281-15.281-15.281h-94.438zm0 1.25h94.438c7.7899 0 14.031 6.2414 14.031 14.031v140.25c0 7.7899-6.2414 14.062-14.031 14.062h-94.438c-7.7899 0-14.031-6.2726-14.031-14.062v-140.25c0-7.7899 6.2414-14.031 14.031-14.031z" fill="url(#c)"/>
 <g transform="matrix(.39888 -.11853 .11853 .39887 8.2159 67.786)">
  <path d="m21 5h103c8.864 0 16 7.136 16 16v153c0 8.864-7.136 16-16 16h-103c-8.864 0-16-7.136-16-16v-153c0-8.864 7.136-16 16-16z" fill-opacity=".49804"/>
  <path d="m17 1h103c8.864 0 16 7.136 16 16v153c0 8.864-7.136 16-16 16h-103c-8.864 0-16-7.136-16-16v-153c0-8.864 7.136-16 16-16z" fill="#fff"/>
  <path d="m19 3h103c8.864 0 16 7.136 16 16v153c0 8.864-7.136 16-16 16h-103c-8.864 0-16-7.136-16-16v-153c0-8.864 7.136-16 16-16z" fill="#c7891f"/>
  <path d="m18 2h103c8.864 0 16 7.136 16 16v153c0 8.864-7.136 16-16 16h-103c-8.864 0-16-7.136-16-16v-153c0-8.864 7.136-16 16-16z" fill="url(#a)"/>
  <path d="m53 31c-9.4007 0-17 7.5993-17 17v93c0 9.4007 7.5993 17 17 17h33c9.4007 0 17-7.5993 17-17v-93c0-9.4007-7.5993-17-17-17h-33zm0 2h33c8.3273 0 15 6.6727 15 15v93c0 8.3273-6.6727 15-15 15h-33c-8.3273 0-15-6.6727-15-15v-93c0-8.3273 6.6727-15 15-15z" fill="#4f00a4"/>
  <path d="m25.079 36.775h-10.001l-1.5783 5.4655h-6.4294l9.1872-30h7.6255l9.1872 30h-6.4294l-1.5617-5.4655m-8.4064-5.566h6.7949l-3.3891-11.936-3.4057 11.936"/>
  <path d="m113.61 152.1h10.001l1.5783-5.4655h6.4294l-9.1872 30h-7.6256l-9.1872-30h6.4294l1.5617 5.4655m8.4064 5.566h-6.7949l3.3891 11.936 3.4057-11.936"/>
  <path d="m20.527 48.665c-2.6664 0-4.8299 3.2635-4.8299 7.2857 0 3.4266 4.3921 9.1917 4.2215 11.93-1.4102 0.78242-5.7673-6.4375-8.019-6.4375-2.6664 0-4.8299 3.2635-4.8299 7.2857s2.1635 7.2857 4.8299 7.2857c2.3125 0 6.2757-7.214 8.019-6.5627 0.03259 0.934-0.05996 9.5422-0.55085 10.162-1.0613 1.3408-2.4057 1.2514-2.4057 1.2514l0.02765 1.4599 7.0236-0.04171 0.02765-1.4599s-1.3352 0.10339-2.3965-1.2374c-0.48834-0.61697-0.7081-9.7838-0.71192-10.079h0.0553v0.01391c1.7073-0.63971 5.8059 6.6322 8.102 6.6322 2.6664 0 4.8299-3.2635 4.8299-7.2857s-2.1635-7.2857-4.8299-7.2857c-2.2426 0-6.3077 7.1005-8.0928 6.368 0.02508-2.8054 4.3598-8.5763 4.3598-11.999 0-4.0221-2.1635-7.2857-4.8299-7.2857z" fill-rule="evenodd"/>
  <path d="m117.42 139.96c2.6664 0 4.8299-3.2635 4.8299-7.2857 0-3.4266-4.3921-9.1917-4.2215-11.93 1.4102-0.78242 5.7673 6.4375 8.019 6.4375 2.6664 0 4.8299-3.2635 4.8299-7.2857s-2.1635-7.2857-4.8299-7.2857c-2.3125 0-6.2757 7.214-8.019 6.5627-0.03259-0.934 0.05996-9.5422 0.55085-10.162 1.0613-1.3408 2.4057-1.2514 2.4057-1.2514l-0.02765-1.4599-7.0236 0.04171-0.02765 1.4599s1.3352-0.10339 2.3965 1.2374c0.48834 0.61697 0.7081 9.7838 0.71192 10.079h-0.05531v-0.01391c-1.7073 0.63971-5.8059-6.6322-8.102-6.6322-2.6664 0-4.8299 3.2635-4.8299 7.2857s2.1635 7.2857 4.8299 7.2857c2.2426 0 6.3077-7.1005 8.0928-6.368-0.02508 2.8054-4.3598 8.5763-4.3598 11.999 0 4.0221 2.1635 7.2857 4.8299 7.2857z" fill-rule="evenodd"/>
  <path d="m69.529 59.05c-5.726 0-10.372 7.0128-10.372 15.656 0 7.3632 9.432 19.751 9.0657 25.635-3.0285 1.6813-12.385-13.833-17.221-13.833-5.726 0-10.372 7.0128-10.372 15.656s4.646 15.656 10.372 15.656c4.9661 0 13.477-15.502 17.221-14.102 0.06999 2.007-0.12877 20.505-1.1829 21.837-2.2792 2.8812-5.1662 2.689-5.1662 2.689l0.05938 3.1371 15.083-0.08963 0.05938-3.1371c1e-5 0-2.8672 0.22216-5.1464-2.6591-1.0487-1.3258-1.5206-21.024-1.5288-21.658h0.11876v0.02989c3.6664-1.3746 12.468 14.251 17.399 14.252 5.726 0 10.372-7.0128 10.372-15.656s-4.646-15.656-10.372-15.656c-4.816 0-13.546 15.258-17.379 13.684 0.05385-6.0284 9.3626-18.429 9.3626-25.784 0-8.6429-4.646-15.656-10.372-15.656z" fill-rule="evenodd"/>
 </g>
 <g transform="matrix(.41334 -.04794 .04794 .41333 28.501 57.683)">
  <path d="m21 5h103c8.864 0 16 7.136 16 16v153c0 8.864-7.136 16-16 16h-103c-8.864 0-16-7.136-16-16v-153c0-8.864 7.136-16 16-16z" fill-opacity=".49804"/>
  <path d="m17 1h103c8.864 0 16 7.136 16 16v153c0 8.864-7.136 16-16 16h-103c-8.864 0-16-7.136-16-16v-153c0-8.864 7.136-16 16-16z" fill="#fff"/>
  <path d="m19 3h103c8.864 0 16 7.136 16 16v153c0 8.864-7.136 16-16 16h-103c-8.864 0-16-7.136-16-16v-153c0-8.864 7.136-16 16-16z" fill="#c7891f"/>
  <path d="m18 2h103c8.864 0 16 7.136 16 16v153c0 8.864-7.136 16-16 16h-103c-8.864 0-16-7.136-16-16v-153c0-8.864 7.136-16 16-16z" fill="url(#a)"/>
  <path d="m53 31c-9.4007 0-17 7.5993-17 17v93c0 9.4007 7.5993 17 17 17h33c9.4007 0 17-7.5993 17-17v-93c0-9.4007-7.5993-17-17-17h-33zm0 2h33c8.3273 0 15 6.6727 15 15v93c0 8.3273-6.6727 15-15 15h-33c-8.3273 0-15-6.6727-15-15v-93c0-8.3273 6.6727-15 15-15z" fill="#4f00a4"/>
  <path d="m25.079 36.775h-10.001l-1.5783 5.4655h-6.4294l9.1872-30h7.6255l9.1872 30h-6.4294l-1.5617-5.4655m-8.4064-5.566h6.7949l-3.3891-11.936-3.4057 11.936" fill="#f00"/>
  <path d="m113.61 152.1h10.001l1.5783-5.4655h6.4294l-9.1872 30h-7.6256l-9.1872-30h6.4294l1.5617 5.4655m8.4064 5.566h-6.7949l3.3891 11.936 3.4057-11.936" fill="#f00"/>
  <path d="m20.41 48.665c-4.1258 8.2455-7.1342 12.498-13.34 17.04 5.8724 4.487 10.013 9.1245 13.46 16.62 3.0792-7.1212 6.8464-12.43 13.39-16.843-6.582-3.3489-10.393-8.6536-13.51-16.817z" fill="#f00" fill-rule="evenodd"/>
  <path d="m118.34 106.34c-4.1258 8.2455-7.1342 12.498-13.34 17.04 5.8724 4.487 10.013 9.1245 13.46 16.62 3.0792-7.1212 6.8464-12.43 13.39-16.843-6.582-3.3489-10.393-8.6536-13.51-16.817z" fill="#f00" fill-rule="evenodd"/>
  <path d="m69.276 59.05c-8.8602 17.718-15.321 26.856-28.646 36.615 12.611 9.6419 21.502 19.607 28.906 35.715 6.6126-15.302 14.703-26.71 28.754-36.193-14.135-7.1963-22.318-18.595-29.014-36.137z" fill="#f00" fill-rule="evenodd"/>
 </g>
 <g transform="matrix(.41324 .0488 -.0488 .41323 51.063 51.705)">
  <path d="m21 5h103c8.864 0 16 7.136 16 16v153c0 8.864-7.136 16-16 16h-103c-8.864 0-16-7.136-16-16v-153c0-8.864 7.136-16 16-16z" fill-opacity=".49804"/>
  <path d="m17 1h103c8.864 0 16 7.136 16 16v153c0 8.864-7.136 16-16 16h-103c-8.864 0-16-7.136-16-16v-153c0-8.864 7.136-16 16-16z" fill="#fff"/>
  <path d="m19 3h103c8.864 0 16 7.136 16 16v153c0 8.864-7.136 16-16 16h-103c-8.864 0-16-7.136-16-16v-153c0-8.864 7.136-16 16-16z" fill="#c7891f"/>
  <path d="m18 2h103c8.864 0 16 7.136 16 16v153c0 8.864-7.136 16-16 16h-103c-8.864 0-16-7.136-16-16v-153c0-8.864 7.136-16 16-16z" fill="url(#a)"/>
  <path d="m53 31c-9.4007 0-17 7.5993-17 17v93c0 9.4007 7.5993 17 17 17h33c9.4007 0 17-7.5993 17-17v-93c0-9.4007-7.5993-17-17-17h-33zm0 2h33c8.3273 0 15 6.6727 15 15v93c0 8.3273-6.6727 15-15 15h-33c-8.3273 0-15-6.6727-15-15v-93c0-8.3273 6.6727-15 15-15z" fill="#4f00a4"/>
  <path d="m25.449 36.534h-10.001l-1.5783 5.4655h-6.4294l9.1872-30h7.6256l9.1872 30h-6.4294l-1.5617-5.4655m-8.4064-5.566h6.7949l-3.3891-11.936-3.4057 11.936" fill="#f00"/>
  <g fill="#f00">
   <path transform="matrix(.31657 0 0 .41973 -32.475 -16.808)" d="m147.21 156.42c-2.5357 0.01275-5.3218 0.48209-8.4062 1.5312-33.623 19.537 11.705 51.041 30.844 78.094l0.55251 0.13831c21.033-29.569 61.072-62.108 30.479-78.232-24.237-8.244-30.711 19.198-30.938 20.188-0.19739-0.86352-5.1424-21.806-22.531-21.719z" fill-rule="evenodd"/>
  </g>
  <path d="m113.57 152.47h10.001l1.5783-5.4655h6.4294l-9.1872 30h-7.6256l-9.1872-30h6.4294l1.5617 5.4655m8.4064 5.566h-6.7949l3.3891 11.936 3.4058-11.936" fill="#f00"/>
  <g fill="#f00">
   <path transform="matrix(-.31661 0 0 -.41973 171.5 205.65)" d="m147.21 156.42c-2.5357 0.01275-5.3218 0.48209-8.4062 1.5312-33.623 19.537 11.705 51.041 30.844 78.094l0.55251 0.13831c21.033-29.569 61.072-62.108 30.479-78.232-24.237-8.244-30.711 19.198-30.938 20.188-0.19739-0.86352-5.1424-21.806-22.531-21.719z" fill-rule="evenodd"/>
  </g>
  <g fill="#f00">
   <path transform="matrix(.67793 0 0 .90668 -45.287 -82.76)" d="m147.21 156.42c-2.5357 0.01275-5.3218 0.48209-8.4062 1.5312-33.623 19.537 11.705 51.041 30.844 78.094l0.55251 0.13831c21.033-29.569 61.072-62.108 30.479-78.232-24.237-8.244-30.711 19.198-30.938 20.188-0.19739-0.86352-5.1424-21.806-22.531-21.719z" fill-rule="evenodd"/>
  </g>
 </g>
 <g transform="matrix(.38003 .16949 -.1695 .38002 76.998 49.696)">
  <path d="m21 5h103c8.864 0 16 7.136 16 16v153c0 8.864-7.136 16-16 16h-103c-8.864 0-16-7.136-16-16v-153c0-8.864 7.136-16 16-16z" fill-opacity=".49804"/>
  <path d="m17 1h103c8.864 0 16 7.136 16 16v153c0 8.864-7.136 16-16 16h-103c-8.864 0-16-7.136-16-16v-153c0-8.864 7.136-16 16-16z" fill="#fff"/>
  <path d="m19 3h103c8.864 0 16 7.136 16 16v153c0 8.864-7.136 16-16 16h-103c-8.864 0-16-7.136-16-16v-153c0-8.864 7.136-16 16-16z" fill="#c7891f"/>
  <path d="m18 2h103c8.864 0 16 7.136 16 16v153c0 8.864-7.136 16-16 16h-103c-8.864 0-16-7.136-16-16v-153c0-8.864 7.136-16 16-16z" fill="url(#a)"/>
  <path d="m53 31c-9.4007 0-17 7.5993-17 17v93c0 9.4007 7.5993 17 17 17h33c9.4007 0 17-7.5993 17-17v-93c0-9.4007-7.5993-17-17-17h-33zm0 2h33c8.3273 0 15 6.6727 15 15v93c0 8.3273-6.6727 15-15 15h-33c-8.3273 0-15-6.6727-15-15v-93c0-8.3273 6.6727-15 15-15z" fill="#4f00a4"/>
  <g transform="matrix(1 0 0 .40081 -239.33 -10.811)">
   <path d="m260.42 148.39c-4.9243 19.522-20.034 52.765-10.462 63.029 5.8105 4.7247 8.5756-4.947 9.7467-11.35h0.23458c-0.00881 1.204-0.21719 24.756-0.83276 26.15-1.3505 3.0574-3.0612 2.8217-3.0612 2.8217l0.03519 3.329 8.9374-0.09512 0.03519-3.2973s-1.699 0.20404-3.0495-2.8534c-0.61566-1.3938-0.83573-24.898-0.84449-26.086h0.09383c0.94594 5.2323 4.5354 16.064 8.4839 11.939 11.546-11.564-5.4556-44.469-9.3166-63.586z" fill-rule="evenodd"/>
  </g>
  <path d="m25.079 36.775h-10.001l-1.5783 5.4655h-6.4294l9.1872-30h7.6255l9.1872 30h-6.4294l-1.5617-5.4655m-8.4064-5.566h6.7949l-3.3891-11.936-3.4057 11.936"/>
  <g transform="matrix(-1 0 0 -.40081 378.02 199.48)">
   <path d="m260.42 148.39c-4.9243 19.522-20.034 52.765-10.462 63.029 5.8105 4.7247 8.5756-4.947 9.7467-11.35h0.23458c-0.00881 1.204-0.21719 24.756-0.83276 26.15-1.3505 3.0574-3.0612 2.8217-3.0612 2.8217l0.03519 3.329 8.9374-0.09512 0.03519-3.2973s-1.699 0.20404-3.0495-2.8534c-0.61566-1.3938-0.83573-24.898-0.84449-26.086h0.09383c0.94594 5.2323 4.5354 16.064 8.4839 11.939 11.546-11.564-5.4556-44.469-9.3166-63.586z" fill-rule="evenodd"/>
  </g>
  <path d="m113.61 152.1h10.001l1.5783-5.4655h6.4294l-9.1872 30h-7.6256l-9.1872-30h6.4294l1.5617 5.4655m8.4064 5.566h-6.7949l3.3891 11.936 3.4057-11.936"/>
  <g transform="matrix(2.1475 0 0 .86129 -489.47 -68.756)">
   <path d="m260.42 148.39c-4.9243 19.522-20.034 52.765-10.462 63.029 5.8105 4.7247 8.5756-4.947 9.7467-11.35h0.23458c-0.00881 1.204-0.21719 24.756-0.83276 26.15-1.3505 3.0574-3.0612 2.8217-3.0612 2.8217l0.03519 3.329 8.9374-0.09512 0.03519-3.2973s-1.699 0.20404-3.0495-2.8534c-0.61566-1.3938-0.83573-24.898-0.84449-26.086h0.09383c0.94594 5.2323 4.5354 16.064 8.4839 11.939 11.546-11.564-5.4556-44.469-9.3166-63.586z" fill-rule="evenodd"/>
  </g>
 </g>
</svg>
